<?xml version="1.0" encoding="UTF-8"?>
<svg id="Calque_2" data-name="Calque 2" xmlns="http://www.w3.org/2000/svg" viewBox="0 0 863.63 954.11">
  <defs>
    <style>
      .cls-1 {
        fill: #1d1d1b;
      }
    </style>
  </defs>
  <g id="Calque_1-2" data-name="Calque 1">
    <g>
      <path class="cls-1" d="M467.09,174.65l-41.55,22.24c-5.97,3.2-13.34,2.09-18.11-2.72l-105.7-106.72c-4.12-4.16-5.7-10.2-4.15-15.85l12.54-45.67c3.08-11.22,17.06-15.04,25.42-6.94l71.81,69.58c4.77,4.63,11.99,5.64,17.86,2.52l28.01-14.93c10.2-5.44,22.51,1.96,22.51,13.51v70.55c0,6.03-3.32,11.58-8.64,14.43Z"/>
      <circle class="cls-1" cx="415.36" cy="30.11" r="30.11"/>
      <path class="cls-1" d="M396.54,439.81l41.55-22.24c5.97-3.2,13.34-2.09,18.11,2.72l105.7,106.72c4.12,4.16,5.7,10.2,4.15,15.85l-12.54,45.67c-3.08,11.22-17.06,15.04-25.42,6.94l-71.81-69.58c-4.77-4.63-11.99-5.64-17.86-2.52l-28.01,14.93c-10.2,5.44-22.51-1.96-22.51-13.51v-70.55c0-6.03,3.32-11.58,8.64-14.43Z"/>
      <circle class="cls-1" cx="448.27" cy="584.35" r="30.11"/>
      <path class="cls-1" d="M564.4,342.51l-22.24-41.55c-3.2-5.97-2.09-13.34,2.72-18.11l106.72-105.7c4.16-4.12,10.2-5.7,15.85-4.15l45.67,12.54c11.22,3.08,15.04,17.06,6.94,25.42l-69.58,71.81c-4.63,4.77-5.64,11.99-2.52,17.86l14.93,28.01c5.44,10.2-1.96,22.51-13.51,22.51h-70.55c-6.03,0-11.58-3.32-14.43-8.64Z"/>
      <circle class="cls-1" cx="708.93" cy="290.78" r="30.11"/>
      <path class="cls-1" d="M299.23,271.96l22.24,41.55c3.2,5.97,2.09,13.34-2.72,18.11l-106.72,105.7c-4.16,4.12-10.2,5.7-15.85,4.15l-45.67-12.54c-11.22-3.08-15.04-17.06-6.94-25.42l69.58-71.81c4.63-4.77,5.64-11.99,2.52-17.86l-14.93-28.01c-5.44-10.2,1.96-22.51,13.51-22.51h70.55c6.03,0,11.58,3.32,14.43,8.64Z"/>
      <circle class="cls-1" cx="154.69" cy="323.68" r="30.11"/>
      <path class="cls-1" d="M500.62,425.92l13.65-45.11c1.96-6.49,7.95-10.91,14.73-10.88l150.21.72c5.86.03,11.25,3.18,14.14,8.27l23.42,41.16c5.76,10.12-1.43,22.7-13.07,22.88l-99.98,1.58c-6.65.1-12.47,4.49-14.41,10.85l-9.25,30.36c-3.37,11.06-17.3,14.54-25.47,6.36l-49.88-49.88c-4.27-4.27-5.84-10.54-4.09-16.31Z"/>
      <circle class="cls-1" cx="639.4" cy="491.55" r="30.11"/>
      <path class="cls-1" d="M363.01,188.54l-13.65,45.11c-1.96,6.49-7.95,10.91-14.73,10.88l-150.21-.72c-5.86-.03-11.25-3.18-14.14-8.27l-23.42-41.16c-5.76-10.12,1.43-22.7,13.07-22.88l99.98-1.58c6.65-.1,12.47-4.49,14.41-10.85l9.25-30.36c3.37-11.06,17.3-14.54,25.47-6.36l49.88,49.88c4.27,4.27,5.84,10.54,4.09,16.31Z"/>
      <circle class="cls-1" cx="224.23" cy="122.91" r="30.11"/>
      <path class="cls-1" d="M550.51,238.42l-45.11-13.65c-6.49-1.96-10.91-7.95-10.88-14.73l.72-150.21c.03-5.86,3.18-11.25,8.27-14.14l41.16-23.42c10.12-5.76,22.7,1.43,22.88,13.07l1.58,99.98c.1,6.65,4.49,12.47,10.85,14.41l30.36,9.25c11.06,3.37,14.54,17.3,6.36,25.47l-49.88,49.88c-4.27,4.27-10.54,5.84-16.31,4.09Z"/>
      <circle class="cls-1" cx="616.13" cy="99.64" r="30.11"/>
      <path class="cls-1" d="M313.12,376.04l45.11,13.65c6.49,1.96,10.91,7.95,10.88,14.73l-.72,150.21c-.03,5.86-3.18,11.25-8.27,14.14l-41.16,23.42c-10.12,5.76-22.7-1.43-22.88-13.07l-1.58-99.98c-.1-6.65-4.49-12.47-10.85-14.41l-30.36-9.25c-11.06-3.37-14.54-17.3-6.36-25.47l49.88-49.88c4.27-4.27,10.54-5.84,16.31-4.09Z"/>
      <circle class="cls-1" cx="247.49" cy="514.82" r="30.11"/>
    </g>
    <g>
      <g>
        <g>
          <path class="cls-1" d="M0,807.3v-113.25c0-2.54,2.06-4.61,4.61-4.61h28.67c2.3,0,4.25,1.7,4.56,3.98l9.75,70.68,9.68-70.68c.31-2.28,2.26-3.98,4.56-3.98h29.02c2.54,0,4.61,2.06,4.61,4.61v113.25c0,2.54-2.06,4.61-4.61,4.61h-13.19c-2.54,0-4.61-2.06-4.61-4.61v-83.62l-13.44,84.34c-.36,2.24-2.28,3.88-4.55,3.88h-14.16c-2.25,0-4.17-1.62-4.54-3.84l-14.24-84.39v83.62c0,2.54-2.06,4.61-4.61,4.61H4.61c-2.54,0-4.61-2.06-4.61-4.61Z"/>
          <path class="cls-1" d="M105.2,807.3v-81.52c0-2.54,2.06-4.61,4.61-4.61h14.45c2.54,0,4.61,2.06,4.61,4.61v81.52c0,2.54-2.06,4.61-4.61,4.61h-14.45c-2.54,0-4.61-2.06-4.61-4.61Z"/>
          <path class="cls-1" d="M138.6,807.3v-113.25c0-2.54,2.06-4.61,4.61-4.61h15.28c2.54,0,4.61,2.06,4.61,4.61v96.98h25.19v16.27c0,2.54-2.06,4.61-4.61,4.61h-40.47c-2.54,0-4.61-2.06-4.61-4.61Z"/>
          <path class="cls-1" d="M264.4,807.3v-113.25c0-2.54,2.06-4.61,4.61-4.61h16.78c2.21,0,4.11,1.57,4.52,3.74l10.55,54.92v-54.05c0-2.54,2.06-4.61,4.61-4.61h14.44c2.54,0,4.61,2.06,4.61,4.61v113.25c0,2.54-2.06,4.61-4.61,4.61h-15.55c-2.2,0-4.09-1.55-4.52-3.7l-11.5-57.53v56.62c0,2.54-2.06,4.61-4.61,4.61h-14.72c-2.54,0-4.61-2.06-4.61-4.61Z"/>
          <path class="cls-1" d="M466.59,813.02c-8.86,0-15.99-2.76-21.4-8.28-5.4-5.52-8.11-13.24-8.11-23.17v-56.5c0-11.87,2.35-20.97,7.06-27.27,4.71-6.31,12.37-9.46,23-9.46,5.8,0,10.96,1.07,15.48,3.2,4.52,2.13,8.08,5.32,10.68,9.57,2.6,4.24,3.9,9.59,3.9,16.04v16.55c0,2.54-2.06,4.61-4.61,4.61h-15.14c-2.54,0-4.61-2.06-4.61-4.61v-13.48c0-3.66-.46-6.13-1.39-7.41-.93-1.28-2.37-1.91-4.31-1.91-2.27,0-3.8.82-4.59,2.47-.79,1.65-1.18,3.84-1.18,6.57v61.3c0,3.39.5,5.77,1.5,7.17,1,1.39,2.42,2.09,4.28,2.09,2.09,0,3.56-.86,4.42-2.57.86-1.72,1.29-3.94,1.29-6.68v-17.45c0-2.54,2.06-4.61,4.61-4.61h15.42c2.54,0,4.61,2.06,4.61,4.61v18.56c0,10.76-2.71,18.57-8.14,23.41-5.43,4.85-13.01,7.27-22.75,7.27Z"/>
          <path class="cls-1" d="M574.92,807.3v-113.25c0-2.54,2.06-4.61,4.61-4.61h32.97c6.26,0,10.99,1.43,14.19,4.28,3.2,2.85,5.35,6.84,6.44,11.97,1.09,5.13,1.64,11.14,1.64,18.06s-.85,12.01-2.54,16c-1.69,3.99-4.88,6.75-9.57,8.28,3.85.79,6.55,2.7,8.11,5.74,1.55,3.04,2.33,6.97,2.33,11.79v41.73c0,2.54-2.06,4.61-4.61,4.61h-14.93c-2.54,0-4.61-2.06-4.61-4.61v-43.33c0-3.57-.73-5.79-2.19-6.64-1.46-.86-3.82-1.29-7.06-1.29v51.27c0,2.54-2.06,4.61-4.61,4.61h-15.56c-2.54,0-4.61-2.06-4.61-4.61ZM599.83,734.82h5.91c3.39,0,5.08-3.69,5.08-11.06,0-4.78-.37-7.91-1.11-9.39-.74-1.48-2.13-2.23-4.17-2.23h-5.71v22.68Z"/>
          <path class="cls-1" d="M653.33,807.3v-94.33h-9.94c-2.54,0-4.61-2.06-4.61-4.61v-14.31c0-2.54,2.06-4.61,4.61-4.61h44.36c2.54,0,4.61,2.06,4.61,4.61v14.31c0,2.54-2.06,4.61-4.61,4.61h-9.94v94.33c0,2.54-2.06,4.61-4.61,4.61h-15.28c-2.54,0-4.61-2.06-4.61-4.61Z"/>
          <path class="cls-1" d="M698.07,807.3v-81.52c0-2.54,2.06-4.61,4.61-4.61h14.45c2.54,0,4.61,2.06,4.61,4.61v81.52c0,2.54-2.06,4.61-4.61,4.61h-14.45c-2.54,0-4.61-2.06-4.61-4.61ZM117.03,689.45c-6.53,0-11.83,5.3-11.83,11.83s5.3,11.83,11.83,11.83,11.83-5.3,11.83-11.83-5.3-11.83-11.83-11.83ZM709.9,689.45c-6.53,0-11.83,5.3-11.83,11.83s5.3,11.83,11.83,11.83,11.83-5.3,11.83-11.83-5.3-11.83-11.83-11.83Z"/>
          <path class="cls-1" d="M731.47,807.3v-113.25c0-2.54,2.06-4.61,4.61-4.61h16.78c2.21,0,4.11,1.57,4.52,3.74l10.55,54.92v-54.05c0-2.54,2.06-4.61,4.61-4.61h14.44c2.54,0,4.61,2.06,4.61,4.61v113.25c0,2.54-2.06,4.61-4.61,4.61h-15.55c-2.2,0-4.09-1.55-4.52-3.7l-11.5-57.53v56.62c0,2.54-2.06,4.61-4.61,4.61h-14.72c-2.54,0-4.61-2.06-4.61-4.61Z"/>
        </g>
        <path class="cls-1" d="M256.4,806.87l-10.75-113.25c-.22-2.36-2.21-4.17-4.59-4.17h-33.17c-1.93,0-3.59,1.19-4.28,2.9-.05.13-.1.26-.14.4-.02.07-.04.14-.06.21-.05.21-.09.43-.11.65l-10.94,113.25c-.26,2.7,1.87,5.05,4.58,5.05h14.46c2.41,0,4.41-1.85,4.59-4.25l.92-11.92,14.06-13.9.94,10.3h.03l.64,7.3.73,8.26c.21,2.38,2.2,4.2,4.59,4.2h13.89c2.72,0,4.84-2.34,4.59-5.04ZM219.73,762.38l3.89-52.06h1.11l.05.55,4.43,51.44.42,4.59-9.91-4.53Z"/>
        <path class="cls-1" d="M203.32,693.61c.02-.22.06-.44.11-.65-.05.21-.09.43-.11.65l-10.94,113.25,10.93-113.25Z"/>
        <path class="cls-1" d="M223.62,710.33h.56c-.31,0-.58.24-.6.55l-3.86,51.5,3.89-52.06Z"/>
        <path class="cls-1" d="M224.78,710.88c-.03-.31-.29-.55-.6-.55h.56l.05.55Z"/>
        <path class="cls-1" d="M863.61,806.87l-10.75-113.25c-.22-2.36-2.21-4.17-4.59-4.17h-33.17c-2.37,0-4.35,1.8-4.59,4.16l-10.94,113.25c-.26,2.7,1.87,5.05,4.59,5.05h14.46c2.41,0,4.41-1.85,4.59-4.25l.92-11.92,14.06-13.9.94,10.3h.03l.64,7.3.73,8.26c.21,2.38,2.2,4.2,4.59,4.2h13.89c2.72,0,4.84-2.34,4.59-5.04ZM826.93,762.38l3.86-51.5c.03-.32.29-.55.6-.55s.58.24.6.55l4.43,51.44.42,4.59-9.91-4.53Z"/>
        <path class="cls-1" d="M364.51,812.87c-9.76,0-17.23-2.95-22.38-8.85-5.16-5.9-7.74-14.42-7.74-25.58v-58.02c0-10.46,2.56-18.39,7.67-23.81,5.11-5.41,12.6-8.12,22.45-8.12s17.34,2.71,22.45,8.12c5.11,5.41,7.67,13.35,7.67,23.81v58.02c0,11.15-2.58,19.68-7.74,25.58-5.16,5.9-12.62,8.85-22.38,8.85ZM364.72,790.38c3.7,0,5.55-3.59,5.55-10.76v-59.62c0-6.01-1.81-9.02-5.41-9.02-4.07,0-6.11,3.08-6.11,9.23v59.55c0,3.79.46,6.51,1.39,8.16.93,1.64,2.45,2.46,4.58,2.46Z"/>
      </g>
      <path class="cls-1" d="M534.84,812.87c-9.76,0-17.23-2.95-22.38-8.85-5.16-5.9-7.74-14.42-7.74-25.58v-58.02c0-10.46,2.56-18.39,7.67-23.81,5.11-5.41,12.6-8.12,22.45-8.12s17.34,2.71,22.45,8.12c5.11,5.41,7.67,13.35,7.67,23.81v58.02c0,11.15-2.58,19.68-7.74,25.58-5.16,5.9-12.62,8.85-22.38,8.85ZM535.05,790.38c3.7,0,5.55-3.59,5.55-10.76v-59.62c0-6.01-1.81-9.02-5.41-9.02-4.07,0-6.11,3.08-6.11,9.23v59.55c0,3.79.46,6.51,1.39,8.16.93,1.64,2.45,2.46,4.58,2.46Z"/>
    </g>
    <path id="Tracé_131-3" data-name="Tracé 131-3" class="cls-1" d="M332.01,953.3v-4.24c-.06-4.05.63-8.08,2.04-11.88,1.34-3.47,3.11-6.76,5.27-9.78,2.15-3.01,4.42-5.96,6.81-8.85,2.32-2.82,4.53-5.72,6.63-8.7,2.11-3,3.84-6.25,5.14-9.68,1.38-3.75,2.05-7.73,1.99-11.73.04-1.83-.27-3.66-.93-5.37-.62-1.5-1.91-2.24-3.86-2.24-2.96,0-4.44,2.64-4.44,7.92v9.03c0,1-.81,1.82-1.82,1.82h-15.11c-.97,0-1.77-.76-1.81-1.72-.01-.29-.03-.59-.05-.9-.05-.98-.08-1.92-.08-2.83,0-6.39.67-11.81,2.02-16.27,1.34-4.46,3.72-7.85,7.14-10.19,3.41-2.34,8.21-3.51,14.4-3.5,7.36,0,13.09,2.07,17.17,6.2,4.09,4.14,6.13,10.04,6.13,17.7,0,5.21-.67,9.78-2.02,13.69-1.28,3.79-3.08,7.39-5.35,10.69-2.22,3.21-4.66,6.41-7.31,9.61-1.88,2.25-3.71,4.56-5.47,6.91-1.78,2.38-3.34,4.91-4.66,7.57h22.39c1,0,1.82.81,1.82,1.82h0v13.11c0,1-.81,1.82-1.81,1.82h-44.23Z"/>
    <path id="Tracé_132-3" data-name="Tracé 132-3" class="cls-1" d="M405.44,954.1c-7.5,0-13.29-2.1-17.37-6.3-4.09-4.2-6.13-10.25-6.13-18.16v-40.04c0-8.34,1.94-14.73,5.82-19.19,3.88-4.46,9.78-6.68,17.68-6.68,7.93,0,13.84,2.23,17.7,6.68,3.87,4.46,5.8,10.85,5.8,19.19v40.04c0,7.9-2.03,13.95-6.1,18.16s-9.87,6.3-17.4,6.3M405.44,937.76c1.34.02,2.58-.69,3.23-1.87.78-1.26,1.18-2.71,1.16-4.18v-43.83c.03-1.85-.2-3.69-.68-5.47-.45-1.56-1.69-2.35-3.71-2.35-2.02,0-3.25.78-3.71,2.35-.48,1.78-.71,3.62-.68,5.47v43.83c-.02,1.48.39,2.93,1.19,4.18.65,1.16,1.87,1.88,3.2,1.87"/>
    <path id="Tracé_133-3" data-name="Tracé 133-3" class="cls-1" d="M434.09,953.3v-4.24c-.06-4.05.63-8.08,2.04-11.88,1.34-3.47,3.11-6.76,5.27-9.78,2.15-3.01,4.42-5.96,6.81-8.85,2.32-2.82,4.53-5.72,6.63-8.7,2.11-3,3.84-6.25,5.14-9.68,1.38-3.75,2.05-7.73,1.99-11.73.04-1.83-.27-3.66-.93-5.37-.62-1.5-1.91-2.24-3.86-2.24-2.96,0-4.44,2.64-4.44,7.92v9.03c0,1-.81,1.82-1.82,1.82h-15.11c-.97,0-1.77-.76-1.81-1.72-.01-.29-.03-.59-.05-.9-.05-.98-.08-1.92-.08-2.82,0-6.39.67-11.81,2.02-16.27,1.34-4.46,3.72-7.85,7.14-10.19,3.41-2.34,8.21-3.51,14.4-3.5,7.36,0,13.09,2.07,17.17,6.2,4.09,4.14,6.13,10.04,6.13,17.7,0,5.21-.67,9.78-2.02,13.69-1.28,3.79-3.08,7.39-5.35,10.69-2.22,3.21-4.66,6.41-7.31,9.61-1.88,2.25-3.71,4.56-5.47,6.91-1.78,2.38-3.34,4.91-4.66,7.57h22.39c1,0,1.82.81,1.82,1.82h0v13.11c0,1-.81,1.82-1.81,1.82h-44.23Z"/>
    <path id="Tracé_134-3" data-name="Tracé 134-3" class="cls-1" d="M508.67,954.1c-6.15,0-10.97-1.05-14.45-3.15s-5.93-5.27-7.36-9.51c-1.43-4.24-2.14-9.52-2.14-15.84v-24.01c-.04-5.44.23-10.88.78-16.29.52-4.71,1.61-8.66,3.25-11.85,1.61-3.15,4.19-5.7,7.36-7.26,3.26-1.65,7.62-2.47,13.06-2.47,3.57-.03,7.12.63,10.44,1.94,3.08,1.19,5.79,3.19,7.82,5.8,1.98,2.57,2.98,5.79,2.98,9.66v7.77c0,1-.81,1.82-1.82,1.82h-13.47c-1,0-1.82-.81-1.82-1.81h0c0-1.48-.08-2.96-.23-4.44-.09-1.3-.48-2.56-1.13-3.68-.6-.97-1.63-1.46-3.08-1.46-1.98,0-3.36.55-4.14,1.64s-1.16,2.66-1.16,4.72v17.8c.87-1.61,2.18-2.93,3.78-3.81,1.89-1.01,4.01-1.5,6.15-1.44,4.91,0,8.68.98,11.32,2.95,2.64,1.97,4.46,4.9,5.47,8.8,1.01,3.9,1.51,8.77,1.51,14.63,0,5.92-.72,11.09-2.17,15.51s-3.86,7.86-7.24,10.31c-3.38,2.45-7.96,3.68-13.74,3.68M508.02,937.77c2.08,0,3.33-.88,3.73-2.65.45-2.23.65-4.51.61-6.78v-7.16c0-4.84-1.36-7.26-4.09-7.26-3.13,0-4.69,2.1-4.69,6.3v10.99c0,4.37,1.48,6.56,4.44,6.56"/>
  </g>
</svg>