<?xml version="1.0" encoding="UTF-8"?>
<svg id="Calque_2" data-name="Calque 2" xmlns="http://www.w3.org/2000/svg" viewBox="0 0 2242.7 1016.12">
  <defs>
    <style>
      .cls-1 {
        fill: #fbfbfb;
      }
    </style>
  </defs>
  <g id="Calque_1-2" data-name="Calque 1">
    <path class="cls-1" d="M969.02,925.24c-141.98,129.43-361.93,118.81-491.15-22.42-52.04-56.87-84.83-129.23-90.84-207.58-3.07.48-7.32,1.46-9.81,1.68-130.32,11.3-254.29-53.26-322.46-160.25-73.17-114.84-72.47-260.06-1.17-372.93C168.32-17.86,415.97-54.79,578.18,86.14c68.73,59.71,111.59,144.36,118.94,234.55,26.27-3.93,50.37-3.55,76.09-.25C788.46,139.58,939.61.72,1119.94,0c180.31-.72,333.67,137.42,349.3,319.74,25.51-2.4,50.89-2.43,76.24.05C1562.21,126.23,1733-15.35,1923.43,1.35c193.1,16.93,335.68,187.7,317.75,380.37-17.88,192.12-190.77,336.19-385.82,314.33-17.97,209.44-215.75,357.18-422.86,311.87-147.55-32.28-259.82-157.91-273.02-311.2-25.99,1.96-51.38,1.7-77.04.16-7.57,89.1-48.45,169.13-113.42,228.36ZM644.84,329.87c-11.17-166.85-157.66-290.83-322.38-275.77C157.31,69.21,36.19,216.86,54.53,382.08c18.18,163.8,167.89,282.06,332.14,261.22,9.78-149.08,114.63-275.22,258.18-313.43ZM1855.72,642.87c166.99,21.64,316.14-100.28,332.53-264.16,16.46-164.66-105.84-311.17-270.93-324.74-163.25-13.42-308.36,110.06-319.45,275.77,143.29,38.78,247.3,163.68,257.85,313.12ZM1082.63,643.11c27.68,2.83,51.22,3.04,76.47-.27,10.23-148.58,114.14-274.15,257.78-313.16-10.1-147.83-127.64-265.16-274.01-275.86-163.52-11.96-306.13,112.02-317.2,276.03,143.28,39.37,248.1,165.87,256.96,313.26ZM1030.28,686.24c-145.99-39.77-247.1-166.49-257.48-313.15-25.31-3.32-48.97-2.37-75.44-1.19-8.86,148.34-114.63,276.5-258.44,314.54,10.99,157.54,141.59,277.47,297.14,276.9,154.83-.57,284.64-121.78,294.22-277.08ZM1802.63,686.26c-146.11-39.78-247.07-166.13-257.67-313.03-25.25-3.15-49.86-3.23-75.25.08-10.5,148.68-113.86,274.16-257.83,313.08,10.02,156.1,140.82,276.93,295.79,276.86,154.85-.07,285.92-121.83,294.95-276.98ZM643.19,385.38c-110.53,35.41-188.51,132.35-202.83,245.74,107.37-34.94,188.49-128.96,202.83-245.74ZM1028.65,630.47c-13.51-113.58-92.99-209.53-201.28-244.8,14.11,112.94,91.72,208.2,201.28,244.8ZM1414.66,390.82c-.81-2.29-1.65-4.08-2.17-4.5-106.95,36.7-185.17,130.8-198.93,244.24,108.08-35.76,184.81-128.63,201.1-239.74ZM1801.24,630.68c-13.62-113.56-93.04-209.7-201.81-245.08,14.42,114.5,93.2,209.12,201.81,245.08Z"/>
  </g>
</svg>