<?xml version="1.0" encoding="UTF-8"?>
<svg id="Calque_2" data-name="Calque 2" xmlns="http://www.w3.org/2000/svg" viewBox="0 0 1334.5 373.92">
  <defs>
    <style>
      .cls-1 {
        fill: #121212;
      }
    </style>
  </defs>
  <g id="Calque_1-2" data-name="Calque 1">
    <g>
      <path class="cls-1" d="M208.43,106.28l-25.29,13.54c-3.64,1.95-8.12,1.27-11.02-1.66L107.8,53.21c-2.51-2.53-3.47-6.21-2.53-9.65l7.63-27.79c1.88-6.83,10.38-9.15,15.47-4.22l43.7,42.34c2.91,2.82,7.3,3.43,10.87,1.53l17.04-9.08c6.21-3.31,13.7,1.19,13.7,8.22v42.93c0,3.67-2.02,7.05-5.26,8.78Z"/>
      <circle class="cls-1" cx="176.95" cy="18.32" r="18.32"/>
      <path class="cls-1" d="M165.5,267.64l25.29-13.54c3.64-1.95,8.12-1.27,11.02,1.66l64.32,64.95c2.51,2.53,3.47,6.21,2.53,9.65l-7.63,27.79c-1.88,6.83-10.38,9.15-15.47,4.22l-43.7-42.34c-2.91-2.82-7.3-3.43-10.87-1.53l-17.04,9.08c-6.21,3.31-13.7-1.19-13.7-8.22v-42.93c0-3.67,2.02-7.05,5.26-8.78Z"/>
      <circle class="cls-1" cx="196.97" cy="355.6" r="18.32"/>
      <path class="cls-1" d="M267.64,208.43l-13.54-25.29c-1.95-3.64-1.27-8.12,1.66-11.02l64.95-64.32c2.53-2.51,6.21-3.47,9.65-2.53l27.79,7.63c6.83,1.88,9.15,10.38,4.22,15.47l-42.34,43.7c-2.82,2.91-3.43,7.3-1.53,10.87l9.08,17.04c3.31,6.21-1.19,13.7-8.22,13.7h-42.93c-3.67,0-7.05-2.02-8.78-5.26Z"/>
      <circle class="cls-1" cx="355.6" cy="176.95" r="18.32"/>
      <path class="cls-1" d="M106.28,165.5l13.54,25.29c1.95,3.64,1.27,8.12-1.66,11.02l-64.95,64.32c-2.53,2.51-6.21,3.47-9.65,2.53l-27.79-7.63c-6.83-1.88-9.15-10.38-4.22-15.47l42.34-43.7c2.82-2.91,3.43-7.3,1.53-10.87l-9.08-17.04c-3.31-6.21,1.19-13.7,8.22-13.7h42.93c3.67,0,7.05,2.02,8.78,5.26Z"/>
      <circle class="cls-1" cx="18.32" cy="196.97" r="18.32"/>
      <path class="cls-1" d="M228.83,259.19l8.31-27.45c1.19-3.95,4.84-6.64,8.96-6.62l91.41.44c3.56.02,6.85,1.94,8.61,5.03l14.25,25.05c3.5,6.16-.87,13.81-7.95,13.93l-60.84.96c-4.05.06-7.59,2.73-8.77,6.6l-5.63,18.48c-2.05,6.73-10.53,8.85-15.5,3.87l-30.36-30.36c-2.6-2.6-3.55-6.41-2.49-9.93Z"/>
      <circle class="cls-1" cx="313.29" cy="299.13" r="18.32"/>
      <path class="cls-1" d="M145.09,114.73l-8.31,27.45c-1.19,3.95-4.84,6.64-8.96,6.62l-91.41-.44c-3.56-.02-6.85-1.94-8.61-5.03l-14.25-25.05c-3.5-6.16.87-13.81,7.95-13.93l60.84-.96c4.05-.06,7.59-2.73,8.77-6.6l5.63-18.48c2.05-6.73,10.53-8.85,15.5-3.87l30.36,30.36c2.6,2.6,3.55,6.41,2.49,9.93Z"/>
      <circle class="cls-1" cx="60.64" cy="74.8" r="18.32"/>
      <path class="cls-1" d="M259.19,145.09l-27.45-8.31c-3.95-1.19-6.64-4.84-6.62-8.96l.44-91.41c.02-3.56,1.94-6.85,5.03-8.61l25.05-14.25c6.16-3.5,13.81.87,13.93,7.95l.96,60.84c.06,4.05,2.73,7.59,6.6,8.77l18.48,5.63c6.73,2.05,8.85,10.53,3.87,15.5l-30.36,30.36c-2.6,2.6-6.41,3.55-9.93,2.49Z"/>
      <circle class="cls-1" cx="299.13" cy="60.64" r="18.32"/>
      <path class="cls-1" d="M114.73,228.83l27.45,8.31c3.95,1.19,6.64,4.84,6.62,8.96l-.44,91.41c-.02,3.56-1.94,6.85-5.03,8.61l-25.05,14.25c-6.16,3.5-13.81-.87-13.93-7.95l-.96-60.84c-.06-4.05-2.73-7.59-6.6-8.77l-18.48-5.63c-6.73-2.05-8.85-10.53-3.87-15.5l30.36-30.36c2.6-2.6,6.41-3.55,9.93-2.49Z"/>
      <circle class="cls-1" cx="74.8" cy="313.29" r="18.32"/>
    </g>
    <g>
      <g>
        <g>
          <path class="cls-1" d="M470.88,171.51V58.27c0-2.54,2.06-4.61,4.61-4.61h28.67c2.3,0,4.25,1.7,4.56,3.98l9.75,70.68,9.68-70.68c.31-2.28,2.26-3.98,4.56-3.98h29.02c2.54,0,4.61,2.06,4.61,4.61v113.25c0,2.54-2.06,4.61-4.61,4.61h-13.19c-2.54,0-4.61-2.06-4.61-4.61v-83.62l-13.44,84.34c-.36,2.24-2.28,3.88-4.55,3.88h-14.16c-2.25,0-4.17-1.62-4.54-3.84l-14.24-84.39v83.62c0,2.54-2.06,4.61-4.61,4.61h-12.91c-2.54,0-4.61-2.06-4.61-4.61Z"/>
          <path class="cls-1" d="M576.08,171.51v-81.52c0-2.54,2.06-4.61,4.61-4.61h14.45c2.54,0,4.61,2.06,4.61,4.61v81.52c0,2.54-2.06,4.61-4.61,4.61h-14.45c-2.54,0-4.61-2.06-4.61-4.61Z"/>
          <path class="cls-1" d="M609.47,171.51V58.27c0-2.54,2.06-4.61,4.61-4.61h15.28c2.54,0,4.61,2.06,4.61,4.61v96.98h25.19v16.27c0,2.54-2.06,4.61-4.61,4.61h-40.47c-2.54,0-4.61-2.06-4.61-4.61Z"/>
          <path class="cls-1" d="M735.27,171.51V58.27c0-2.54,2.06-4.61,4.61-4.61h16.78c2.21,0,4.11,1.57,4.52,3.74l10.55,54.92v-54.05c0-2.54,2.06-4.61,4.61-4.61h14.44c2.54,0,4.61,2.06,4.61,4.61v113.25c0,2.54-2.06,4.61-4.61,4.61h-15.55c-2.2,0-4.09-1.55-4.52-3.7l-11.5-57.53v56.62c0,2.54-2.06,4.61-4.61,4.61h-14.72c-2.54,0-4.61-2.06-4.61-4.61Z"/>
          <path class="cls-1" d="M937.46,177.23c-8.86,0-15.99-2.76-21.4-8.28-5.4-5.52-8.11-13.24-8.11-23.17v-56.5c0-11.87,2.35-20.97,7.06-27.27,4.71-6.31,12.37-9.46,23-9.46,5.8,0,10.96,1.07,15.48,3.2,4.52,2.13,8.08,5.32,10.68,9.57,2.6,4.24,3.9,9.59,3.9,16.04v16.55c0,2.54-2.06,4.61-4.61,4.61h-15.14c-2.54,0-4.61-2.06-4.61-4.61v-13.48c0-3.66-.46-6.13-1.39-7.41-.93-1.28-2.37-1.91-4.31-1.91-2.27,0-3.8.82-4.59,2.47-.79,1.65-1.18,3.84-1.18,6.57v61.3c0,3.39.5,5.77,1.5,7.17,1,1.39,2.42,2.09,4.28,2.09,2.09,0,3.56-.86,4.42-2.57.86-1.72,1.29-3.94,1.29-6.68v-17.45c0-2.54,2.06-4.61,4.61-4.61h15.42c2.54,0,4.61,2.06,4.61,4.61v18.56c0,10.76-2.71,18.57-8.14,23.41-5.43,4.85-13.01,7.27-22.75,7.27Z"/>
          <path class="cls-1" d="M1045.8,171.51V58.27c0-2.54,2.06-4.61,4.61-4.61h32.97c6.26,0,10.99,1.43,14.19,4.28,3.2,2.85,5.35,6.84,6.44,11.97,1.09,5.13,1.64,11.14,1.64,18.06s-.85,12.01-2.54,16c-1.69,3.99-4.88,6.75-9.57,8.28,3.85.79,6.55,2.7,8.11,5.74,1.55,3.04,2.33,6.97,2.33,11.79v41.73c0,2.54-2.06,4.61-4.61,4.61h-14.93c-2.54,0-4.61-2.06-4.61-4.61v-43.33c0-3.57-.73-5.79-2.19-6.64-1.46-.86-3.82-1.29-7.06-1.29v51.27c0,2.54-2.06,4.61-4.61,4.61h-15.56c-2.54,0-4.61-2.06-4.61-4.61ZM1070.7,99.02h5.91c3.39,0,5.08-3.69,5.08-11.06,0-4.78-.37-7.91-1.11-9.39-.74-1.48-2.13-2.23-4.17-2.23h-5.71v22.68Z"/>
          <path class="cls-1" d="M1124.21,171.51v-94.33h-9.94c-2.54,0-4.61-2.06-4.61-4.61v-14.31c0-2.54,2.06-4.61,4.61-4.61h44.36c2.54,0,4.61,2.06,4.61,4.61v14.31c0,2.54-2.06,4.61-4.61,4.61h-9.94v94.33c0,2.54-2.06,4.61-4.61,4.61h-15.28c-2.54,0-4.61-2.06-4.61-4.61Z"/>
          <path class="cls-1" d="M1168.95,171.51v-81.52c0-2.54,2.06-4.61,4.61-4.61h14.45c2.54,0,4.61,2.06,4.61,4.61v81.52c0,2.54-2.06,4.61-4.61,4.61h-14.45c-2.54,0-4.61-2.06-4.61-4.61ZM587.9,53.66c-6.53,0-11.83,5.3-11.83,11.83s5.3,11.83,11.83,11.83,11.83-5.3,11.83-11.83-5.3-11.83-11.83-11.83ZM1180.78,53.66c-6.53,0-11.83,5.3-11.83,11.83s5.3,11.83,11.83,11.83,11.83-5.3,11.83-11.83-5.3-11.83-11.83-11.83Z"/>
          <path class="cls-1" d="M1202.35,171.51V58.27c0-2.54,2.06-4.61,4.61-4.61h16.78c2.21,0,4.11,1.57,4.52,3.74l10.55,54.92v-54.05c0-2.54,2.06-4.61,4.61-4.61h14.44c2.54,0,4.61,2.06,4.61,4.61v113.25c0,2.54-2.06,4.61-4.61,4.61h-15.55c-2.2,0-4.09-1.55-4.52-3.7l-11.5-57.53v56.62c0,2.54-2.06,4.61-4.61,4.61h-14.72c-2.54,0-4.61-2.06-4.61-4.61Z"/>
        </g>
        <path class="cls-1" d="M727.28,171.07l-10.75-113.25c-.22-2.36-2.21-4.17-4.59-4.17h-33.17c-1.93,0-3.59,1.19-4.28,2.9-.05.13-.1.26-.14.4-.02.07-.04.14-.06.21-.05.21-.09.43-.11.65l-10.94,113.25c-.26,2.7,1.87,5.05,4.58,5.05h14.46c2.41,0,4.41-1.85,4.59-4.25l.92-11.92,14.06-13.9.94,10.3h.03l.64,7.3.73,8.26c.21,2.38,2.2,4.2,4.59,4.2h13.89c2.72,0,4.84-2.34,4.59-5.04ZM690.6,126.59l3.89-52.06h1.11l.05.55,4.43,51.44.42,4.59-9.91-4.53Z"/>
        <path class="cls-1" d="M674.19,57.82c.02-.22.06-.44.11-.65-.05.21-.09.43-.11.65l-10.94,113.25,10.93-113.25Z"/>
        <path class="cls-1" d="M694.5,74.53h.56c-.31,0-.58.24-.6.55l-3.86,51.5,3.89-52.06Z"/>
        <path class="cls-1" d="M695.66,75.09c-.03-.31-.29-.55-.6-.55h.56l.05.55Z"/>
        <path class="cls-1" d="M1334.48,171.07l-10.75-113.25c-.22-2.36-2.21-4.17-4.59-4.17h-33.17c-2.37,0-4.35,1.8-4.59,4.16l-10.94,113.25c-.26,2.7,1.87,5.05,4.59,5.05h14.46c2.41,0,4.41-1.85,4.59-4.25l.92-11.92,14.06-13.9.94,10.3h.03l.64,7.3.73,8.26c.21,2.38,2.2,4.2,4.59,4.2h13.89c2.72,0,4.84-2.34,4.59-5.04ZM1297.8,126.59l3.86-51.5c.03-.32.29-.55.6-.55s.58.24.6.55l4.43,51.44.42,4.59-9.91-4.53Z"/>
        <path class="cls-1" d="M835.39,177.08c-9.76,0-17.23-2.95-22.38-8.85-5.16-5.9-7.74-14.42-7.74-25.58v-58.02c0-10.46,2.56-18.39,7.67-23.81,5.11-5.41,12.6-8.12,22.45-8.12s17.34,2.71,22.45,8.12c5.11,5.41,7.67,13.35,7.67,23.81v58.02c0,11.15-2.58,19.68-7.74,25.58-5.16,5.9-12.62,8.85-22.38,8.85ZM835.6,154.59c3.7,0,5.55-3.59,5.55-10.76v-59.62c0-6.01-1.81-9.02-5.41-9.02-4.07,0-6.11,3.08-6.11,9.23v59.55c0,3.79.46,6.51,1.39,8.16.93,1.64,2.45,2.46,4.58,2.46Z"/>
      </g>
      <path class="cls-1" d="M1005.72,177.08c-9.76,0-17.23-2.95-22.38-8.85-5.16-5.9-7.74-14.42-7.74-25.58v-58.02c0-10.46,2.56-18.39,7.67-23.81,5.11-5.41,12.6-8.12,22.45-8.12s17.34,2.71,22.45,8.12c5.11,5.41,7.67,13.35,7.67,23.81v58.02c0,11.15-2.58,19.68-7.74,25.58-5.16,5.9-12.62,8.85-22.38,8.85ZM1005.93,154.59c3.7,0,5.55-3.59,5.55-10.76v-59.62c0-6.01-1.81-9.02-5.41-9.02-4.07,0-6.11,3.08-6.11,9.23v59.55c0,3.79.46,6.51,1.39,8.16.93,1.64,2.45,2.46,4.58,2.46Z"/>
    </g>
    <g>
      <path id="Tracé_131-3" data-name="Tracé 131-3" class="cls-1" d="M470.82,315.39v-4.24c-.06-4.05.63-8.08,2.04-11.88,1.34-3.47,3.11-6.76,5.27-9.78,2.15-3.01,4.42-5.96,6.81-8.85,2.32-2.82,4.53-5.72,6.63-8.7,2.11-3,3.84-6.25,5.14-9.68,1.38-3.75,2.05-7.73,1.99-11.73.04-1.83-.27-3.66-.93-5.37-.62-1.5-1.91-2.24-3.86-2.24-2.96,0-4.44,2.64-4.44,7.92v9.03c0,1-.81,1.82-1.82,1.82h-15.11c-.97,0-1.77-.76-1.81-1.72-.01-.29-.03-.59-.05-.9-.05-.98-.08-1.92-.08-2.83,0-6.39.67-11.81,2.02-16.27,1.34-4.46,3.72-7.85,7.14-10.19,3.41-2.34,8.21-3.51,14.4-3.5,7.36,0,13.09,2.07,17.17,6.2,4.09,4.14,6.13,10.04,6.13,17.7,0,5.21-.67,9.78-2.02,13.69-1.28,3.79-3.08,7.39-5.35,10.69-2.22,3.21-4.66,6.41-7.31,9.61-1.88,2.25-3.71,4.56-5.47,6.91-1.78,2.38-3.34,4.91-4.66,7.57h22.39c1,0,1.82.81,1.82,1.82h0v13.11c0,1-.81,1.82-1.81,1.82h-44.23Z"/>
      <path id="Tracé_132-3" data-name="Tracé 132-3" class="cls-1" d="M544.25,316.2c-7.5,0-13.29-2.1-17.37-6.3-4.09-4.2-6.13-10.25-6.13-18.16v-40.04c0-8.34,1.94-14.73,5.82-19.19,3.88-4.46,9.78-6.68,17.68-6.68,7.93,0,13.84,2.23,17.7,6.68,3.87,4.46,5.8,10.85,5.8,19.19v40.04c0,7.9-2.03,13.95-6.1,18.16-4.07,4.2-9.87,6.3-17.4,6.3M544.25,299.86c1.34.02,2.58-.69,3.23-1.87.78-1.26,1.18-2.71,1.16-4.18v-43.83c.03-1.85-.2-3.69-.68-5.47-.45-1.56-1.69-2.35-3.71-2.35-2.02,0-3.25.78-3.71,2.35-.48,1.78-.71,3.62-.68,5.47v43.83c-.02,1.48.39,2.93,1.19,4.18.65,1.16,1.87,1.88,3.2,1.87"/>
      <path id="Tracé_133-3" data-name="Tracé 133-3" class="cls-1" d="M572.9,315.39v-4.24c-.06-4.05.63-8.08,2.04-11.88,1.34-3.47,3.11-6.76,5.27-9.78,2.15-3.01,4.42-5.96,6.81-8.85,2.32-2.82,4.53-5.72,6.63-8.7,2.11-3,3.84-6.25,5.14-9.68,1.38-3.75,2.05-7.73,1.99-11.73.04-1.83-.27-3.66-.93-5.37-.62-1.5-1.91-2.24-3.86-2.24-2.96,0-4.44,2.64-4.44,7.92v9.03c0,1-.81,1.82-1.82,1.82h-15.11c-.97,0-1.77-.76-1.81-1.72-.01-.29-.03-.59-.05-.9-.05-.98-.08-1.92-.08-2.82,0-6.39.67-11.81,2.02-16.27,1.34-4.46,3.72-7.85,7.14-10.19,3.41-2.34,8.21-3.51,14.4-3.5,7.36,0,13.09,2.07,17.17,6.2,4.09,4.14,6.13,10.04,6.13,17.7,0,5.21-.67,9.78-2.02,13.69-1.28,3.79-3.08,7.39-5.35,10.69-2.22,3.21-4.66,6.41-7.31,9.61-1.88,2.25-3.71,4.56-5.47,6.91-1.78,2.38-3.34,4.91-4.66,7.57h22.39c1,0,1.82.81,1.82,1.82h0v13.11c0,1-.81,1.82-1.81,1.82h-44.23Z"/>
      <path id="Tracé_134-3" data-name="Tracé 134-3" class="cls-1" d="M647.49,316.2c-6.15,0-10.97-1.05-14.45-3.15-3.48-2.1-5.93-5.27-7.36-9.51-1.43-4.24-2.14-9.52-2.14-15.84v-24.01c-.04-5.44.23-10.88.78-16.29.52-4.71,1.61-8.66,3.25-11.85,1.61-3.15,4.19-5.7,7.36-7.26,3.26-1.65,7.62-2.47,13.06-2.47,3.57-.03,7.12.63,10.44,1.94,3.08,1.19,5.79,3.19,7.82,5.8,1.98,2.57,2.98,5.79,2.98,9.66v7.77c0,1-.81,1.82-1.82,1.82h-13.47c-1,0-1.82-.81-1.82-1.81h0c0-1.48-.08-2.96-.23-4.44-.09-1.3-.48-2.56-1.13-3.68-.6-.97-1.63-1.46-3.08-1.46-1.98,0-3.36.55-4.14,1.64-.77,1.09-1.16,2.66-1.16,4.72v17.8c.87-1.61,2.18-2.93,3.78-3.81,1.89-1.01,4.01-1.5,6.15-1.44,4.91,0,8.68.98,11.32,2.95,2.64,1.97,4.46,4.9,5.47,8.8,1.01,3.9,1.51,8.77,1.51,14.63,0,5.92-.72,11.09-2.17,15.51-1.45,4.42-3.86,7.86-7.24,10.31-3.38,2.45-7.96,3.68-13.74,3.68M646.84,299.86c2.08,0,3.33-.88,3.73-2.65.45-2.23.65-4.51.61-6.78v-7.16c0-4.84-1.36-7.26-4.09-7.26-3.13,0-4.69,2.1-4.69,6.3v10.99c0,4.37,1.48,6.56,4.44,6.56"/>
    </g>
  </g>
</svg>