<svg preserveAspectRatio="none" width="100%" height="100%" overflow="visible" style="display: block;" viewBox="0 0 26 26" fill="none" xmlns="http://www.w3.org/2000/svg">
<g id="fluent:people-community-16-filled">
<path id="Vector" d="M8.9376 5.6875C8.9376 4.61006 9.36561 3.57675 10.1275 2.81488C10.8893 2.05301 11.9227 1.625 13.0001 1.625C14.0775 1.625 15.1109 2.05301 15.8727 2.81488C16.6346 3.57675 17.0626 4.61006 17.0626 5.6875C17.0626 6.76494 16.6346 7.79825 15.8727 8.56012C15.1109 9.32199 14.0775 9.75 13.0001 9.75C11.9227 9.75 10.8893 9.32199 10.1275 8.56012C9.36561 7.79825 8.9376 6.76494 8.9376 5.6875ZM10.5626 11.375C9.91613 11.375 9.29614 11.6318 8.83902 12.0889C8.3819 12.546 8.1251 13.166 8.1251 13.8125V17.875C8.1251 19.1679 8.63871 20.4079 9.55295 21.3221C10.4672 22.2364 11.7072 22.75 13.0001 22.75C14.293 22.75 15.533 22.2364 16.4472 21.3221C17.3615 20.4079 17.8751 19.1679 17.8751 17.875V13.8125C17.8751 13.166 17.6183 12.546 17.1612 12.0889C16.7041 11.6318 16.0841 11.375 15.4376 11.375H10.5626ZM6.5911 12.9512C6.53016 13.2343 6.49966 13.523 6.5001 13.8125V17.875C6.49993 18.7447 6.67431 19.6056 7.01289 20.4067C7.35147 21.2078 7.84737 21.9328 8.47122 22.5387L8.30872 22.5842C7.0602 22.9183 5.73012 22.7429 4.61088 22.0966C3.49165 21.4503 2.67487 20.386 2.3401 19.1376L1.70797 16.7814C1.62516 16.4722 1.60407 16.1497 1.6459 15.8323C1.68773 15.5149 1.79166 15.2089 1.95177 14.9317C2.11187 14.6545 2.325 14.4116 2.579 14.2167C2.83299 14.0219 3.12288 13.879 3.4321 13.7962L6.5911 12.9512ZM17.5273 22.5387C18.1515 21.9329 18.6477 21.208 18.9866 20.4069C19.3254 19.6058 19.5 18.7448 19.5001 17.875V13.8125C19.499 13.5157 19.4687 13.2286 19.4091 12.9512L22.5665 13.7962C22.8759 13.879 23.1659 14.022 23.42 14.2169C23.6742 14.4118 23.8874 14.6549 24.0475 14.9323C24.2076 15.2097 24.3115 15.5159 24.3532 15.8335C24.3949 16.151 24.3736 16.4737 24.2906 16.783L23.6601 19.1376C23.4908 19.7696 23.196 20.361 22.7932 20.8766C22.3905 21.3922 21.8882 21.8215 21.316 22.1388C20.7439 22.4562 20.1138 22.6552 19.4632 22.7239C18.8125 22.7926 18.1531 22.7296 17.5273 22.5387ZM1.6251 8.125C1.6251 7.26305 1.96751 6.4364 2.577 5.8269C3.18649 5.21741 4.01314 4.875 4.8751 4.875C5.73705 4.875 6.5637 5.21741 7.17319 5.8269C7.78269 6.4364 8.1251 7.26305 8.1251 8.125C8.1251 8.98695 7.78269 9.8136 7.17319 10.4231C6.5637 11.0326 5.73705 11.375 4.8751 11.375C4.01314 11.375 3.18649 11.0326 2.577 10.4231C1.96751 9.8136 1.6251 8.98695 1.6251 8.125ZM17.8751 8.125C17.8751 7.26305 18.2175 6.4364 18.827 5.8269C19.4365 5.21741 20.2631 4.875 21.1251 4.875C21.9871 4.875 22.8137 5.21741 23.4232 5.8269C24.0327 6.4364 24.3751 7.26305 24.3751 8.125C24.3751 8.98695 24.0327 9.8136 23.4232 10.4231C22.8137 11.0326 21.9871 11.375 21.1251 11.375C20.2631 11.375 19.4365 11.0326 18.827 10.4231C18.2175 9.8136 17.8751 8.98695 17.8751 8.125Z" fill="var(--fill-0, #FBFBFB)"/>
</g>
</svg>
