<svg preserveAspectRatio="none" width="100%" height="100%" overflow="visible" style="display: block;" viewBox="0 0 26 26" fill="none" xmlns="http://www.w3.org/2000/svg">
<g id="fluent:people-community-16-filled">
<path id="Vector" d="M14 9.99992V4.99992H12V11.9999H18V9.99992H14ZM19.364 16.3639L13 22.7279L6.636 16.3639C5.37734 15.1052 4.52019 13.5016 4.17293 11.7558C3.82567 10.0099 4.00391 8.20035 4.6851 6.55582C5.36629 4.91129 6.51984 3.50569 7.99988 2.51677C9.47992 1.52784 11.22 1 13 1C14.78 1 16.5201 1.52784 18.0001 2.51677C19.4802 3.50569 20.6337 4.91129 21.3149 6.55582C21.9961 8.20035 22.1743 10.0099 21.8271 11.7558C21.4798 13.5016 20.6227 15.1052 19.364 16.3639Z" fill="var(--fill-0, #1874FF)"/>
</g>
</svg>
