<svg preserveAspectRatio="none" width="100%" height="100%" overflow="visible" style="display: block;" viewBox="0 0 24.75 15.75" fill="none" xmlns="http://www.w3.org/2000/svg">
<path id="Vector" d="M16.875 6.75C18.7425 6.75 20.2387 5.2425 20.2387 3.375C20.2387 1.5075 18.7425 0 16.875 0C15.0075 0 13.5 1.5075 13.5 3.375C13.5 5.2425 15.0075 6.75 16.875 6.75ZM7.875 6.75C9.7425 6.75 11.2387 5.2425 11.2387 3.375C11.2387 1.5075 9.7425 0 7.875 0C6.0075 0 4.5 1.5075 4.5 3.375C4.5 5.2425 6.0075 6.75 7.875 6.75ZM7.875 9C5.25375 9 0 10.3163 0 12.9375V15.75H15.75V12.9375C15.75 10.3163 10.4962 9 7.875 9ZM16.875 9C16.5488 9 16.1775 9.0225 15.7837 9.05625C17.0887 10.0013 18 11.2725 18 12.9375V15.75H24.75V12.9375C24.75 10.3163 19.4962 9 16.875 9Z" fill="var(--fill-0, #FBFBFB)"/>
</svg>
