<svg preserveAspectRatio="none" width="100%" height="100%" overflow="visible" style="display: block;" viewBox="0 0 98 91" fill="none" xmlns="http://www.w3.org/2000/svg">
<path id="Vector" d="M49 0C39.3087 0 29.8351 2.66853 21.7771 7.66813C13.7191 12.6677 7.43862 19.7739 3.72992 28.0879C0.0212309 36.4019 -0.949132 45.5505 0.941543 54.3766C2.83222 63.2027 7.49902 71.31 14.3518 77.6733C21.2046 84.0366 29.9355 88.3701 39.4406 90.1257C48.9457 91.8813 58.7979 90.9803 67.7515 87.5365C76.7051 84.0927 84.3578 78.2609 89.742 70.7784C95.1262 63.296 98 54.499 98 45.5C98 39.5248 96.7326 33.6082 94.2701 28.0879C91.8076 22.5676 88.1983 17.5517 83.6482 13.3266C79.0982 9.10157 73.6965 5.75007 67.7515 3.46348C61.8065 1.17689 55.4348 0 49 0ZM39.2 65.975V25.025L68.6 45.5L39.2 65.975Z" fill="var(--fill-0, #41348A)"/>
</svg>
