<svg preserveAspectRatio="none" width="100%" height="100%" overflow="visible" style="display: block;" viewBox="0 0 132 132" fill="none" xmlns="http://www.w3.org/2000/svg">
<path id="Vector" d="M66 0C52.9465 0 40.186 3.87083 29.3324 11.123C18.4787 18.3752 10.0194 28.683 5.02398 40.7429C0.0285967 52.8028 -1.27842 66.0732 1.2682 78.8759C3.81483 91.6787 10.1007 103.439 19.331 112.669C28.5612 121.899 40.3213 128.185 53.1241 130.732C65.9268 133.278 79.1972 131.971 91.2571 126.976C103.317 121.981 113.625 113.521 120.877 102.668C128.129 91.814 132 79.0535 132 66C132 57.3327 130.293 48.7504 126.976 40.7429C123.659 32.7354 118.798 25.4596 112.669 19.3309C106.54 13.2023 99.2646 8.34076 91.2571 5.02395C83.2496 1.70714 74.6673 0 66 0ZM52.8 95.7V36.3L92.4 66L52.8 95.7Z" fill="var(--fill-0, #41348A)"/>
</svg>
