<svg preserveAspectRatio="none" width="100%" height="100%" overflow="visible" style="display: block;" viewBox="0 0 47 47" fill="none" xmlns="http://www.w3.org/2000/svg">
<g id="Vector">
<path d="M23.5 0C18.8521 0 14.3087 1.37825 10.4441 3.96046C6.57955 6.54268 3.5675 10.2129 1.78884 14.5069C0.0101821 18.801 -0.455196 23.5261 0.451556 28.0846C1.35831 32.6432 3.59647 36.8305 6.883 40.117C10.1695 43.4035 14.3568 45.6417 18.9154 46.5484C23.4739 47.4552 28.199 46.9898 32.4931 45.2112C36.7871 43.4325 40.4573 40.4204 43.0395 36.5559C45.6217 32.6913 47 28.1479 47 23.5C47 20.4139 46.3922 17.3581 45.2112 14.5069C44.0302 11.6558 42.2992 9.06517 40.117 6.88299C37.9348 4.70081 35.3442 2.96982 32.4931 1.78883C29.6419 0.607845 26.5861 0 23.5 0ZM18.8 34.075V12.925L32.9 23.5L18.8 34.075Z" fill="#41348A"/>
<path d="M33 23.5L18.5 12.5V34.5L33 23.5Z" fill="var(--fill-0, #FBFBFB)"/>
</g>
</svg>
