<svg preserveAspectRatio="none" width="100%" height="100%" overflow="visible" style="display: block;" viewBox="0 0 24 24" fill="none" xmlns="http://www.w3.org/2000/svg">
<g id="icons8-apple-logo 1" clip-path="url(#clip0_0_4)">
<g id="Vector">
<path d="M17.4862 1.55096e-08C16.125 0.0918749 14.6681 0.901875 13.7662 1.995C12.9769 2.95687 12.315 4.36875 12.5662 5.835C12.3412 5.76563 12.1369 5.75813 11.8912 5.67C11.2219 5.43188 10.4569 5.175 9.50625 5.175C7.61812 5.175 5.685 6.29813 4.46625 8.175C2.6925 10.9013 3.04875 15.6994 5.74125 19.8C6.21562 20.52 6.76875 21.3056 7.45125 21.93C8.13375 22.5544 8.95875 23.0306 9.92625 23.04C10.7531 23.0494 11.3287 22.7738 11.8462 22.545C12.3637 22.3163 12.8456 22.1138 13.7512 22.11C13.7569 22.11 13.7606 22.11 13.7662 22.11C14.6681 22.1025 15.135 22.3013 15.6412 22.53C16.1475 22.7588 16.7175 23.0475 17.5462 23.04C18.5325 23.0325 19.3706 22.4925 20.0662 21.825C20.7619 21.1575 21.3337 20.3381 21.8062 19.62C22.4831 18.5888 22.755 18.0263 23.2762 16.875C23.3306 16.755 23.3325 16.6163 23.28 16.4944C23.2294 16.3725 23.13 16.2769 23.0062 16.23C21.3 15.585 20.3269 14.0756 20.1862 12.48C20.0456 10.8844 20.7206 9.24187 22.4212 8.31C22.5469 8.2425 22.635 8.12437 22.665 7.98563C22.6931 7.84687 22.6594 7.70063 22.5712 7.59C21.3506 6.07313 19.6331 5.175 17.9512 5.175C16.8787 5.175 16.0912 5.42813 15.4462 5.67C15.3394 5.71125 15.2606 5.7075 15.1612 5.745C15.8156 5.4 16.3931 4.92188 16.8262 4.365C17.6137 3.35438 18.2212 1.91625 17.9962 0.405C17.9587 0.1575 17.7356 -0.01875 17.4862 1.55096e-08ZM16.9762 1.14C16.9444 2.10937 16.6125 3.05813 16.0612 3.765C15.4837 4.5075 14.5125 5.02125 13.5712 5.175C13.5881 4.24313 13.9556 3.2775 14.5162 2.595C15.105 1.8825 16.08 1.36875 16.9762 1.14ZM9.50625 6.135C9.92625 6.135 10.9012 6.33563 11.5612 6.57C12.2212 6.80438 12.9169 7.08 13.7362 7.08C14.5369 7.08 15.1706 6.8025 15.7912 6.57C16.4119 6.3375 17.0306 6.135 17.9512 6.135C19.1531 6.135 20.4525 6.75937 21.4762 7.845C19.8375 9.00187 19.0706 10.8056 19.2262 12.555C19.3819 14.3231 20.4469 16.0013 22.1962 16.875C22.1937 16.8805 22.1912 16.8859 22.1887 16.8913C21.8142 17.7072 21.5644 18.2512 21.0112 19.095C20.5519 19.7944 20.0062 20.5594 19.4062 21.135C18.8062 21.7106 18.1706 22.0744 17.5312 22.08C16.9144 22.0856 16.5637 21.9019 16.0312 21.66C15.4987 21.4181 14.8106 21.1406 13.7512 21.15C12.6937 21.1556 11.9962 21.4219 11.4562 21.66C10.9162 21.8981 10.5619 22.0856 9.94125 22.08C9.285 22.0744 8.67562 21.7556 8.09625 21.225C7.51687 20.6944 6.99375 19.9706 6.53625 19.275C4.01625 15.435 3.81375 10.9238 5.26125 8.7C6.3225 7.06687 9.08625 6.135 9.50625 6.135Z" fill="var(--fill-0, #121212)"/>
<path d="M9.50625 6.135C9.92625 6.135 10.9012 6.33563 11.5612 6.57C12.2212 6.80438 12.9169 7.08 13.7362 7.08C14.5369 7.08 15.1706 6.8025 15.7912 6.57C16.4119 6.3375 17.0306 6.135 17.9512 6.135C19.1531 6.135 20.4525 6.75937 21.4762 7.845C19.8375 9.00187 19.0706 10.8056 19.2262 12.555C19.3819 14.3231 20.4469 16.0013 22.1962 16.875L22.1887 16.8913C21.8142 17.7072 21.5644 18.2512 21.0112 19.095C20.5519 19.7944 20.0062 20.5594 19.4062 21.135C18.8062 21.7106 18.1706 22.0744 17.5312 22.08C16.9144 22.0856 16.5637 21.9019 16.0312 21.66C15.4987 21.4181 14.8106 21.1406 13.7512 21.15C12.6937 21.1556 11.9962 21.4219 11.4562 21.66C10.9162 21.8981 10.5619 22.0856 9.94125 22.08C9.285 22.0744 8.67562 21.7556 8.09625 21.225C7.51687 20.6944 6.99375 19.9706 6.53625 19.275C4.01625 15.435 3.81375 10.9238 5.26125 8.7C6.3225 7.06687 9.08625 6.135 9.50625 6.135Z" fill="var(--fill-0, #121212)"/>
<path d="M16.9762 1.14C16.9444 2.10937 16.6125 3.05813 16.0612 3.765C15.4837 4.5075 14.5125 5.02125 13.5712 5.175C13.5881 4.24313 13.9556 3.2775 14.5162 2.595C15.105 1.8825 16.08 1.36875 16.9762 1.14Z" fill="var(--fill-0, #121212)"/>
</g>
</g>
<defs>
<clipPath id="clip0_0_4">
<rect width="24" height="24" fill="white"/>
</clipPath>
</defs>
</svg>
