<svg width="162" height="38" viewBox="0 0 162 38" fill="none" xmlns="http://www.w3.org/2000/svg">
<g id="logo baniere">
<g id="Property 1=transparent">
<g id="Vector" filter="url(#filter0_i_3_405)">
<path id="Vector_2" d="M21.2131 10.8017L18.6393 12.1775C18.2691 12.3756 17.8136 12.3071 17.5184 12.0085L10.9714 5.40929C10.7156 5.15142 10.6177 4.77795 10.7143 4.42862L11.4917 1.60473C11.6825 0.911144 12.5489 0.674869 13.0668 1.17537L17.5146 5.47786C17.8098 5.76373 18.2576 5.82722 18.6202 5.63414L20.3556 4.71063C20.9879 4.37399 21.75 4.8313 21.75 5.54649V9.90872C21.75 10.2822 21.5439 10.6252 21.2144 10.8005L21.2131 10.8017Z" fill="url(#paint0_linear_3_405)"/>
<path id="Vector_3" d="M18.0107 3.72453C19.0407 3.72453 19.8758 2.89077 19.8758 1.86226C19.8758 0.833767 19.0407 0 18.0107 0C16.9806 0 16.1455 0.833767 16.1455 1.86226C16.1455 2.89077 16.9806 3.72453 18.0107 3.72453Z" fill="url(#paint1_linear_3_405)"/>
<path id="Vector_4" d="M16.8445 27.1971L19.4183 25.8213C19.7885 25.6232 20.244 25.6918 20.5391 25.9903L27.0862 32.5895C27.342 32.8474 27.4399 33.2209 27.3432 33.5702L26.5659 36.3941C26.3751 37.0877 25.5086 37.324 24.9908 36.8234L20.543 32.5209C20.2478 32.2351 19.8 32.1716 19.4374 32.3647L17.702 33.2882C17.0697 33.6248 16.3076 33.1675 16.3076 32.4523V28.0901C16.3076 27.7167 16.5137 27.3736 16.8432 27.1984L16.8445 27.1971Z" fill="url(#paint2_linear_3_405)"/>
<path id="Vector_5" d="M20.0467 37.9999C21.0769 37.9999 21.9119 37.1662 21.9119 36.1377C21.9119 35.1091 21.0769 34.2754 20.0467 34.2754C19.0167 34.2754 18.1816 35.1091 18.1816 36.1377C18.1816 37.1662 19.0167 37.9999 20.0467 37.9999Z" fill="url(#paint3_linear_3_405)"/>
<path id="Vector_6" d="M27.2385 21.1793L25.8606 18.6094C25.6621 18.2397 25.7308 17.785 26.0298 17.4903L32.6392 10.9533C32.8975 10.698 33.2716 10.6002 33.6214 10.6967L36.4497 11.4728C37.1444 11.6634 37.381 12.5285 36.8797 13.0455L32.5705 17.4865C32.2843 17.7812 32.2207 18.2283 32.414 18.5903L33.339 20.323C33.6761 20.9544 33.2181 21.7153 32.5018 21.7153H28.1328C27.7588 21.7153 27.4153 21.5095 27.2397 21.1805L27.2385 21.1793Z" fill="url(#paint4_linear_3_405)"/>
<path id="Vector_7" d="M36.1923 19.8456C37.2224 19.8456 38.0574 19.0119 38.0574 17.9833C38.0574 16.9549 37.2224 16.1211 36.1923 16.1211C35.1622 16.1211 34.3271 16.9549 34.3271 17.9833C34.3271 19.0119 35.1622 19.8456 36.1923 19.8456Z" fill="url(#paint5_linear_3_405)"/>
<path id="Vector_8" d="M10.817 16.8173L12.1949 19.3871C12.3933 19.7568 12.3247 20.2116 12.0257 20.5063L5.41622 27.0433C5.15797 27.2986 4.78393 27.3964 4.43406 27.2999L1.60581 26.5237C0.911148 26.3332 0.674511 25.4681 1.17578 24.9511L5.48495 20.5101C5.7712 20.2154 5.83484 19.7683 5.64142 19.4062L4.7165 17.6735C4.37934 17.0422 4.83736 16.2812 5.55362 16.2812H9.92261C10.2966 16.2812 10.6402 16.4871 10.8157 16.8161L10.817 16.8173Z" fill="url(#paint6_linear_3_405)"/>
<path id="Vector_9" d="M1.86514 21.8769C2.89523 21.8769 3.73028 21.0431 3.73028 20.0146C3.73028 18.9861 2.89523 18.1523 1.86514 18.1523C0.835049 18.1523 0 18.9861 0 20.0146C0 21.0431 0.835049 21.8769 1.86514 21.8769Z" fill="url(#paint7_linear_3_405)"/>
<path id="Vector_10" d="M23.29 26.3398L24.1361 23.5502C24.2582 23.1488 24.6285 22.8757 25.0483 22.877L34.3511 22.9214C34.7137 22.9227 35.0483 23.1183 35.2277 23.4333L36.6781 25.979C37.0343 26.604 36.589 27.3827 35.8689 27.3942L29.6768 27.492C29.2646 27.4983 28.9045 27.7689 28.785 28.1627L28.2124 30.0402C28.0038 30.7236 27.1412 30.9395 26.6348 30.434L23.5457 27.3497C23.2811 27.0854 23.1844 26.698 23.2925 26.341L23.29 26.3398Z" fill="url(#paint8_linear_3_405)"/>
<path id="Vector_11" d="M31.8856 32.2577C32.9157 32.2577 33.7508 31.424 33.7508 30.3955C33.7508 29.367 32.9157 28.5332 31.8856 28.5332C30.8555 28.5332 30.0205 29.367 30.0205 30.3955C30.0205 31.424 30.8555 32.2577 31.8856 32.2577Z" fill="url(#paint9_linear_3_405)"/>
<path id="Vector_12" d="M14.7653 11.661L13.9192 14.4506C13.7971 14.852 13.4269 15.1252 13.007 15.1239L3.7042 15.0794C3.34161 15.0782 3.007 14.8825 2.82761 14.5675L1.37722 12.0218C1.02099 11.3968 1.46629 10.6181 2.18639 10.6067L8.3785 10.5089C8.79071 10.5025 9.15077 10.232 9.27038 9.83813L9.84287 7.96062C10.0515 7.27723 10.9142 7.06125 11.4205 7.56685L14.5095 10.6512C14.7742 10.9154 14.8709 11.3028 14.7627 11.6598L14.7653 11.661Z" fill="url(#paint10_linear_3_405)"/>
<path id="Vector_13" d="M6.16984 9.46475C7.19992 9.46475 8.03499 8.63099 8.03499 7.60252C8.03499 6.57399 7.19992 5.74023 6.16984 5.74023C5.13975 5.74023 4.30469 6.57399 4.30469 7.60252C4.30469 8.63099 5.13975 9.46475 6.16984 9.46475Z" fill="url(#paint11_linear_3_405)"/>
<path id="Vector_14" d="M26.3774 14.7444L23.5835 13.8997C23.1815 13.7777 22.9079 13.4081 22.9092 12.9889L22.9537 3.70041C22.955 3.33838 23.1509 3.00429 23.4664 2.82518L26.0161 1.37703C26.642 1.02134 27.4219 1.46595 27.4334 2.18494L27.5313 8.36751C27.5377 8.7791 27.8087 9.13856 28.2031 9.25799L30.0835 9.82962C30.768 10.038 30.9843 10.8992 30.4779 11.4048L27.3888 14.4891C27.1242 14.7533 26.7362 14.8499 26.3787 14.7419L26.3774 14.7444Z" fill="url(#paint12_linear_3_405)"/>
<path id="Vector_15" d="M30.4433 8.02532C31.4734 8.02532 32.3084 7.19157 32.3084 6.16304C32.3084 5.13454 31.4734 4.30078 30.4433 4.30078C29.4132 4.30078 28.5781 5.13454 28.5781 6.16304C28.5781 7.19157 29.4132 8.02532 30.4433 8.02532Z" fill="url(#paint13_linear_3_405)"/>
<path id="Vector_16" d="M11.6746 23.2538L14.4685 24.0986C14.8705 24.2205 15.1441 24.5902 15.1428 25.0094L15.0983 34.2978C15.097 34.6598 14.9011 34.9939 14.5856 35.173L12.0359 36.6212C11.41 36.9769 10.6301 36.5323 10.6186 35.8133L10.5207 29.6307C10.5143 29.2192 10.2433 28.8597 9.84894 28.7402L7.96849 28.1686C7.284 27.9603 7.06776 27.099 7.57412 26.5934L10.6631 23.5091C10.9278 23.2449 11.3159 23.1483 11.6733 23.2564L11.6746 23.2538Z" fill="url(#paint14_linear_3_405)"/>
<path id="Vector_17" d="M7.61217 33.6991C8.64231 33.6991 9.47732 32.8654 9.47732 31.8368C9.47732 30.8084 8.64231 29.9746 7.61217 29.9746C6.58209 29.9746 5.74707 30.8084 5.74707 31.8368C5.74707 32.8654 6.58209 33.6991 7.61217 33.6991Z" fill="url(#paint15_linear_3_405)"/>
</g>
<g id="Vector_2_2" filter="url(#filter1_i_3_405)">
<path id="Vector_18" d="M44.3609 33.9258V33.3939C44.3531 32.8852 44.441 32.3791 44.6168 31.9013C44.7849 31.4649 45.0073 31.0518 45.2814 30.6722C45.5529 30.2951 45.8373 29.9233 46.1373 29.5592C46.4294 29.2054 46.7087 28.8387 46.9724 28.4643C47.2388 28.0873 47.456 27.6793 47.6189 27.2481C47.7922 26.7755 47.8775 26.2771 47.8697 25.7736C47.8749 25.5438 47.8361 25.314 47.7533 25.0996C47.6758 24.9111 47.5129 24.8182 47.2672 24.8182C46.8949 24.8182 46.7087 25.1487 46.7087 25.8123V26.946C46.7087 27.0725 46.6053 27.1732 46.4812 27.1732H44.5781C44.4565 27.1732 44.3557 27.0777 44.3505 26.9563C44.3505 26.9202 44.3479 26.8814 44.3453 26.8426C44.3401 26.7213 44.335 26.6025 44.335 26.4863C44.335 25.6832 44.4203 25.0015 44.5884 24.4411C44.7564 23.8808 45.0564 23.4547 45.4856 23.1603C45.9149 22.8659 46.5199 22.7188 47.2982 22.7188C48.224 22.7188 48.9454 22.9796 49.46 23.4986C49.9745 24.0177 50.2305 24.7613 50.2305 25.7246C50.2305 26.3804 50.1452 26.9537 49.9771 27.4469C49.8168 27.9246 49.5892 28.3765 49.3048 28.7923C49.0256 29.1951 48.7178 29.598 48.3843 30.0008C48.1464 30.2848 47.9189 30.574 47.6965 30.8684C47.4715 31.168 47.275 31.4856 47.1095 31.8187H49.928C50.0547 31.8187 50.1555 31.922 50.1555 32.0459V33.6935C50.1555 33.82 50.0521 33.9207 49.928 33.9207H44.3609V33.9258Z" fill="url(#paint16_linear_3_405)" fill-opacity="0.82"/>
<path id="Vector_19" d="M53.6035 34.0255C52.6598 34.0255 51.9306 33.7621 51.416 33.2327C50.9015 32.7033 50.6455 31.9441 50.6455 30.95V25.9171C50.6455 24.8687 50.8911 24.0656 51.3799 23.5053C51.8685 22.9449 52.6107 22.666 53.6062 22.666C54.6043 22.666 55.3488 22.9449 55.8348 23.5053C56.3215 24.0656 56.5645 24.8687 56.5645 25.9171V30.95C56.5645 31.9441 56.3082 32.7033 55.7962 33.2327C55.2842 33.7621 54.555 34.0255 53.6062 34.0255M53.6035 31.97C53.7719 31.9726 53.9292 31.8822 54.0097 31.735C54.1076 31.5775 54.1569 31.3941 54.1542 31.2082V25.6976C54.1569 25.4652 54.1283 25.2328 54.069 25.0107C54.0123 24.8145 53.8572 24.7164 53.6035 24.7164C53.3504 24.7164 53.1953 24.8145 53.1381 25.0107C53.0762 25.2354 53.0476 25.4652 53.0529 25.6976V31.2082C53.0529 31.3941 53.1021 31.5775 53.2027 31.735C53.2832 31.8822 53.4383 31.97 53.6062 31.97" fill="url(#paint17_linear_3_405)" fill-opacity="0.82"/>
<path id="Vector_20" d="M57.2119 33.9271V33.3952C57.2045 32.8865 57.2924 32.3804 57.4682 31.9026C57.6361 31.4663 57.8585 31.0531 58.1327 30.6735C58.4044 30.2965 58.6887 29.9246 58.9884 29.5605C59.2807 29.2068 59.5603 28.8401 59.8239 28.4656C60.0903 28.0886 60.3074 27.6806 60.4705 27.2494C60.6436 26.7768 60.7289 26.2785 60.7209 25.7749C60.7262 25.5451 60.6876 25.3153 60.605 25.1009C60.5271 24.9124 60.364 24.8195 60.1183 24.8195C59.7461 24.8195 59.5603 25.15 59.5603 25.8136V26.9473C59.5603 27.0738 59.4565 27.1745 59.3326 27.1745H57.4296C57.3078 27.1745 57.2072 27.079 57.2019 26.9576C57.2019 26.9215 57.1992 26.8827 57.1966 26.844C57.1913 26.7226 57.1865 26.6038 57.1865 26.4902C57.1865 25.6871 57.2718 25.0054 57.4396 24.445C57.608 23.8847 57.9077 23.4586 58.3398 23.1642C58.7687 22.8698 59.3739 22.7227 60.1522 22.7227C61.0778 22.7227 61.7995 22.9835 62.3136 23.5025C62.8283 24.0216 63.0846 24.7652 63.0846 25.7284C63.0846 26.3843 62.9993 26.9576 62.831 27.4508C62.6705 27.9285 62.4434 28.3804 62.1585 28.7962C61.8795 29.199 61.5718 29.6019 61.2382 30.0047C61.0005 30.2887 60.7728 30.5779 60.5504 30.8723C60.3254 31.1719 60.1289 31.4895 59.9632 31.8226H62.7817C62.9088 31.8226 63.0094 31.9259 63.0094 32.0498V33.6973C63.0094 33.8239 62.9062 33.9245 62.7817 33.9245H57.2146L57.2119 33.9271Z" fill="url(#paint18_linear_3_405)" fill-opacity="0.82"/>
<path id="Vector_21" d="M66.5988 34.0261C65.8231 34.0261 65.2179 33.8944 64.781 33.631C64.3442 33.3677 64.0339 32.9674 63.8555 32.4354C63.6744 31.9035 63.5865 31.2399 63.5865 30.4445V27.4258C63.5812 26.7415 63.6151 26.0572 63.685 25.3781C63.7496 24.7867 63.8862 24.2909 64.0932 23.8881C64.2949 23.493 64.6206 23.1728 65.0188 22.974C65.4302 22.7674 65.9782 22.6641 66.6634 22.6641C67.1135 22.6615 67.5582 22.7442 67.9771 22.9094C68.3652 23.0592 68.7062 23.3097 68.9625 23.6376C69.2129 23.9604 69.3373 24.3658 69.3373 24.8513V25.8274C69.3373 25.9539 69.2336 26.0546 69.1097 26.0546H67.4131C67.2866 26.0546 67.186 25.9514 67.186 25.8274C67.186 25.6415 67.1754 25.4555 67.1574 25.2696C67.1447 25.1069 67.0981 24.9494 67.015 24.8074C66.9403 24.686 66.8111 24.6241 66.6274 24.6241C66.3764 24.6241 66.2032 24.6938 66.1074 24.8306C66.0121 24.9675 65.9629 25.1663 65.9629 25.4246V27.6634C66.0714 27.4619 66.2371 27.2941 66.4383 27.1857C66.6766 27.0591 66.943 26.9972 67.2141 27.0049C67.8325 27.0049 68.308 27.1289 68.6389 27.3768C68.9699 27.6246 69.2002 27.9939 69.3268 28.482C69.4533 28.9726 69.5184 29.5846 69.5184 30.3206C69.5184 31.0642 69.4279 31.715 69.2442 32.2702C69.0631 32.8254 68.7581 33.2592 68.3339 33.5665C67.9072 33.8738 67.3305 34.0287 66.6041 34.0287M66.5162 31.9706C66.7772 31.9706 66.935 31.8596 66.9869 31.6375C67.0436 31.356 67.0695 31.072 67.0616 30.7853V29.8842C67.0616 29.2747 66.8911 28.97 66.5474 28.97C66.154 28.97 65.9576 29.2334 65.9576 29.7628V31.1443C65.9576 31.6943 66.1439 31.968 66.5162 31.968" fill="url(#paint19_linear_3_405)" fill-opacity="0.82"/>
<path id="Vector_22" d="M88.5312 18.4388V4.44757C88.5312 4.12737 88.7896 3.86914 89.1105 3.86914H90.9283C91.2486 3.86914 91.507 4.12737 91.507 4.44757V18.4388C91.507 18.7589 91.2486 19.0172 90.9283 19.0172H89.1105C88.7896 19.0172 88.5312 18.7589 88.5312 18.4388Z" fill="url(#paint20_linear_3_405)" fill-opacity="0.82"/>
<path id="Vector_23" d="M47.9728 19.0771C46.7626 19.0771 45.8369 18.7104 45.1957 17.9796C44.5544 17.2488 44.2363 16.1926 44.2363 14.8111V7.62208C44.2363 6.32577 44.5544 5.34191 45.1879 4.6731C45.8214 4.00171 46.7497 3.66602 47.9728 3.66602C49.1958 3.66602 50.1241 4.00171 50.7576 4.6731C51.3912 5.3445 51.7092 6.32836 51.7092 7.62208V14.8111C51.7092 16.1926 51.3886 17.2488 50.7499 17.9796C50.1086 18.7104 49.1829 19.0771 47.9728 19.0771ZM47.9986 16.2908C48.4589 16.2908 48.6864 15.8466 48.6864 14.9583V7.57043C48.6864 6.82412 48.4615 6.45228 48.0141 6.45228C47.5099 6.45228 47.2565 6.83448 47.2565 7.59623V14.9738C47.2565 15.4438 47.3134 15.7821 47.4298 15.9835C47.5435 16.1875 47.7349 16.2882 47.9986 16.2882V16.2908Z" fill="url(#paint21_linear_3_405)" fill-opacity="0.82"/>
<path id="Vector_24" d="M52.9346 4.1126C52.9346 3.94217 53.074 3.80273 53.2451 3.80273H55.6575C55.828 3.80273 55.9677 3.94217 55.9677 4.1126V16.0505C55.9677 16.2209 56.1075 16.3604 56.278 16.3604H58.7757C58.9467 16.3604 59.0859 16.4998 59.0859 16.6702V18.6328C59.0859 18.8032 58.9467 18.9426 58.7757 18.9426H53.2451C53.074 18.9426 52.9346 18.8032 52.9346 18.6328V4.1126Z" fill="url(#paint22_linear_3_405)" fill-opacity="0.82"/>
<path id="Vector_25" d="M61.2261 18.6018V14.0414C61.2261 13.9873 61.2208 13.933 61.2081 13.8788L58.9064 4.2159C58.8576 4.00416 59.0149 3.80273 59.2325 3.80273H61.5258C61.6915 3.80273 61.8308 3.92152 61.8567 4.0842L62.6224 8.73231C62.6277 8.76847 62.6817 8.76847 62.687 8.73231L63.4521 4.0842C63.478 3.92152 63.6205 3.80273 63.783 3.80273H66.0689C66.2865 3.80273 66.4464 4.00416 66.395 4.2159L64.1013 13.8788C64.0885 13.933 64.0833 13.9873 64.0833 14.0414V18.6018C64.0833 18.7877 63.9334 18.9374 63.747 18.9374H61.5597C61.3733 18.9374 61.2234 18.7877 61.2234 18.6018H61.2261Z" fill="url(#paint23_linear_3_405)" fill-opacity="0.82"/>
<path id="Vector_26" d="M67.2627 18.6018V4.13843C67.2627 3.9525 67.4125 3.80273 67.5984 3.80273H71.586C71.7539 3.80273 71.8963 3.92668 71.9196 4.09195L73.0983 12.6367C73.1062 12.6987 73.1968 12.6987 73.2074 12.6367L74.3786 4.09195C74.4019 3.92668 74.5438 3.80273 74.7122 3.80273H78.7406C78.927 3.80273 79.0768 3.9525 79.0768 4.13843V18.6018C79.0768 18.7877 78.927 18.9374 78.7406 18.9374H76.6412C76.4548 18.9374 76.3049 18.7877 76.3049 18.6018V8.71936C76.3049 8.65227 76.2064 8.6445 76.1964 8.71164L74.6111 18.6534C74.5851 18.8161 74.4432 18.9374 74.2801 18.9374H72.1314C71.9683 18.9374 71.8264 18.8186 71.8005 18.6586L70.1119 8.67289C70.1019 8.60833 70.0034 8.6161 70.0034 8.68325V18.6018C70.0034 18.7877 69.8535 18.9374 69.6671 18.9374H67.601C67.4152 18.9374 67.2648 18.7877 67.2648 18.6018H67.2627Z" fill="url(#paint24_linear_3_405)" fill-opacity="0.82"/>
<path id="Vector_27" d="M80.4235 18.8445V3.89828C80.4235 3.84663 80.4648 3.80273 80.5194 3.80273H84.4292C85.2669 3.80273 85.9314 3.98866 86.4227 4.36051C86.9141 4.73235 87.2657 5.2643 87.4775 5.9512C87.6898 6.63809 87.7957 7.45926 87.7957 8.40949C87.7957 9.35977 87.7078 10.1242 87.5294 10.8033C87.3509 11.4824 87.0354 12.0092 86.5779 12.3811C86.1199 12.7529 85.4739 12.9388 84.6357 12.9388H83.4983C83.4464 12.9388 83.4025 12.9801 83.4025 13.0344V18.8393C83.4025 18.891 83.3612 18.9349 83.3067 18.9349H80.5167C80.4648 18.9349 80.4209 18.8936 80.4209 18.8393L80.4235 18.8445ZM83.4025 10.2274H83.5756C84.1396 10.2274 84.4832 10.0699 84.6103 9.75487C84.7368 9.43982 84.7988 8.97504 84.7988 8.36043C84.7988 7.78721 84.7368 7.34305 84.6124 7.03059C84.4885 6.71813 84.1989 6.56058 83.7387 6.56058H83.4983C83.4464 6.56058 83.4025 6.60192 83.4025 6.65617V10.2274Z" fill="url(#paint25_linear_3_405)" fill-opacity="0.82"/>
<path id="Vector_28" d="M96.2764 19.0764C95.1798 19.0764 94.2982 18.7355 93.6284 18.0538C92.9586 17.3721 92.625 16.4167 92.625 15.1901V8.20763C92.625 6.74086 92.9173 5.61759 93.4992 4.83774C94.0806 4.05789 95.03 3.66797 96.3458 3.66797C97.0622 3.66797 97.7034 3.79967 98.262 4.06306C98.8207 4.32645 99.2628 4.72154 99.5831 5.24575C99.904 5.76996 100.064 6.43099 100.064 7.22895V9.51166C100.064 9.69501 99.9141 9.84479 99.7309 9.84479H97.3831C97.1993 9.84479 97.0495 9.69501 97.0495 9.51166V7.60851C97.0495 7.15663 96.9923 6.84935 96.8758 6.6918C96.7625 6.5343 96.5841 6.45425 96.3431 6.45425C96.0614 6.45425 95.8729 6.55497 95.7745 6.75894C95.6765 6.96297 95.6273 7.23408 95.6273 7.5724V15.1488C95.6273 15.5671 95.6892 15.8615 95.8131 16.0345C95.9375 16.2075 96.1133 16.2927 96.3431 16.2927C96.6021 16.2927 96.7831 16.1868 96.889 15.9751C96.9949 15.7634 97.0495 15.4871 97.0495 15.1488V12.755C97.0495 12.5717 97.1993 12.4219 97.3831 12.4219H99.7642C99.9479 12.4219 100.098 12.5717 100.098 12.755V15.2856C100.098 16.6155 99.7616 17.5813 99.0896 18.1803C98.4172 18.7795 97.4784 19.079 96.2738 19.079L96.2764 19.0764Z" fill="url(#paint26_linear_3_405)" fill-opacity="0.82"/>
<path id="Vector_29" d="M108.771 19.0764C107.675 19.0764 106.793 18.7355 106.124 18.0538C105.454 17.3721 105.12 16.4167 105.12 15.1901V8.20763C105.12 6.74086 105.412 5.61759 105.994 4.83774C106.576 4.05789 107.525 3.66797 108.841 3.66797C109.557 3.66797 110.199 3.79967 110.757 4.06306C111.315 4.32645 111.758 4.72154 112.078 5.24575C112.399 5.76996 112.559 6.43099 112.559 7.22895V9.51166C112.559 9.69501 112.409 9.84479 112.225 9.84479H109.878C109.694 9.84479 109.544 9.69501 109.544 9.51166V7.60851C109.544 7.15663 109.487 6.84935 109.371 6.6918C109.257 6.5343 109.079 6.45425 108.838 6.45425C108.557 6.45425 108.368 6.55497 108.27 6.75894C108.171 6.96297 108.122 7.23408 108.122 7.5724V15.1488C108.122 15.5671 108.184 15.8615 108.308 16.0345C108.432 16.2075 108.608 16.2927 108.838 16.2927C109.097 16.2927 109.278 16.1868 109.384 15.9751C109.49 15.7634 109.544 15.4871 109.544 15.1488V12.755C109.544 12.5717 109.694 12.4219 109.878 12.4219H112.259C112.443 12.4219 112.593 12.5717 112.593 12.755V15.2856C112.593 16.6155 112.257 17.5813 111.584 18.1803C110.912 18.7795 109.973 19.079 108.768 19.079L108.771 19.0764Z" fill="url(#paint27_linear_3_405)" fill-opacity="0.82"/>
<path id="Vector_30" d="M117.219 19.0771C116.009 19.0771 115.083 18.7104 114.442 17.9796C113.8 17.2488 113.482 16.1926 113.482 14.8111V7.62208C113.482 6.32577 113.8 5.34191 114.434 4.6731C115.067 4.00171 115.996 3.66602 117.219 3.66602C118.442 3.66602 119.37 4.00171 120.004 4.6731C120.637 5.3445 120.955 6.32836 120.955 7.62208V14.8111C120.955 16.1926 120.634 17.2488 119.996 17.9796C119.355 18.7104 118.429 19.0771 117.219 19.0771ZM117.244 16.2908C117.705 16.2908 117.932 15.8466 117.932 14.9583V7.57043C117.932 6.82412 117.707 6.45228 117.26 6.45228C116.756 6.45228 116.503 6.83448 116.503 7.59623V14.9738C116.503 15.4438 116.559 15.7821 116.676 15.9835C116.79 16.1875 116.981 16.2882 117.244 16.2882V16.2908Z" fill="url(#paint28_linear_3_405)" fill-opacity="0.82"/>
<path id="Vector_31" d="M122.175 18.7386V4.00415C122.175 3.89312 122.265 3.80273 122.377 3.80273H125.128C125.223 3.80273 125.306 3.86988 125.324 3.96542L126.622 10.7077C126.63 10.7465 126.689 10.7413 126.689 10.7026V4.00673C126.689 3.8957 126.78 3.80531 126.891 3.80531H129.417C129.528 3.80531 129.619 3.8957 129.619 4.00673V18.7412C129.619 18.8522 129.528 18.9426 129.417 18.9426H126.821C126.726 18.9426 126.643 18.8755 126.625 18.7799L125.208 11.7045C125.2 11.6658 125.141 11.6709 125.141 11.7123V18.7412C125.141 18.8522 125.05 18.9426 124.939 18.9426H122.379C122.268 18.9426 122.177 18.8522 122.177 18.7412L122.175 18.7386Z" fill="url(#paint29_linear_3_405)" fill-opacity="0.82"/>
<path id="Vector_32" d="M130.962 18.7509V3.99061C130.962 3.88732 131.045 3.80469 131.148 3.80469H133.922C134.013 3.80469 134.091 3.86925 134.106 3.95705L135.443 10.8982C135.446 10.9163 135.474 10.9137 135.474 10.8956V3.99061C135.474 3.88732 135.557 3.80469 135.66 3.80469H138.212C138.316 3.80469 138.398 3.88732 138.398 3.99061V18.7509C138.398 18.8542 138.316 18.9368 138.212 18.9368H135.59C135.5 18.9368 135.425 18.8749 135.407 18.787L133.966 11.5902C133.962 11.5644 133.922 11.567 133.922 11.5954V18.7509C133.922 18.8542 133.84 18.9368 133.736 18.9368H131.148C131.045 18.9368 130.962 18.8542 130.962 18.7509Z" fill="url(#paint30_linear_3_405)" fill-opacity="0.82"/>
<path id="Vector_33" d="M139.744 18.705V4.03514C139.744 3.90603 139.847 3.80273 139.977 3.80273H145.572C145.702 3.80273 145.805 3.90603 145.805 4.03514V6.49349C145.805 6.6226 145.702 6.72585 145.572 6.72585H143.059C142.93 6.72585 142.826 6.82916 142.826 6.95827V9.4424C142.826 9.57151 142.93 9.67482 143.059 9.67482H145.451C145.58 9.67482 145.684 9.77813 145.684 9.90724V12.2881C145.684 12.4172 145.58 12.5205 145.451 12.5205H143.059C142.93 12.5205 142.826 12.6238 142.826 12.7529V15.7535C142.826 15.8826 142.93 15.9859 143.059 15.9859H145.771C145.901 15.9859 146.004 16.0892 146.004 16.2183V18.7024C146.004 18.8316 145.901 18.9349 145.771 18.9349H139.977C139.847 18.9349 139.744 18.8316 139.744 18.7024V18.705Z" fill="url(#paint31_linear_3_405)" fill-opacity="0.82"/>
<path id="Vector_34" d="M150.534 19.0764C149.438 19.0764 148.556 18.7355 147.886 18.0538C147.216 17.3721 146.883 16.4167 146.883 15.1901V8.20763C146.883 6.74086 147.175 5.61759 147.756 4.83774C148.338 4.05789 149.287 3.66797 150.604 3.66797C151.32 3.66797 151.961 3.79967 152.52 4.06306C153.078 4.32645 153.521 4.72154 153.841 5.24575C154.162 5.76996 154.322 6.43099 154.322 7.22895V9.51166C154.322 9.69501 154.172 9.84479 153.988 9.84479H151.64C151.457 9.84479 151.307 9.69501 151.307 9.51166V7.60851C151.307 7.15663 151.25 6.84935 151.134 6.6918C151.02 6.5343 150.841 6.45425 150.601 6.45425C150.319 6.45425 150.13 6.55497 150.032 6.75894C149.934 6.96297 149.885 7.23408 149.885 7.5724V15.1488C149.885 15.5671 149.947 15.8615 150.071 16.0345C150.195 16.2075 150.371 16.2927 150.601 16.2927C150.86 16.2927 151.04 16.1868 151.147 15.9751C151.253 15.7634 151.307 15.4871 151.307 15.1488V12.755C151.307 12.5717 151.457 12.4219 151.64 12.4219H154.022C154.206 12.4219 154.356 12.5717 154.356 12.755V15.2856C154.356 16.6155 154.019 17.5813 153.347 18.1803C152.675 18.7795 151.736 19.079 150.531 19.079L150.534 19.0764Z" fill="url(#paint32_linear_3_405)" fill-opacity="0.82"/>
<path id="Vector_35" d="M156.666 18.8135V6.83693C156.666 6.76719 156.609 6.71036 156.539 6.71036H154.99C154.92 6.71036 154.863 6.65358 154.863 6.58384V3.92927C154.863 3.85954 154.92 3.80273 154.99 3.80273H161.369C161.439 3.80273 161.496 3.85954 161.496 3.92927V6.58384C161.496 6.65358 161.439 6.71036 161.369 6.71036H159.82C159.751 6.71036 159.693 6.76719 159.693 6.83693V18.8135C159.693 18.8832 159.637 18.94 159.567 18.94H156.787C156.718 18.94 156.66 18.8832 156.66 18.8135H156.666Z" fill="url(#paint33_linear_3_405)" fill-opacity="0.82"/>
</g>
</g>
</g>
<defs>
<filter id="filter0_i_3_405" x="0" y="0" width="38.0576" height="41.8987" filterUnits="userSpaceOnUse" color-interpolation-filters="sRGB">
<feFlood flood-opacity="0" result="BackgroundImageFix"/>
<feBlend mode="normal" in="SourceGraphic" in2="BackgroundImageFix" result="shape"/>
<feColorMatrix in="SourceAlpha" type="matrix" values="0 0 0 0 0 0 0 0 0 0 0 0 0 0 0 0 0 0 127 0" result="hardAlpha"/>
<feOffset dy="3.89873"/>
<feGaussianBlur stdDeviation="1.94936"/>
<feComposite in2="hardAlpha" operator="arithmetic" k2="-1" k3="1"/>
<feColorMatrix type="matrix" values="0 0 0 0 0 0 0 0 0 0 0 0 0 0 0 0 0 0 0.25 0"/>
<feBlend mode="normal" in2="shape" result="effect1_innerShadow_3_405"/>
</filter>
<filter id="filter1_i_3_405" x="44.2363" y="3.66602" width="117.26" height="31.9228" filterUnits="userSpaceOnUse" color-interpolation-filters="sRGB">
<feFlood flood-opacity="0" result="BackgroundImageFix"/>
<feBlend mode="normal" in="SourceGraphic" in2="BackgroundImageFix" result="shape"/>
<feColorMatrix in="SourceAlpha" type="matrix" values="0 0 0 0 0 0 0 0 0 0 0 0 0 0 0 0 0 0 127 0" result="hardAlpha"/>
<feOffset dy="1.55949"/>
<feGaussianBlur stdDeviation="2.72911"/>
<feComposite in2="hardAlpha" operator="arithmetic" k2="-1" k3="1"/>
<feColorMatrix type="matrix" values="0 0 0 0 0 0 0 0 0 0 0 0 0 0 0 0 0 0 0.14 0"/>
<feBlend mode="normal" in2="shape" result="effect1_innerShadow_3_405"/>
</filter>
<linearGradient id="paint0_linear_3_405" x1="3.79448" y1="0.00160924" x2="99.0436" y2="109.27" gradientUnits="userSpaceOnUse">
<stop stop-color="#FBFBFB"/>
<stop offset="1" stop-color="#707070"/>
</linearGradient>
<linearGradient id="paint1_linear_3_405" x1="3.7956" y1="1.1292e-06" x2="99.0447" y2="109.268" gradientUnits="userSpaceOnUse">
<stop stop-color="#FBFBFB"/>
<stop offset="1" stop-color="#707070"/>
</linearGradient>
<linearGradient id="paint2_linear_3_405" x1="3.79484" y1="-0.00136566" x2="99.044" y2="109.267" gradientUnits="userSpaceOnUse">
<stop stop-color="#FBFBFB"/>
<stop offset="1" stop-color="#707070"/>
</linearGradient>
<linearGradient id="paint3_linear_3_405" x1="3.79354" y1="0.00134732" x2="99.0427" y2="109.269" gradientUnits="userSpaceOnUse">
<stop stop-color="#FBFBFB"/>
<stop offset="1" stop-color="#707070"/>
</linearGradient>
<linearGradient id="paint4_linear_3_405" x1="3.79312" y1="-0.00180802" x2="99.0422" y2="109.266" gradientUnits="userSpaceOnUse">
<stop stop-color="#FBFBFB"/>
<stop offset="1" stop-color="#707070"/>
</linearGradient>
<linearGradient id="paint5_linear_3_405" x1="3.79528" y1="0.00220942" x2="99.0444" y2="109.27" gradientUnits="userSpaceOnUse">
<stop stop-color="#FBFBFB"/>
<stop offset="1" stop-color="#707070"/>
</linearGradient>
<linearGradient id="paint6_linear_3_405" x1="3.79408" y1="-0.000204722" x2="99.0432" y2="109.268" gradientUnits="userSpaceOnUse">
<stop stop-color="#FBFBFB"/>
<stop offset="1" stop-color="#707070"/>
</linearGradient>
<linearGradient id="paint7_linear_3_405" x1="3.79388" y1="-0.00154288" x2="99.0429" y2="109.266" gradientUnits="userSpaceOnUse">
<stop stop-color="#FBFBFB"/>
<stop offset="1" stop-color="#707070"/>
</linearGradient>
<linearGradient id="paint8_linear_3_405" x1="3.79378" y1="0.00131703" x2="99.0429" y2="109.269" gradientUnits="userSpaceOnUse">
<stop stop-color="#FBFBFB"/>
<stop offset="1" stop-color="#707070"/>
</linearGradient>
<linearGradient id="paint9_linear_3_405" x1="3.79523" y1="-0.00161663" x2="99.0443" y2="109.266" gradientUnits="userSpaceOnUse">
<stop stop-color="#FBFBFB"/>
<stop offset="1" stop-color="#707070"/>
</linearGradient>
<linearGradient id="paint10_linear_3_405" x1="3.79324" y1="0.00218844" x2="99.0424" y2="109.27" gradientUnits="userSpaceOnUse">
<stop stop-color="#FBFBFB"/>
<stop offset="1" stop-color="#707070"/>
</linearGradient>
<linearGradient id="paint11_linear_3_405" x1="3.79322" y1="0.00100683" x2="99.0423" y2="109.269" gradientUnits="userSpaceOnUse">
<stop stop-color="#FBFBFB"/>
<stop offset="1" stop-color="#707070"/>
</linearGradient>
<linearGradient id="paint12_linear_3_405" x1="3.79209" y1="2.12819e-05" x2="99.0412" y2="109.268" gradientUnits="userSpaceOnUse">
<stop stop-color="#FBFBFB"/>
<stop offset="1" stop-color="#707070"/>
</linearGradient>
<linearGradient id="paint13_linear_3_405" x1="3.7931" y1="0.000802673" x2="99.0422" y2="109.269" gradientUnits="userSpaceOnUse">
<stop stop-color="#FBFBFB"/>
<stop offset="1" stop-color="#707070"/>
</linearGradient>
<linearGradient id="paint14_linear_3_405" x1="3.79163" y1="-0.000365991" x2="99.0408" y2="109.268" gradientUnits="userSpaceOnUse">
<stop stop-color="#FBFBFB"/>
<stop offset="1" stop-color="#707070"/>
</linearGradient>
<linearGradient id="paint15_linear_3_405" x1="3.7941" y1="0.000517159" x2="99.0432" y2="109.268" gradientUnits="userSpaceOnUse">
<stop stop-color="#FBFBFB"/>
<stop offset="1" stop-color="#707070"/>
</linearGradient>
<linearGradient id="paint16_linear_3_405" x1="28.2067" y1="-28.4557" x2="171.758" y2="49.045" gradientUnits="userSpaceOnUse">
<stop stop-color="#FBF6F6"/>
<stop offset="1" stop-color="#D3D3D3"/>
</linearGradient>
<linearGradient id="paint17_linear_3_405" x1="28.2054" y1="-28.4568" x2="171.757" y2="49.044" gradientUnits="userSpaceOnUse">
<stop stop-color="#FBF6F6"/>
<stop offset="1" stop-color="#D3D3D3"/>
</linearGradient>
<linearGradient id="paint18_linear_3_405" x1="28.2068" y1="-28.4544" x2="171.758" y2="49.0463" gradientUnits="userSpaceOnUse">
<stop stop-color="#FBF6F6"/>
<stop offset="1" stop-color="#D3D3D3"/>
</linearGradient>
<linearGradient id="paint19_linear_3_405" x1="28.2046" y1="-28.4561" x2="171.756" y2="49.0446" gradientUnits="userSpaceOnUse">
<stop stop-color="#FBF6F6"/>
<stop offset="1" stop-color="#D3D3D3"/>
</linearGradient>
<linearGradient id="paint20_linear_3_405" x1="28.2052" y1="-28.4554" x2="171.757" y2="49.0456" gradientUnits="userSpaceOnUse">
<stop stop-color="#FBF6F6"/>
<stop offset="1" stop-color="#D3D3D3"/>
</linearGradient>
<linearGradient id="paint21_linear_3_405" x1="28.2046" y1="-28.4549" x2="171.756" y2="49.0458" gradientUnits="userSpaceOnUse">
<stop stop-color="#FBF6F6"/>
<stop offset="1" stop-color="#D3D3D3"/>
</linearGradient>
<linearGradient id="paint22_linear_3_405" x1="28.2069" y1="-28.4551" x2="171.758" y2="49.0457" gradientUnits="userSpaceOnUse">
<stop stop-color="#FBF6F6"/>
<stop offset="1" stop-color="#D3D3D3"/>
</linearGradient>
<linearGradient id="paint23_linear_3_405" x1="28.2058" y1="-28.4551" x2="171.757" y2="49.0456" gradientUnits="userSpaceOnUse">
<stop stop-color="#FBF6F6"/>
<stop offset="1" stop-color="#D3D3D3"/>
</linearGradient>
<linearGradient id="paint24_linear_3_405" x1="28.2046" y1="-28.4551" x2="171.756" y2="49.0456" gradientUnits="userSpaceOnUse">
<stop stop-color="#FBF6F6"/>
<stop offset="1" stop-color="#D3D3D3"/>
</linearGradient>
<linearGradient id="paint25_linear_3_405" x1="28.2069" y1="-28.4551" x2="171.758" y2="49.0456" gradientUnits="userSpaceOnUse">
<stop stop-color="#FBF6F6"/>
<stop offset="1" stop-color="#D3D3D3"/>
</linearGradient>
<linearGradient id="paint26_linear_3_405" x1="28.206" y1="-28.4555" x2="171.757" y2="49.0452" gradientUnits="userSpaceOnUse">
<stop stop-color="#FBF6F6"/>
<stop offset="1" stop-color="#D3D3D3"/>
</linearGradient>
<linearGradient id="paint27_linear_3_405" x1="28.2066" y1="-28.4556" x2="171.758" y2="49.0452" gradientUnits="userSpaceOnUse">
<stop stop-color="#FBF6F6"/>
<stop offset="1" stop-color="#D3D3D3"/>
</linearGradient>
<linearGradient id="paint28_linear_3_405" x1="28.2067" y1="-28.4549" x2="171.758" y2="49.0457" gradientUnits="userSpaceOnUse">
<stop stop-color="#FBF6F6"/>
<stop offset="1" stop-color="#D3D3D3"/>
</linearGradient>
<linearGradient id="paint29_linear_3_405" x1="28.203" y1="-28.4551" x2="171.754" y2="49.0457" gradientUnits="userSpaceOnUse">
<stop stop-color="#FBF6F6"/>
<stop offset="1" stop-color="#D3D3D3"/>
</linearGradient>
<linearGradient id="paint30_linear_3_405" x1="28.2063" y1="-28.4557" x2="171.758" y2="49.0451" gradientUnits="userSpaceOnUse">
<stop stop-color="#FBF6F6"/>
<stop offset="1" stop-color="#D3D3D3"/>
</linearGradient>
<linearGradient id="paint31_linear_3_405" x1="28.2045" y1="-28.4551" x2="171.756" y2="49.0459" gradientUnits="userSpaceOnUse">
<stop stop-color="#FBF6F6"/>
<stop offset="1" stop-color="#D3D3D3"/>
</linearGradient>
<linearGradient id="paint32_linear_3_405" x1="28.2042" y1="-28.4555" x2="171.756" y2="49.0452" gradientUnits="userSpaceOnUse">
<stop stop-color="#FBF6F6"/>
<stop offset="1" stop-color="#D3D3D3"/>
</linearGradient>
<linearGradient id="paint33_linear_3_405" x1="28.2051" y1="-28.4551" x2="171.756" y2="49.0457" gradientUnits="userSpaceOnUse">
<stop stop-color="#FBF6F6"/>
<stop offset="1" stop-color="#D3D3D3"/>
</linearGradient>
</defs>
</svg>
