<?xml version="1.0" encoding="UTF-8"?><svg id="Calque_2" xmlns="http://www.w3.org/2000/svg" viewBox="0 0 323.51 100.02"><g id="Layer_1"><path d="M138.55,42.31c-3.38-4.15-8-6.22-13.45-6.22-10.77,0-18.87,8.53-18.87,20.03s8.1,20.03,18.87,20.03c5.45,0,10.07-2.07,13.45-6.22l.58,5.13h8.24v-37.89h-8.24l-.58,5.13h0ZM126.91,68.27c-6.85,0-11.79-4.96-11.79-12.15s4.94-12.15,11.79-12.15,11.71,5.03,11.71,12.15-4.79,12.15-11.71,12.15ZM153.52,75.06h8.75v-37.89h-8.75v37.89h0ZM87.93,61.76c-6.8-14.82-14.24-29.86-21.84-44.69-1.37-2.75-3.98-8.03-6.29-10.85-3.33-4.05-8.24-6.22-13.23-6.22s-9.91,2.17-13.23,6.22c-2.31,2.82-4.92,8.1-6.29,10.85-7.59,14.82-15.04,29.86-21.84,44.69-.87,1.95-2.96,6.58-3.76,8.68-.94,2.53-1.45,5.28-1.45,8.03,0,11.93,9.33,21.55,21.76,21.55,10.27,0,18.44-6.58,24.8-13.45,6.36,6.87,14.53,13.45,24.8,13.45,12.44,0,21.84-9.62,21.84-21.55,0-2.75-.58-5.5-1.52-8.03-.8-2.1-2.89-6.72-3.76-8.68h0ZM46.57,75.06c-5.13-6.65-9.91-14.9-9.91-21.55s4.7-9.98,9.91-9.98,9.98,3.54,9.98,9.98-4.84,14.9-9.98,21.55ZM71.38,92.56c-7.6,0-14.13-5.32-19.9-11.71,5.96-7.43,12.53-17.95,12.53-27.34,0-11.06-8.6-17.43-17.43-17.43s-17.35,6.36-17.35,17.43c0,9.39,6.53,19.9,12.46,27.33-5.78,6.39-12.3,11.71-19.91,11.71-8.24,0-14.32-6.29-14.32-14.1,0-1.88.29-3.62.94-5.42.65-1.66,2.75-6.29,3.62-8.1,6.8-14.82,14.1-29.72,21.69-44.54,1.37-2.75,3.69-7.3,5.42-9.4,1.88-2.31,4.48-3.54,7.45-3.54s5.57,1.23,7.45,3.54c1.74,2.1,4.05,6.65,5.42,9.4,7.59,14.82,14.9,29.72,21.69,44.54.87,1.81,2.96,6.44,3.62,8.1.65,1.81,1.01,3.54,1.01,5.42,0,7.81-6.15,14.1-14.39,14.1h0ZM304.64,36.09c-5.45,0-10.18,2.15-13.52,6.22v-21.33h-8.75v54.09h8.24l.58-5.13c3.38,4.15,8,6.22,13.45,6.22,10.77,0,18.87-8.53,18.87-20.03s-8.1-20.03-18.87-20.03h0ZM302.83,68.27c-6.92,0-11.71-5.03-11.71-12.15s4.79-12.15,11.71-12.15,11.79,4.96,11.79,12.15-4.94,12.15-11.79,12.15ZM262.12,36.09c-5.67,0-9.61,2.62-11.86,6.22l-.58-5.13h-8.24v37.89h8.75v-21.91c0-5.35,3.98-9.18,9.47-9.18s8.17,3.54,8.17,9.62v21.47h8.75v-22.56c0-10.12-5.57-16.41-14.46-16.41h0ZM177.23,42.6l-.58-5.42h-8.24v37.89h8.75v-19.09c0-6.65,4.05-10.92,10.77-10.92,1.45,0,2.89.14,4.05.51v-8.39c-1.08-.43-2.46-.58-3.98-.58-4.59,0-8.47,2.39-10.77,6ZM218.23,36.09c-5.45,0-10.18,2.15-13.52,6.22v-21.33h-8.75v54.09h8.24l.58-5.13c3.38,4.15,8,6.22,13.45,6.22,10.77,0,18.87-8.53,18.87-20.03s-8.1-20.03-18.87-20.03h0ZM216.42,68.27c-6.92,0-11.71-5.03-11.71-12.15s4.79-12.15,11.71-12.15,11.79,4.96,11.79,12.15-4.94,12.15-11.79,12.15ZM157.89,20.98c-3.13,0-5.68,2.54-5.68,5.68s2.54,5.68,5.68,5.68,5.68-2.54,5.68-5.68-2.54-5.68-5.68-5.68h0Z" style="fill:#ff385c;"/></g></svg>