<svg viewBox="0 0 2239.19 1577.82" xmlns="http://www.w3.org/2000/svg"><path d="m969.51 703.14c-53.58-37.66-118.61-54.52-177.95-52.28-59.94 2.45-86.85 47.02-86.85 47.02-27-47.23-80.29-76.23-162.79-75.44-133.4.99-265.77 62.51-370.67 62.32-100.59-.18-173.76-63.31-171.17-175.75 4.58-196.71 171.06-373.57 295.37-453.41 71.47-45.45 131.46-59.22 170.61-54.82 28.47 3.32 62.76 36.65 41.04 84.86-31.82 71.15-75.73 65.29-74.22 31.32 1-22.26 15.67-36.24 26.62-43.87 7.24-4.71 19.73-5.92 26.02-6.09 6.19-5.25 11.12-44.47-40.03-31.49-51.19 12.85-112.86 62.79-171.66 127.41-58.92 64.79-150.51 187.49-173.23 316.19-10.7 59.71-3.85 168.58 137.76 167.52 119.99-.67 297.14-79.34 459.79-77.59 63.14.47 118.15 17.58 160.95 44.17 42.13 26.13 92.57 64 110.41 89.93m39.17-356.73 24.68.04s-123.69 178.04-193.33 169.87c-38.86-4.36-27.29-52.59-27.29-52.59s-54.87 63.74-104.75 50.71c-45.45-11.27-16.07-86.94-16.07-86.94-5.16 1.98-103.86 112.65-172.86 86.1-72.33-27.92-34.72-120.98-20.84-148.79 11.67-23.67 24.66-46.47 24.66-46.47s-11.22 3.11-17.92 4.73c-6.96 1.44-17.51 3.59-17.51 3.59s-34.26 55.59-55.46 83.35c-20.84 27.8-110.04 123.16-162.32 103.62-52.29-18.65-39.41-92.01-9.77-150.28 48.02-94.28 161.41-210.18 229.46-192.7 69.05 17.49 11.93 129.47 11.93 129.47s13.54 1.88 46.39-20.55c47.52-32.16 110.04-119.09 177.68-108.67 31.53 4.7 61.19 37.23 20.61 99-13.07 20.03-34.6 37.62-51.35 20.05-10.32-10.84-1.34-30.7 9.55-44.11 15.3-19.33 36.63-16.67 36.63-16.67s11.16-25.78-17.12-25.43c-23.16.48-81.36 53.75-114.23 108.11-30.48 49.84-76.16 134.3-30.3 153 42.08 17.13 122.05-77.94 159.3-127.75 37.23-49.54 121.75-162.19 192.46-166.69 24.17-1.59 38.71 20.52 38.71 20.52l8.36-12.83 70.59.13s-133.67 222.41-144.1 239.49c-8.17 12.98-19.07 42.64 11.07 26 30.16-16.64 93.15-97.33 93.15-97.33m-548.71-23.4c-1.26-.58-19.17-5.83-36.45-16.67-17.15-11.39-25.26-27.79-26.03-28.9-.52-1.15-1.33-.27-1.96.53-.75.98-4.53 5.95-29.84 42.71-25.27 37.2-62.78 113.03-27.75 125.95 22.37 8.25 60.11-31.04 80.7-57.03 18.84-23.95 41.4-61.37 42.5-63.72.82-1.94 0-2.51-1.17-2.87m28.23-118.3c-18.67-14.17-65.91 18.48-66.06 51.91-.5 34.51 42.38 44.53 47.99 44.8 0 0 4.88 1.39 6.75-2.68 1.09-2.73 7.11-13.28 13.61-30.37 6.53-17.22 15.01-50.47-2.3-63.67m360 185.9c28.73-39.13 107.59-176.08 107.59-176.08s-1.36-9.73-10.39-10.1c-10.83-.67-29.11 3-65.14 48.35-36.41 45.09-64.5 80.95-84.95 118.38-22.49 41-32.4 69.71-19.43 77.68 3.53 2.22 8.97 2.36 13.57 1.26 8.22-2.14 19.27-10.35 34.18-27.78 7.12-8.02 15.27-18.82 24.57-31.71m318.29-211.75-67.05-.12-38.24 61.43 67.24.12zm880.19 459.12c-6.7-.01-12.51 2.19-17.19 6.9-4.8 4.73-7.26 10.59-7.27 17.18-.01 6.76 2.42 12.6 7.21 17.64 4.66 4.65 10.36 6.87 17.16 6.88 6.76.01 12.65-2.18 17.16-6.82 4.78-5.03 7.26-10.86 7.28-17.61.01-6.58-2.45-12.46-7.21-17.2-4.69-4.73-10.38-6.95-17.14-6.97m28.11 24.18c-.01 7.87-2.55 14.62-8.17 20.05-5.58 5.47-12.18 8.42-20.04 8.4-7.89-.01-14.46-2.98-20.06-8.48-5.42-5.31-8.1-12.21-8.09-20.08.01-7.55 2.73-14.48 8.35-19.77 5.43-5.56 12.01-8.24 19.9-8.22 7.86.01 14.44 2.71 20.01 8.3 5.6 5.31 8.11 12.25 8.1 19.8m-20.87-6.26c0-1.99-.52-3.76-2.05-4.37-1.19-.8-3.6-1.21-6.6-1.21h-4.62s-.02 11.17-.02 11.17h4.91c2.41.01 4.03-.21 5.41-.69 1.91-.79 2.96-2.21 2.97-4.9m-18.67-9.09 10.83.02c3.81 0 6.81.23 8.52.82 3.15 1.42 4.74 4.16 4.73 7.91 0 2.74-.96 4.99-2.97 6.05-1.08.79-2.71 1.41-4.61 1.67 2.42.45 4.31 1.33 5.41 2.97 1 1.77 1.72 3.36 1.71 4.91v2.39 2.12c.19 1.01.19 1.41.38 1.59l.04.35h-5.14s0-.23 0-.23q-.28-.13-.28-.31v-.89s0-2.64 0-2.64c0-3.71-.81-5.93-2.74-7.03-1.29-.85-3.2-1.2-6.19-1.2h-4.33s-.02 12.28-.02 12.28h-5.4s.06-30.77.06-30.77zm122.73-576.58c-49.36 31.85-118.52 60.57-184.49 54.23-16.75 17.15-34.68 37.13-52.6 59.01 114.61 22.83 215.04-48.02 268.47-108.45 33.32-37.67 49.83-71.52 49.83-71.52s-31.78 35.01-81.21 66.74m-197.26 520.61c-9.72 14.87-20.52 44.27 11 26.13 38.31-22.11 92.79-104.45 92.79-104.45l24.67.04s-32.42 51.19-74.98 97.93c-38.9 42.75-86.09 81.8-119.29 78.03-38.93-4.49-26.91-55.93-26.91-55.93s-55.83 59.36-94.16 55.09c-52.02-5.79-36.14-70.13-36.14-70.13s-58.88 72.17-98.82 69.89c-62.93-3.52-47.04-80.36-29.36-134.01 9.38-29.01 18.14-51.17 18.14-51.17s-6.36 1.36-19.67 3.45c-7.04 1.09-19.79 1.73-19.79 1.73s-26.27 45.98-47.3 74c-20.84 27.4-109.69 122.88-162.06 103.74-48.45-17.8-32.56-92.04-4.02-150.61 41.11-85.68 156.79-208.99 223.72-192.71 68.83 17 1.26 142.79 1.26 142.79s0 .53.77 1.01c1.43.4 4.73.59 13.19-.81 13.36-2.54 25.5-7.55 25.5-7.55s69.64-145.45 146.52-240.43c76.71-95.28 230.37-259.09 290.47-219.04 14.61 9.61 7.76 43.18-12.11 84.01-8.54 2.51-17.79 5.23-27.02 6.8 13.26-23.96 22.15-43.96 24.71-58.14 9.02-49.24-105.82 54.19-188.18 165.73-82.33 111.45-131.68 212.48-131.68 212.48s16.67-9.38 42.43-30.06c27.05-21.55 64.07-55.45 104.57-97.09 26.96-27.88 58.94-63.16 88.83-102.47 8.77-.38 17.61-1.21 25.94-2.7-33.09 45.14-68.32 85.9-97.82 115.71-32.78 33.07-68.36 68.79-99.28 94.67-48.95 41.09-86.86 64.34-86.86 64.34s-72.31 144.42-33.1 154.04c22.78 5.33 68.18-64.38 68.18-64.38s59.32-90.23 95.12-130.6c48.8-55.4 90.61-87.31 132.42-87.99 24.4-.09 38.69 25.57 38.69 25.57l11.65-17.7 70.81.13s-132.41 223.67-142.83 240.61m-396.89-88.87c-1.43-.4-16.78-7.67-32.69-20.73-15.76-13.37-23.86-28.54-24.44-29.82-.51-1.06-1.11-.18-2.04.97-.66.7-3.43 3.31-28.9 40.36-25.12 37.07-63.92 113.16-28.99 126.44 22.53 8.21 59.96-31.17 80.36-56.93 18.92-24.36 36.68-54.85 37.59-57.15 1-2.12.19-2.73-.9-3.14m35.64-62.5c6.54-16.95 14.73-50.37-2.6-63.4-18.42-14.31-65.66 18.49-65.97 51.97-.34 34.28 33.25 49.85 41.29 52.03 4.7 1.29 6.04 1.25 8.51-2.6 1.34-2.29 12.11-21.04 18.77-38.01m405.69-46.57c1.55-2.48 2.11-4.67 2.11-4.67s-1.35-9.73-10.59-10.18c-10.84-.38-25.72 1.59-64.84 44.77-38.86 42.91-62.6 80.38-83.18 117.81-22.33 40.96-31.32 71.25-18.67 78.83 3.61 2.31 9.22 2.67 13.64 1.61 8.7-2.2 18.57-10.17 33.67-27.64 7.07-8.16 14.98-19.32 24.05-32.34 25.89-35.25 90.95-145.71 103.81-168.18m152.83-322.67c-49.36 31.85-118.52 60.57-184.49 54.23-16.75 17.15-34.68 37.13-52.6 59.01 114.61 22.83 215.04-48.02 268.47-108.45 33.32-37.67 49.83-71.52 49.83-71.52s-31.78 35.01-81.21 66.74m-322.17 82.55c-54.15-27.93-93.65-62.02-134.84-83.17-39.53-20.26-64.91-28.75-96.55-24.42-5.34.51-13.19 3.24-13.19 3.24s16.35 55.87-49.07 149.81c-66.12 95.17-125.94 94.53-142.96 68.08-17.76-27.47 5.27-83.81 43.88-133.91 40.38-52.38 111.03-95.8 111.03-95.8s-22.47-13.78-78.11 17.34c-53.78 30.74-147.09 103.34-233.64 226.05-86.31 122.34-103.47 190.09-115.91 243.17-12.75 53.3-1.42 110.09 57.46 110.2 59.29.11 127.92-89.68 147.35-121 35.87-58.34 59.63-147.54 10.51-135.18-24.11 5.93-43.72 32.84-56.11 58.48-12.62 26.18-17.61 51.53-17.61 51.53s-20.56 7.12-47.94 27.7c-27.34 20.45-45.26 40.17-45.26 40.17s.23-42.42 34.28-111.32c33.83-68.73 96.24-100.19 131.29-102.83 31.82-2.63 72.97 24.34 37.84 123.77-35.01 99.57-138.42 219.91-247 221.21-99.89 1.54-165.52-126.53-25.79-349.2 154.4-246.28 335.65-321.85 394.48-330.18 58.65-8.37 77.77 17.73 77.77 17.73s49.08-22.62 111.52-18.26c71.92 4.63 127.2 55.76 200.31 91.42-19.04 18.65-37.13 37.57-53.75 55.43m-267.01-96.97s-41.86 16.63-91.06 70.22c-48.86 54.03-77.18 114.1-56.24 130.23 8.12 6.19 26.76 6.94 60.69-23.18 26.34-23.67 53.3-54.68 71.73-99.27 21.79-53.06 14.88-77.51 14.88-78" fill="#e41e2a"/><path d="m2028.22 1096.48c10.78 3.11 33.29.26 60.57 2.58 59.11 5.04 58.78-37.97 56.3-42.67-2.02-4.84-14.07-42.17-64.71-19.8-10.23 4.7-39.2 33.83-64.72 33.83-19.32 0-76.77 10.92-74.17-43 2.74-53.71-14.67-75.36-30.12-80.12-15.3-4.77-61.93-4.77-85.27 15.55-23.24 20.42-26.58 59.68-26.58 59.68s9.95 24.09 3.63 37.14c-17.87 37.06-75.6 13.13-102.97 3.6-27.21-9.54-20.62-27.54-19.2-43.03 1.8-15.53-11.74-43.12-58.12-49.08-46.66-5.99-60.44 17.94-60.44 17.94-8.64 11.92-13.68 16.78-22.67 40.65-8.87 23.98-1.87 91.21 56.13 129.28 43.12 28 167.49 7.36 184.54-1.31 43.45-21.75 45.34 27.46 45.27 40.54-.46 13.28-11.52 18.01-27.02 21.64-15.78 3.55-140.5 17.48-168.21 27.44-20.31 7.22-29 12.04-29 12.04-35.61-13.28-59.18 9.07-67.12 37.87-20.7 77.23 38 62.46 51.29 60.04 13.25-2.31 159.12-47.83 199.93-57.49 40.98-9.39 48.07-8.25 58.39 9.65 10.06 17.98 11.22 68.16 9.53 81.34-1.39 12.11-3.28 35.51 21.45 36.67-17.09 4.67-13.6 30.49-17.87 37.73-3.32 5.2-17.52 31.44-23.65 38.7-6.18 7.12-15.55 24.36 1.96 43.42 17.22 19.03 48.49 41.34 65.93 18.8 17.35-22.77 21.33-22.4 11.99-70.2-7.82-39.51-8.79-65.73-25.5-69.28 23.18-3.43 18.14-16.58 21.96-80.16 4.41-69.35 45.11-74.21 68.18-83.65 22.97-9.63 79.31-14.24 115.15-21.52 36.15-7.07 31.11-41.86 14.67-52.58-43.36-28.37-79.84-8.31-121.98 1.22-42.04 9.5-56.86-13.08-56.86-13.08l.79-27.47c96.25-26.48 98.48-52.92 98.48-52.92z" fill="#fff"/><path d="m466.1 1180.77c65.03 5.92 123.92-21.62 161.46-67.36 27.3-33.26 41.02-75.62 41.02-118.64v-6.23c0-39.32-31.87-71.19-71.19-71.19h-282.98c-13.07 28.3-19.3 60.41-16.4 94.25 7.62 89 79.14 161.07 168.1 169.17z" fill="#00b451"/><path d="m443.2 1264.61c-122.61-.59-224.83-98.07-230.95-220.53-2.31-46.24 8.97-89.65 30.1-126.72h-163.05c-39.32 0-71.19 31.87-71.19 71.19v377.74c77.33-37.08 163.97-57.85 255.46-57.85 156.7 0 299.15 60.95 405 160.39v-370.31c0-.86-1.19-1.02-1.43-.2-28.58 96.48-118.07 166.79-223.94 166.28z" fill="#00b451"/><path d="m656.96 1509.98c-87.95-75.2-202.12-120.64-326.91-120.64-117.93 0-226.36 40.58-312.16 108.51-6.21 5.02-10.59 9.99-8.75 20.79 5.71 33.6 34.94 59.19 70.16 59.19h518.08c31.63 0 58.37-20.67 67.64-49.21 2-6.87-1.17-12.43-8.06-18.63z" fill="#00b451"/><g fill="#fff"><path d="m1443.93 1106.31c-5.99-51.4-55.11-46.64-130.18-44.35-43.33 1.39-70.71 4.83-89.93 3.63-19.07-1.19-130.21-2.31-151.67-3.63-21.64-1.12-31.11-18.94-6.09-16.75 25.22 2.45 37-19.2 56.8-24.1 58.32-14.3 110.58 33.8 110.58 33.8h35.85s13.08-6.03 26.41-19.18c12.99-13.2 23.94-10.79 33.4-9.62 9.46 1.31 41.74 2.34 70.46 0 28.81-2.32 31.11-14.34 29.97-23.97-1.16-9.33-19.17-22.61-33.51-22.61s-55.1 3.64-83.77 4.84c-28.53 1.22-32.17-34.7-34.49-40.69-2.45-5.92-20.39-20.32-37.15-21.48-46.49-3.45-41.9 38.16-41.9 45.41s-21.48 17.97-21.48 17.97-105.09 3.5-120.65 2.38c-15.55-1.25-7.15-33.52-8.48-41.84-1.25-8.37-28.52-33.52-63.31-28.76-34.55 4.84-28.73 44.15-28.73 56.34s-10.68 9.46-10.68 9.46h-33.36c-32.24-18-38.36-10.69-55.02-3.64-16.71 7.18-21.47 31.08-7.27 62.2 14.49 30.98 60.87 4.9 68.28 2.32 7.05-2.32 56.15-1.03 56.15 9.69 0 20.39-25.24 17.88-35.91 15.46-10.62-2.41-50.27 0-68.11 1.23-18.04 1.19-19.18 4.87-31.08 28.63-11.85 23.87-13.18 153.05 46.52 149.44 59.79-3.7 50.25-65.7 51.52-105.22 1.48-45.71 90.68-41.77 111-39.52 20.42 2.55 28.71 3.8 60.94 1.43 87.35-6.69 113.71-4.87 181.78-4.87s77.73 76.03 77.73 79.67-1.29 35.58 7.08 55.9c8.48 20.38 5.41 17.38 11.42 41.14 5.79 23.41 20.86 26.52 41.32 8.5 28.42-25.35 21.37-127.82 15.55-179.23z"/><path d="m1057.67 1160.03c9.62-3.53 159.01-3.53 169.77-3.53s23.22-2.06 30.54 2.67c6.98 4.8 11.85 9.77 11.85 9.77 43.2-16.58 18.57-46.01 11.49-50.7-7.15-4.77-29.96 0-37.1 2.41-7.22 2.28-143.42-2.24-204.36-2.41-47.44-.11-60.98 21.54-60.98 21.54-13.87 15.82 1.06 21.23 21.91 22.94 23.87 2.05 47.34.96 56.88-2.69z"/><path d="m1392.15 1449.46c-2.61-2.59-6.63-8.53-16.84-7.47 5.01-5.41 6.37-13.47 6.37-16.53 0-7.35-4.87-47.83-14.4-64.57-9.54-16.79-82.41-114.77-97.97-123.04-35.95-19.36-81.69 35.62-81.69 35.62-3.9-12.68-31.91-32.17-35.35-35.62-3.71-3.74 14.17-12.11 14.17-12.11 7.32 1.23 92.21-9.54 105.25-4.7 36.95 13.35 34.62 0 45.49-19.16 10.69-19.07-8.47-31.09-25.09-29.92-16.74 1.19-288 0-296.41-1.17-8.58-1.26-32.31-2.45-39.59 12.02-21.61 43.56 29.96 51.3 29.96 51.3 5.99 0 3.64 1.33 22.71-5.92 19.05-7.16 14.3 9.65 2.47 13.1-12.04 3.51-109.99 43.78-127.62 52.79-14.34 7.45-16.92 20.56-9.64 28.87 7.16 8.41 13.04 12.38 35.78 4.09 22.78-8.3 119.43-61.82 127.63-65.27 14.67-6.39 23.48 16.95-1.16 23.87-32.8 8.96-162.87 72.85-167.54 78.87-4.96 5.89-14.18 30.95 7.5 36.98 21.44 5.82 113.5-53.79 125.48-62.12 11.87-8.41 51.24-33.63 64.41-38.4 13.14-4.77 24.56 7.55 9.6 12.02-15.23 4.8-78.87 57.42-96.88 68.25-17.91 10.83-28.59 4.63-44.05 15.48-15.65 10.59-7.08 34.73 13.07 34.73 55.11 0 137.43-76.46 151.73-90.96 14.39-14.33 27.47-7.15 35.87 0 8.48 7.21 3.61 19.23-8.4 24.03-11.79 4.57-66.86 34.53-90.8 50.08-23.93 15.6-82.42 45.48-99.09 52.7-16.83 7.05-32.71 21.49-31.64 39.52 4.7 68.15 78.26 7.8 88.7-2.41 9.02-8.84 112.58-68.2 144.85-78.95 32.34-10.85 56.16-33.39 71.73-43.03 15.46-9.53 23.94-17.9 21.55-35.94-5.22-39.59 27.36-19.04 27.36-19.04 33.67 29.79 33.67 74.05 70.71 104 12.97 10.47 22.73 14.83 30.08 15.64-17.53 10.29-4.26 34.81-4.26 34.81 1.27 5.93 21.65 45.38 58.68 26.25 36.98-19.16-19.13-55.05-22.73-58.68z"/></g></svg>