<svg width="36" height="36" viewBox="0 0 36 36" fill="none" xmlns="http://www.w3.org/2000/svg">
<rect x="0.0243252" y="0.0243252" width="35.9514" height="35.9514" rx="7.97567" fill="#373A69" stroke="#6196A7" stroke-width="0.0486503"/>
<mask id="path-2-inside-1_780_2631" fill="white">
<path d="M18 9C21.5951 9 23.3928 8.9998 24.6875 9.85645C25.2657 10.239 25.761 10.7343 26.1436 11.3125C27.0002 12.6072 27 14.4049 27 18C27 21.5951 27.0002 23.3928 26.1436 24.6875C25.761 25.2657 25.2657 25.761 24.6875 26.1436C23.3928 27.0002 21.5951 27 18 27C14.4049 27 12.6072 27.0002 11.3125 26.1436C10.7343 25.761 10.239 25.2657 9.85645 24.6875C8.9998 23.3928 9 21.5951 9 18C9 14.4049 8.9998 12.6072 9.85645 11.3125C10.239 10.7343 10.7343 10.239 11.3125 9.85645C12.6072 8.9998 14.4049 9 18 9ZM18 13.3408C15.4268 13.3408 13.3409 15.4268 13.3408 18C13.3408 20.5733 15.4267 22.6592 18 22.6592C20.5732 22.6591 22.6592 20.5733 22.6592 18C22.6591 15.4268 20.5732 13.3409 18 13.3408ZM18 14.917C19.7025 14.9171 21.0829 16.2975 21.083 18C21.083 19.7026 19.7026 21.0829 18 21.083C16.2973 21.083 14.917 19.7027 14.917 18C14.9171 16.2974 16.2974 14.917 18 14.917ZM22.8438 12.0117C22.2392 12.0117 21.7482 12.5019 21.748 13.1064C21.748 13.7111 22.2391 14.2012 22.8438 14.2012C23.4482 14.2009 23.9385 13.7109 23.9385 13.1064C23.9383 12.5021 23.4481 12.012 22.8438 12.0117Z"/>
</mask>
<path d="M18 9C21.5951 9 23.3928 8.9998 24.6875 9.85645C25.2657 10.239 25.761 10.7343 26.1436 11.3125C27.0002 12.6072 27 14.4049 27 18C27 21.5951 27.0002 23.3928 26.1436 24.6875C25.761 25.2657 25.2657 25.761 24.6875 26.1436C23.3928 27.0002 21.5951 27 18 27C14.4049 27 12.6072 27.0002 11.3125 26.1436C10.7343 25.761 10.239 25.2657 9.85645 24.6875C8.9998 23.3928 9 21.5951 9 18C9 14.4049 8.9998 12.6072 9.85645 11.3125C10.239 10.7343 10.7343 10.239 11.3125 9.85645C12.6072 8.9998 14.4049 9 18 9ZM18 13.3408C15.4268 13.3408 13.3409 15.4268 13.3408 18C13.3408 20.5733 15.4267 22.6592 18 22.6592C20.5732 22.6591 22.6592 20.5733 22.6592 18C22.6591 15.4268 20.5732 13.3409 18 13.3408ZM18 14.917C19.7025 14.9171 21.0829 16.2975 21.083 18C21.083 19.7026 19.7026 21.0829 18 21.083C16.2973 21.083 14.917 19.7027 14.917 18C14.9171 16.2974 16.2974 14.917 18 14.917ZM22.8438 12.0117C22.2392 12.0117 21.7482 12.5019 21.748 13.1064C21.748 13.7111 22.2391 14.2012 22.8438 14.2012C23.4482 14.2009 23.9385 13.7109 23.9385 13.1064C23.9383 12.5021 23.4481 12.012 22.8438 12.0117Z" fill="#FBFBFB"/>
<path d="M24.6875 9.85645L24.7289 9.79381L24.7289 9.79381L24.6875 9.85645ZM26.1436 11.3125L26.2062 11.2711L26.2062 11.2711L26.1436 11.3125ZM27 18H26.9249H27ZM26.1436 24.6875L26.2062 24.7289L26.2062 24.7289L26.1436 24.6875ZM24.6875 26.1436L24.7289 26.2062L24.7289 26.2062L24.6875 26.1436ZM18 27V26.9249V27ZM11.3125 26.1436L11.2711 26.2062L11.2711 26.2062L11.3125 26.1436ZM9.85645 24.6875L9.79381 24.7289L9.79381 24.7289L9.85645 24.6875ZM9.85645 11.3125L9.79381 11.2711L9.79381 11.2711L9.85645 11.3125ZM11.3125 9.85645L11.2711 9.79381L11.2711 9.79381L11.3125 9.85645ZM18 13.3408L18 13.2657H18V13.3408ZM13.3408 18L13.2657 18V18H13.3408ZM18 22.6592V22.7343H18L18 22.6592ZM22.6592 18H22.7343V18L22.6592 18ZM18 14.917L18 14.8419H18V14.917ZM21.083 18H21.1581V18L21.083 18ZM18 21.083V21.1581H18L18 21.083ZM14.917 18L14.8419 18V18H14.917ZM22.8438 12.0117L22.8438 11.9366H22.8438V12.0117ZM21.748 13.1064L21.6729 13.1064V13.1064H21.748ZM22.8438 14.2012V14.2763H22.8438L22.8438 14.2012ZM23.9385 13.1064H24.0136V13.1064L23.9385 13.1064ZM18 9V9.07511C19.7991 9.07511 21.1428 9.07515 22.1988 9.18171C23.2536 9.28815 24.013 9.50025 24.6461 9.91908L24.6875 9.85645L24.7289 9.79381C24.0672 9.356 23.2805 9.13988 22.2139 9.03225C21.1486 8.92475 19.796 8.92489 18 8.92489V9ZM24.6875 9.85645L24.6461 9.91908C25.2158 10.2961 25.7039 10.7842 26.0809 11.3539L26.1436 11.3125L26.2062 11.2711C25.8181 10.6845 25.3155 10.1819 24.7289 9.79381L24.6875 9.85645ZM26.1436 11.3125L26.0809 11.3539C26.4998 11.987 26.7119 12.7464 26.8183 13.8012C26.9249 14.8572 26.9249 16.2009 26.9249 18H27H27.0751C27.0751 16.204 27.0752 14.8514 26.9677 13.7861C26.8601 12.7195 26.644 11.9328 26.2062 11.2711L26.1436 11.3125ZM27 18H26.9249C26.9249 19.7991 26.9249 21.1428 26.8183 22.1988C26.7119 23.2536 26.4998 24.013 26.0809 24.6461L26.1436 24.6875L26.2062 24.7289C26.644 24.0672 26.8601 23.2805 26.9677 22.2139C27.0752 21.1486 27.0751 19.796 27.0751 18H27ZM26.1436 24.6875L26.0809 24.6461C25.7039 25.2158 25.2158 25.7039 24.6461 26.0809L24.6875 26.1436L24.7289 26.2062C25.3155 25.8181 25.8181 25.3155 26.2062 24.7289L26.1436 24.6875ZM24.6875 26.1436L24.6461 26.0809C24.013 26.4998 23.2536 26.7119 22.1988 26.8183C21.1428 26.9249 19.7991 26.9249 18 26.9249V27V27.0751C19.796 27.0751 21.1486 27.0752 22.2139 26.9677C23.2805 26.8601 24.0672 26.644 24.7289 26.2062L24.6875 26.1436ZM18 27V26.9249C16.2009 26.9249 14.8572 26.9249 13.8012 26.8183C12.7464 26.7119 11.987 26.4998 11.3539 26.0809L11.3125 26.1436L11.2711 26.2062C11.9328 26.644 12.7195 26.8601 13.7861 26.9677C14.8514 27.0752 16.204 27.0751 18 27.0751V27ZM11.3125 26.1436L11.3539 26.0809C10.7842 25.7039 10.2961 25.2158 9.91908 24.6461L9.85645 24.6875L9.79381 24.7289C10.1819 25.3155 10.6845 25.8181 11.2711 26.2062L11.3125 26.1436ZM9.85645 24.6875L9.91908 24.6461C9.50025 24.013 9.28815 23.2536 9.18171 22.1988C9.07515 21.1428 9.07511 19.7991 9.07511 18H9H8.92489C8.92489 19.796 8.92475 21.1486 9.03225 22.2139C9.13988 23.2805 9.356 24.0672 9.79381 24.7289L9.85645 24.6875ZM9 18H9.07511C9.07511 16.2009 9.07515 14.8572 9.18171 13.8012C9.28815 12.7464 9.50025 11.987 9.91908 11.3539L9.85645 11.3125L9.79381 11.2711C9.356 11.9328 9.13988 12.7195 9.03225 13.7861C8.92475 14.8514 8.92489 16.204 8.92489 18H9ZM9.85645 11.3125L9.91908 11.3539C10.2961 10.7842 10.7842 10.2961 11.3539 9.91908L11.3125 9.85645L11.2711 9.79381C10.6845 10.1819 10.1819 10.6845 9.79381 11.2711L9.85645 11.3125ZM11.3125 9.85645L11.3539 9.91908C11.987 9.50025 12.7464 9.28815 13.8012 9.18171C14.8572 9.07515 16.2009 9.07511 18 9.07511V9V8.92489C16.204 8.92489 14.8514 8.92475 13.7861 9.03225C12.7195 9.13988 11.9328 9.356 11.2711 9.79381L11.3125 9.85645ZM18 13.3408V13.2657C15.3853 13.2657 13.2658 15.3853 13.2657 18L13.3408 18L13.4159 18C13.416 15.4683 15.4682 13.4159 18 13.4159V13.3408ZM13.3408 18H13.2657C13.2657 20.6148 15.3852 22.7343 18 22.7343V22.6592V22.5841C15.4682 22.5841 13.4159 20.5318 13.4159 18H13.3408ZM18 22.6592L18 22.7343C20.6147 22.7342 22.7343 20.6147 22.7343 18H22.6592H22.5841C22.5841 20.5318 20.5318 22.584 18 22.5841L18 22.6592ZM22.6592 18L22.7343 18C22.7342 15.3854 20.6147 13.2658 18 13.2657L18 13.3408L18 13.4159C20.5317 13.416 22.584 15.4683 22.5841 18L22.6592 18ZM18 14.917L18 14.9921C19.6611 14.9922 21.0078 16.3389 21.0079 18L21.083 18L21.1581 18C21.158 16.256 19.744 14.842 18 14.8419L18 14.917ZM21.083 18H21.0079C21.0079 19.6612 19.6611 21.0078 18 21.0079L18 21.083L18 21.1581C19.7441 21.158 21.1581 19.7441 21.1581 18H21.083ZM18 21.083V21.0079C16.3388 21.0079 14.9921 19.6612 14.9921 18H14.917H14.8419C14.8419 19.7442 16.2558 21.1581 18 21.1581V21.083ZM14.917 18L14.9921 18C14.9922 16.3389 16.3389 14.9921 18 14.9921V14.917V14.8419C16.2559 14.8419 14.842 16.2559 14.8419 18L14.917 18ZM22.8438 12.0117V11.9366C22.1978 11.9366 21.6731 12.4604 21.6729 13.1064L21.748 13.1064L21.8232 13.1065C21.8233 12.5435 22.2806 12.0868 22.8438 12.0868V12.0117ZM21.748 13.1064H21.6729C21.6729 13.7527 22.1977 14.2763 22.8438 14.2763V14.2012V14.1261C22.2805 14.1261 21.8232 13.6695 21.8232 13.1064H21.748ZM22.8438 14.2012L22.8438 14.2763C23.4896 14.276 24.0136 13.7525 24.0136 13.1064H23.9385H23.8634C23.8634 13.6694 23.4067 14.1258 22.8437 14.1261L22.8438 14.2012ZM23.9385 13.1064L24.0136 13.1064C24.0134 12.4606 23.4896 11.9369 22.8438 11.9366L22.8438 12.0117L22.8437 12.0868C23.4066 12.0871 23.8632 12.5436 23.8634 13.1065L23.9385 13.1064Z" fill="#FBFBFB" mask="url(#path-2-inside-1_780_2631)"/>
</svg>
