<svg width="162" height="38" viewBox="0 0 162 38" fill="none" xmlns="http://www.w3.org/2000/svg">
<g filter="url(#filter0_i_2606_26358)">
<path d="M21.2131 10.7998L18.6393 12.1755C18.2691 12.3737 17.8136 12.3051 17.5184 12.0065L10.9714 5.40734C10.7156 5.14946 10.6177 4.776 10.7143 4.42666L11.4917 1.60278C11.6825 0.909191 12.5489 0.672916 13.0668 1.17342L17.5146 5.47591C17.8098 5.76177 18.2576 5.82527 18.6202 5.63219L20.3556 4.70867C20.9879 4.37204 21.75 4.82935 21.75 5.54453V9.90677C21.75 10.2802 21.5439 10.6232 21.2144 10.7985L21.2131 10.7998Z" fill="url(#paint0_linear_2606_26358)"/>
<path d="M18.0107 3.72453C19.0407 3.72453 19.8758 2.89077 19.8758 1.86226C19.8758 0.833767 19.0407 0 18.0107 0C16.9806 0 16.1455 0.833767 16.1455 1.86226C16.1455 2.89077 16.9806 3.72453 18.0107 3.72453Z" fill="url(#paint1_linear_2606_26358)"/>
<path d="M16.844 27.1952L19.4178 25.8194C19.788 25.6212 20.2435 25.6899 20.5387 25.9884L27.0857 32.5876C27.3415 32.8455 27.4394 33.2189 27.3427 33.5682L26.5654 36.3921C26.3746 37.0857 25.5081 37.322 24.9904 36.8215L20.5425 32.519C20.2473 32.2332 19.7995 32.1696 19.4369 32.3628L17.7015 33.2862C17.0692 33.6229 16.3071 33.1656 16.3071 32.4504V28.0882C16.3071 27.7147 16.5132 27.3717 16.8427 27.1964L16.844 27.1952Z" fill="url(#paint2_linear_2606_26358)"/>
<path d="M20.0467 38.0019C21.0769 38.0019 21.9119 37.1681 21.9119 36.1396C21.9119 35.1111 21.0769 34.2773 20.0467 34.2773C19.0167 34.2773 18.1816 35.1111 18.1816 36.1396C18.1816 37.1681 19.0167 38.0019 20.0467 38.0019Z" fill="url(#paint3_linear_2606_26358)"/>
<path d="M27.2385 21.1793L25.8606 18.6094C25.6621 18.2397 25.7308 17.785 26.0298 17.4903L32.6392 10.9533C32.8975 10.698 33.2716 10.6002 33.6214 10.6967L36.4497 11.4728C37.1444 11.6634 37.381 12.5285 36.8797 13.0455L32.5705 17.4865C32.2843 17.7812 32.2207 18.2283 32.414 18.5903L33.339 20.323C33.6761 20.9544 33.2181 21.7153 32.5018 21.7153H28.1328C27.7588 21.7153 27.4153 21.5095 27.2397 21.1805L27.2385 21.1793Z" fill="url(#paint4_linear_2606_26358)"/>
<path d="M36.1923 19.8456C37.2224 19.8456 38.0574 19.0119 38.0574 17.9833C38.0574 16.9549 37.2224 16.1211 36.1923 16.1211C35.1622 16.1211 34.3271 16.9549 34.3271 17.9833C34.3271 19.0119 35.1622 19.8456 36.1923 19.8456Z" fill="url(#paint5_linear_2606_26358)"/>
<path d="M10.8165 16.8173L12.1944 19.3871C12.3929 19.7568 12.3242 20.2116 12.0252 20.5063L5.41573 27.0433C5.15748 27.2986 4.78344 27.3964 4.43357 27.2999L1.60532 26.5237C0.91066 26.3332 0.674023 25.4681 1.17529 24.9511L5.48446 20.5101C5.77071 20.2154 5.83435 19.7683 5.64093 19.4062L4.71601 17.6735C4.37886 17.0422 4.83688 16.2812 5.55314 16.2812H9.92212C10.2962 16.2812 10.6397 16.4871 10.8152 16.8161L10.8165 16.8173Z" fill="url(#paint6_linear_2606_26358)"/>
<path d="M1.86514 21.8769C2.89523 21.8769 3.73028 21.0431 3.73028 20.0146C3.73028 18.9861 2.89523 18.1523 1.86514 18.1523C0.835049 18.1523 0 18.9861 0 20.0146C0 21.0431 0.835049 21.8769 1.86514 21.8769Z" fill="url(#paint7_linear_2606_26358)"/>
<path d="M23.2905 26.3378L24.1366 23.5482C24.2587 23.1468 24.6289 22.8737 25.0488 22.875L34.3516 22.9195C34.7142 22.9207 35.0488 23.1164 35.2282 23.4314L36.6786 25.9771C37.0348 26.6021 36.5895 27.3807 35.8694 27.3922L29.6773 27.49C29.2651 27.4964 28.905 27.7669 28.7854 28.1607L28.2129 30.0382C28.0043 30.7217 27.1417 30.9376 26.6353 30.432L23.5462 27.3477C23.2816 27.0835 23.1849 26.6961 23.293 26.3391L23.2905 26.3378Z" fill="url(#paint8_linear_2606_26358)"/>
<path d="M31.8856 32.2597C32.9157 32.2597 33.7508 31.4259 33.7508 30.3974C33.7508 29.3689 32.9157 28.5352 31.8856 28.5352C30.8555 28.5352 30.0205 29.3689 30.0205 30.3974C30.0205 31.4259 30.8555 32.2597 31.8856 32.2597Z" fill="url(#paint9_linear_2606_26358)"/>
<path d="M14.7658 11.661L13.9197 14.4506C13.7976 14.852 13.4274 15.1252 13.0075 15.1239L3.70469 15.0794C3.3421 15.0782 3.00749 14.8825 2.8281 14.5675L1.37771 12.0218C1.02148 11.3968 1.46678 10.6181 2.18688 10.6067L8.37899 10.5089C8.7912 10.5025 9.15126 10.232 9.27087 9.83813L9.84336 7.96062C10.052 7.27723 10.9146 7.06125 11.421 7.56685L14.51 10.6512C14.7747 10.9154 14.8714 11.3028 14.7632 11.6598L14.7658 11.661Z" fill="url(#paint10_linear_2606_26358)"/>
<path d="M6.16984 9.4628C7.19992 9.4628 8.03499 8.62904 8.03499 7.60057C8.03499 6.57204 7.19992 5.73828 6.16984 5.73828C5.13975 5.73828 4.30469 6.57204 4.30469 7.60057C4.30469 8.62904 5.13975 9.4628 6.16984 9.4628Z" fill="url(#paint11_linear_2606_26358)"/>
<path d="M26.3769 14.7464L23.583 13.9016C23.181 13.7797 22.9074 13.41 22.9087 12.9908L22.9532 3.70237C22.9545 3.34033 23.1504 3.00624 23.4659 2.82713L26.0156 1.37898C26.6415 1.0233 27.4214 1.46791 27.4329 2.1869L27.5308 8.36946C27.5372 8.78105 27.8082 9.14052 28.2026 9.25995L30.083 9.83158C30.7675 10.0399 30.9838 10.9012 30.4774 11.4068L27.3883 14.491C27.1237 14.7553 26.7357 14.8518 26.3782 14.7439L26.3769 14.7464Z" fill="url(#paint12_linear_2606_26358)"/>
<path d="M30.4433 8.02532C31.4734 8.02532 32.3084 7.19157 32.3084 6.16304C32.3084 5.13454 31.4734 4.30078 30.4433 4.30078C29.4132 4.30078 28.5781 5.13454 28.5781 6.16304C28.5781 7.19157 29.4132 8.02532 30.4433 8.02532Z" fill="url(#paint13_linear_2606_26358)"/>
<path d="M11.6751 23.2558L14.469 24.1005C14.871 24.2224 15.1446 24.5921 15.1433 25.0113L15.0988 34.2998C15.0975 34.6618 14.9016 34.9959 14.586 35.175L12.0364 36.6232C11.4105 36.9789 10.6306 36.5342 10.6191 35.8153L10.5211 29.6327C10.5148 29.2211 10.2438 28.8616 9.84943 28.7422L7.96897 28.1706C7.28449 27.9622 7.06825 27.1009 7.5746 26.5954L10.6636 23.5111C10.9283 23.2469 11.3163 23.1503 11.6738 23.2583L11.6751 23.2558Z" fill="url(#paint14_linear_2606_26358)"/>
<path d="M7.61217 33.7011C8.64231 33.7011 9.47732 32.8673 9.47732 31.8388C9.47732 30.8103 8.64231 29.9766 7.61217 29.9766C6.58209 29.9766 5.74707 30.8103 5.74707 31.8388C5.74707 32.8673 6.58209 33.7011 7.61217 33.7011Z" fill="url(#paint15_linear_2606_26358)"/>
</g>
<g filter="url(#filter1_i_2606_26358)">
<path d="M44.3609 33.9219V33.39C44.3531 32.8813 44.441 32.3752 44.6168 31.8974C44.7849 31.461 45.0073 31.0479 45.2814 30.6683C45.5529 30.2912 45.8373 29.9194 46.1373 29.5553C46.4294 29.2015 46.7087 28.8348 46.9724 28.4604C47.2388 28.0834 47.456 27.6754 47.6189 27.2441C47.7922 26.7716 47.8775 26.2732 47.8697 25.7697C47.8749 25.5399 47.8361 25.3101 47.7533 25.0957C47.6758 24.9072 47.5129 24.8143 47.2672 24.8143C46.8949 24.8143 46.7087 25.1448 46.7087 25.8084V26.942C46.7087 27.0686 46.6053 27.1693 46.4812 27.1693H44.5781C44.4565 27.1693 44.3557 27.0737 44.3505 26.9524C44.3505 26.9162 44.3479 26.8775 44.3453 26.8387C44.3401 26.7174 44.335 26.5986 44.335 26.4824C44.335 25.6793 44.4203 24.9976 44.5884 24.4372C44.7564 23.8769 45.0564 23.4508 45.4856 23.1564C45.9149 22.862 46.5199 22.7148 47.2982 22.7148C48.224 22.7148 48.9454 22.9757 49.46 23.4947C49.9745 24.0137 50.2305 24.7574 50.2305 25.7206C50.2305 26.3765 50.1452 26.9498 49.9771 27.443C49.8168 27.9207 49.5892 28.3726 49.3048 28.7884C49.0256 29.1912 48.7178 29.594 48.3843 29.9969C48.1464 30.2809 47.9189 30.5701 47.6965 30.8645C47.4715 31.1641 47.275 31.4817 47.1095 31.8148H49.928C50.0547 31.8148 50.1555 31.9181 50.1555 32.042V33.6895C50.1555 33.8161 50.0521 33.9168 49.928 33.9168H44.3609V33.9219Z" fill="url(#paint16_linear_2606_26358)" fill-opacity="0.82"/>
<path d="M53.6035 34.0235C52.6598 34.0235 51.9306 33.7601 51.416 33.2308C50.9015 32.7014 50.6455 31.9422 50.6455 30.948V25.9152C50.6455 24.8668 50.8911 24.0637 51.3799 23.5033C51.8685 22.9429 52.6107 22.6641 53.6062 22.6641C54.6043 22.6641 55.3488 22.9429 55.8348 23.5033C56.3215 24.0637 56.5645 24.8668 56.5645 25.9152V30.948C56.5645 31.9422 56.3082 32.7014 55.7962 33.2308C55.2842 33.7601 54.555 34.0235 53.6062 34.0235M53.6035 31.968C53.7719 31.9706 53.9292 31.8802 54.0097 31.733C54.1076 31.5755 54.1569 31.3922 54.1542 31.2062V25.6957C54.1569 25.4633 54.1283 25.2308 54.069 25.0088C54.0123 24.8125 53.8572 24.7144 53.6035 24.7144C53.3504 24.7144 53.1953 24.8125 53.1381 25.0088C53.0762 25.2334 53.0476 25.4633 53.0529 25.6957V31.2062C53.0529 31.3922 53.1021 31.5755 53.2027 31.733C53.2832 31.8802 53.4383 31.968 53.6062 31.968" fill="url(#paint17_linear_2606_26358)" fill-opacity="0.82"/>
<path d="M57.2119 33.9232V33.3913C57.2045 32.8826 57.2924 32.3765 57.4682 31.8987C57.6361 31.4624 57.8585 31.0492 58.1327 30.6696C58.4044 30.2926 58.6887 29.9207 58.9884 29.5566C59.2807 29.2029 59.5603 28.8362 59.8239 28.4617C60.0903 28.0847 60.3074 27.6767 60.4705 27.2455C60.6436 26.7729 60.7289 26.2746 60.7209 25.771C60.7262 25.5412 60.6876 25.3114 60.605 25.097C60.5271 24.9085 60.364 24.8156 60.1183 24.8156C59.7461 24.8156 59.5603 25.1461 59.5603 25.8097V26.9434C59.5603 27.0699 59.4565 27.1706 59.3326 27.1706H57.4296C57.3078 27.1706 57.2072 27.0751 57.2019 26.9537C57.2019 26.9176 57.1992 26.8788 57.1966 26.8401C57.1913 26.7187 57.1865 26.5999 57.1865 26.4863C57.1865 25.6832 57.2718 25.0015 57.4396 24.4411C57.608 23.8808 57.9077 23.4547 58.3398 23.1603C58.7687 22.8659 59.3739 22.7188 60.1522 22.7188C61.0778 22.7188 61.7995 22.9796 62.3136 23.4986C62.8283 24.0177 63.0846 24.7613 63.0846 25.7245C63.0846 26.3804 62.9993 26.9537 62.831 27.4469C62.6705 27.9246 62.4434 28.3765 62.1585 28.7923C61.8795 29.1951 61.5718 29.598 61.2382 30.0008C61.0005 30.2848 60.7728 30.574 60.5504 30.8684C60.3254 31.168 60.1289 31.4856 59.9632 31.8187H62.7817C62.9088 31.8187 63.0094 31.922 63.0094 32.0459V33.6934C63.0094 33.82 62.9062 33.9206 62.7817 33.9206H57.2146L57.2119 33.9232Z" fill="url(#paint18_linear_2606_26358)" fill-opacity="0.82"/>
<path d="M66.5993 34.0222C65.8236 34.0222 65.2183 33.8905 64.7815 33.6271C64.3447 33.3638 64.0344 32.9635 63.8559 32.4315C63.6749 31.8996 63.587 31.236 63.587 30.4406V27.4219C63.5817 26.7376 63.6156 26.0533 63.6854 25.3742C63.75 24.7828 63.8867 24.287 64.0937 23.8842C64.2954 23.4891 64.6211 23.1689 65.0193 22.9701C65.4307 22.7635 65.9787 22.6602 66.6639 22.6602C67.1139 22.6576 67.5587 22.7403 67.9775 22.9055C68.3657 23.0553 68.7067 23.3058 68.9629 23.6337C69.2134 23.9565 69.3378 24.3619 69.3378 24.8474V25.8235C69.3378 25.95 69.2341 26.0507 69.1101 26.0507H67.4136C67.2871 26.0507 67.1865 25.9474 67.1865 25.8235C67.1865 25.6376 67.1759 25.4516 67.1579 25.2657C67.1452 25.103 67.0986 24.9455 67.0155 24.8035C66.9408 24.6821 66.8116 24.6202 66.6279 24.6202C66.3769 24.6202 66.2037 24.6899 66.1079 24.8267C66.0126 24.9636 65.9633 25.1624 65.9633 25.4207V27.6595C66.0719 27.458 66.2376 27.2902 66.4388 27.1817C66.6771 27.0552 66.9434 26.9933 67.2145 27.001C67.833 27.001 68.3085 27.125 68.6394 27.3729C68.9704 27.6207 69.2007 27.99 69.3272 28.4781C69.4538 28.9687 69.5189 29.5807 69.5189 30.3167C69.5189 31.0603 69.4284 31.7111 69.2446 32.2663C69.0636 32.8215 68.7586 33.2553 68.3344 33.5625C67.9077 33.8699 67.331 34.0248 66.6046 34.0248M66.5167 31.9667C66.7777 31.9667 66.9355 31.8557 66.9874 31.6336C67.044 31.3521 67.07 31.0681 67.0621 30.7814V29.8803C67.0621 29.2708 66.8916 28.9661 66.5479 28.9661C66.1545 28.9661 65.958 29.2295 65.958 29.7589V31.1404C65.958 31.6904 66.1444 31.9641 66.5167 31.9641" fill="url(#paint19_linear_2606_26358)" fill-opacity="0.82"/>
<path d="M88.5312 18.4368V4.44561C88.5312 4.12541 88.7896 3.86719 89.1105 3.86719H90.9283C91.2486 3.86719 91.507 4.12541 91.507 4.44561V18.4368C91.507 18.757 91.2486 19.0152 90.9283 19.0152H89.1105C88.7896 19.0152 88.5312 18.757 88.5312 18.4368Z" fill="url(#paint20_linear_2606_26358)" fill-opacity="0.82"/>
<path d="M47.9728 19.0751C46.7626 19.0751 45.8369 18.7084 45.1957 17.9776C44.5544 17.2468 44.2363 16.1907 44.2363 14.8091V7.62013C44.2363 6.32381 44.5544 5.33996 45.1879 4.67115C45.8214 3.99976 46.7497 3.66406 47.9728 3.66406C49.1958 3.66406 50.1241 3.99976 50.7576 4.67115C51.3912 5.34255 51.7092 6.3264 51.7092 7.62013V14.8091C51.7092 16.1907 51.3886 17.2468 50.7499 17.9776C50.1086 18.7084 49.1829 19.0751 47.9728 19.0751ZM47.9986 16.2888C48.4589 16.2888 48.6864 15.8447 48.6864 14.9563V7.56847C48.6864 6.82216 48.4615 6.45033 48.0141 6.45033C47.5099 6.45033 47.2565 6.83253 47.2565 7.59427V14.9718C47.2565 15.4418 47.3134 15.7801 47.4298 15.9815C47.5435 16.1855 47.7349 16.2862 47.9986 16.2862V16.2888Z" fill="url(#paint21_linear_2606_26358)" fill-opacity="0.82"/>
<path d="M52.9351 4.11065C52.9351 3.94022 53.0745 3.80078 53.2456 3.80078H55.6579C55.8284 3.80078 55.9682 3.94022 55.9682 4.11065V16.0485C55.9682 16.2189 56.108 16.3584 56.2785 16.3584H58.7762C58.9472 16.3584 59.0864 16.4978 59.0864 16.6683V18.6308C59.0864 18.8012 58.9472 18.9407 58.7762 18.9407H53.2456C53.0745 18.9407 52.9351 18.8012 52.9351 18.6308V4.11065Z" fill="url(#paint22_linear_2606_26358)" fill-opacity="0.82"/>
<path d="M61.2256 18.5998V14.0395C61.2256 13.9853 61.2203 13.9311 61.2076 13.8768L58.9059 4.21395C58.8572 4.0022 59.0144 3.80078 59.232 3.80078H61.5253C61.691 3.80078 61.8303 3.91957 61.8562 4.08225L62.6219 8.73036C62.6272 8.76652 62.6812 8.76652 62.6865 8.73036L63.4516 4.08225C63.4775 3.91957 63.62 3.80078 63.7825 3.80078H66.0684C66.286 3.80078 66.4459 4.0022 66.3945 4.21395L64.1008 13.8768C64.0881 13.9311 64.0828 13.9853 64.0828 14.0395V18.5998C64.0828 18.7857 63.9329 18.9355 63.7465 18.9355H61.5592C61.3728 18.9355 61.2229 18.7857 61.2229 18.5998H61.2256Z" fill="url(#paint23_linear_2606_26358)" fill-opacity="0.82"/>
<path d="M67.2632 18.5998V4.13648C67.2632 3.95055 67.413 3.80078 67.5989 3.80078H71.5865C71.7544 3.80078 71.8968 3.92473 71.9201 4.09L73.0988 12.6347C73.1067 12.6967 73.1973 12.6967 73.2079 12.6347L74.3791 4.09C74.4024 3.92473 74.5443 3.80078 74.7127 3.80078H78.7411C78.9275 3.80078 79.0773 3.95055 79.0773 4.13648V18.5998C79.0773 18.7857 78.9275 18.9355 78.7411 18.9355H76.6416C76.4553 18.9355 76.3054 18.7857 76.3054 18.5998V8.71741C76.3054 8.65031 76.2069 8.64254 76.1969 8.70969L74.6115 18.6514C74.5856 18.8141 74.4437 18.9355 74.2806 18.9355H72.1319C71.9688 18.9355 71.8269 18.8167 71.801 18.6566L70.1124 8.67093C70.1023 8.60638 70.0039 8.61415 70.0039 8.6813V18.5998C70.0039 18.7857 69.854 18.9355 69.6676 18.9355H67.6015C67.4157 18.9355 67.2653 18.7857 67.2653 18.5998H67.2632Z" fill="url(#paint24_linear_2606_26358)" fill-opacity="0.82"/>
<path d="M80.4231 18.8425V3.89633C80.4231 3.84468 80.4644 3.80078 80.5189 3.80078H84.4287C85.2664 3.80078 85.9309 3.98671 86.4223 4.35856C86.9136 4.7304 87.2652 5.26234 87.477 5.94925C87.6893 6.63613 87.7952 7.45731 87.7952 8.40754C87.7952 9.35782 87.7073 10.1222 87.5289 10.8013C87.3505 11.4805 87.0349 12.0073 86.5774 12.3791C86.1194 12.7509 85.4734 12.9369 84.6352 12.9369H83.4978C83.446 12.9369 83.402 12.9782 83.402 13.0324V18.8374C83.402 18.889 83.3607 18.9329 83.3062 18.9329H80.5162C80.4644 18.9329 80.4204 18.8916 80.4204 18.8374L80.4231 18.8425ZM83.402 10.2255H83.5751C84.1391 10.2255 84.4827 10.068 84.6098 9.75291C84.7363 9.43786 84.7983 8.97308 84.7983 8.35847C84.7983 7.78526 84.7363 7.3411 84.6119 7.02864C84.488 6.71618 84.1984 6.55863 83.7382 6.55863H83.4978C83.446 6.55863 83.402 6.59997 83.402 6.65422V10.2255Z" fill="url(#paint25_linear_2606_26358)" fill-opacity="0.82"/>
<path d="M96.2764 19.0725C95.1798 19.0725 94.2982 18.7316 93.6284 18.0499C92.9586 17.3682 92.625 16.4128 92.625 15.1862V8.20372C92.625 6.73695 92.9173 5.61368 93.4992 4.83384C94.0806 4.05399 95.03 3.66406 96.3458 3.66406C97.0622 3.66406 97.7034 3.79576 98.262 4.05915C98.8207 4.32254 99.2628 4.71764 99.5831 5.24184C99.904 5.76605 100.064 6.42708 100.064 7.22505V9.50775C100.064 9.6911 99.9141 9.84089 99.7309 9.84089H97.3831C97.1993 9.84089 97.0495 9.6911 97.0495 9.50775V7.6046C97.0495 7.15272 96.9923 6.84544 96.8758 6.68789C96.7625 6.53039 96.5841 6.45035 96.3431 6.45035C96.0614 6.45035 95.8729 6.55106 95.7745 6.75504C95.6765 6.95906 95.6273 7.23018 95.6273 7.56849V15.1449C95.6273 15.5632 95.6892 15.8576 95.8131 16.0306C95.9375 16.2036 96.1133 16.2888 96.3431 16.2888C96.6021 16.2888 96.7831 16.1829 96.889 15.9712C96.9949 15.7594 97.0495 15.4831 97.0495 15.1449V12.7511C97.0495 12.5677 97.1993 12.418 97.3831 12.418H99.7642C99.9479 12.418 100.098 12.5677 100.098 12.7511V15.2817C100.098 16.6116 99.7616 17.5774 99.0896 18.1764C98.4172 18.7756 97.4784 19.0751 96.2738 19.0751L96.2764 19.0725Z" fill="url(#paint26_linear_2606_26358)" fill-opacity="0.82"/>
<path d="M108.771 19.0725C107.675 19.0725 106.793 18.7316 106.124 18.0499C105.454 17.3682 105.12 16.4128 105.12 15.1862V8.20372C105.12 6.73695 105.412 5.61368 105.994 4.83384C106.576 4.05399 107.525 3.66406 108.841 3.66406C109.557 3.66406 110.199 3.79576 110.757 4.05915C111.315 4.32254 111.758 4.71764 112.078 5.24184C112.399 5.76605 112.559 6.42708 112.559 7.22505V9.50775C112.559 9.6911 112.409 9.84089 112.225 9.84089H109.878C109.694 9.84089 109.544 9.6911 109.544 9.50775V7.6046C109.544 7.15272 109.487 6.84544 109.371 6.68789C109.257 6.53039 109.079 6.45035 108.838 6.45035C108.557 6.45035 108.368 6.55106 108.27 6.75504C108.171 6.95906 108.122 7.23018 108.122 7.56849V15.1449C108.122 15.5632 108.184 15.8576 108.308 16.0306C108.432 16.2036 108.608 16.2888 108.838 16.2888C109.097 16.2888 109.278 16.1829 109.384 15.9712C109.49 15.7594 109.544 15.4831 109.544 15.1449V12.7511C109.544 12.5677 109.694 12.418 109.878 12.418H112.259C112.443 12.418 112.593 12.5677 112.593 12.7511V15.2817C112.593 16.6116 112.257 17.5774 111.584 18.1764C110.912 18.7756 109.973 19.0751 108.768 19.0751L108.771 19.0725Z" fill="url(#paint27_linear_2606_26358)" fill-opacity="0.82"/>
<path d="M117.218 19.0751C116.008 19.0751 115.083 18.7084 114.441 17.9776C113.8 17.2468 113.482 16.1907 113.482 14.8091V7.62013C113.482 6.32381 113.8 5.33996 114.433 4.67115C115.067 3.99976 115.995 3.66406 117.218 3.66406C118.441 3.66406 119.369 3.99976 120.003 4.67115C120.636 5.34255 120.955 6.3264 120.955 7.62013V14.8091C120.955 16.1907 120.634 17.2468 119.995 17.9776C119.354 18.7084 118.428 19.0751 117.218 19.0751ZM117.244 16.2888C117.704 16.2888 117.932 15.8447 117.932 14.9563V7.56847C117.932 6.82216 117.707 6.45033 117.259 6.45033C116.755 6.45033 116.502 6.83253 116.502 7.59427V14.9718C116.502 15.4418 116.559 15.7801 116.675 15.9815C116.789 16.1855 116.98 16.2862 117.244 16.2862V16.2888Z" fill="url(#paint28_linear_2606_26358)" fill-opacity="0.82"/>
<path d="M122.175 18.7367V4.0022C122.175 3.89116 122.266 3.80078 122.377 3.80078H125.128C125.224 3.80078 125.307 3.86793 125.325 3.96347L126.623 10.7058C126.63 10.7445 126.69 10.7394 126.69 10.7006V4.00478C126.69 3.89374 126.78 3.80336 126.892 3.80336H129.418C129.529 3.80336 129.619 3.89374 129.619 4.00478V18.7392C129.619 18.8503 129.529 18.9407 129.418 18.9407H126.822C126.726 18.9407 126.643 18.8735 126.625 18.778L125.208 11.7025C125.2 11.6638 125.141 11.669 125.141 11.7103V18.7392C125.141 18.8503 125.05 18.9407 124.939 18.9407H122.38C122.268 18.9407 122.178 18.8503 122.178 18.7392L122.175 18.7367Z" fill="url(#paint29_linear_2606_26358)" fill-opacity="0.82"/>
<path d="M130.961 18.747V3.9867C130.961 3.88341 131.044 3.80078 131.147 3.80078H133.922C134.012 3.80078 134.09 3.86535 134.106 3.95314L135.443 10.8943C135.445 10.9124 135.473 10.9098 135.473 10.8917V3.9867C135.473 3.88341 135.556 3.80078 135.66 3.80078H138.212C138.315 3.80078 138.398 3.88341 138.398 3.9867V18.747C138.398 18.8503 138.315 18.9329 138.212 18.9329H135.59C135.499 18.9329 135.425 18.8709 135.406 18.7831L133.966 11.5863C133.961 11.5605 133.922 11.5631 133.922 11.5915V18.747C133.922 18.8503 133.839 18.9329 133.736 18.9329H131.147C131.044 18.9329 130.961 18.8503 130.961 18.747Z" fill="url(#paint30_linear_2606_26358)" fill-opacity="0.82"/>
<path d="M139.744 18.7031V4.03319C139.744 3.90407 139.847 3.80078 139.977 3.80078H145.572C145.702 3.80078 145.805 3.90407 145.805 4.03319V6.49154C145.805 6.62064 145.702 6.7239 145.572 6.7239H143.059C142.93 6.7239 142.826 6.82721 142.826 6.95631V9.44045C142.826 9.56956 142.93 9.67287 143.059 9.67287H145.451C145.58 9.67287 145.684 9.77617 145.684 9.90528V12.2861C145.684 12.4153 145.58 12.5185 145.451 12.5185H143.059C142.93 12.5185 142.826 12.6218 142.826 12.7509V15.7516C142.826 15.8807 142.93 15.9839 143.059 15.9839H145.771C145.901 15.9839 146.004 16.0872 146.004 16.2163V18.7005C146.004 18.8296 145.901 18.9329 145.771 18.9329H139.977C139.847 18.9329 139.744 18.8296 139.744 18.7005V18.7031Z" fill="url(#paint31_linear_2606_26358)" fill-opacity="0.82"/>
<path d="M150.533 19.0725C149.437 19.0725 148.555 18.7316 147.886 18.0499C147.216 17.3682 146.882 16.4128 146.882 15.1862V8.20372C146.882 6.73695 147.175 5.61368 147.756 4.83384C148.338 4.05399 149.287 3.66406 150.603 3.66406C151.32 3.66406 151.961 3.79576 152.519 4.05915C153.078 4.32254 153.52 4.71764 153.84 5.24184C154.161 5.76605 154.321 6.42708 154.321 7.22505V9.50775C154.321 9.6911 154.171 9.84089 153.988 9.84089H151.64C151.457 9.84089 151.306 9.6911 151.306 9.50775V7.6046C151.306 7.15272 151.25 6.84544 151.133 6.68789C151.019 6.53039 150.841 6.45035 150.6 6.45035C150.319 6.45035 150.13 6.55106 150.032 6.75504C149.933 6.95906 149.884 7.23018 149.884 7.56849V15.1449C149.884 15.5632 149.947 15.8576 150.07 16.0306C150.194 16.2036 150.371 16.2888 150.6 16.2888C150.859 16.2888 151.04 16.1829 151.146 15.9712C151.252 15.7594 151.306 15.4831 151.306 15.1449V12.7511C151.306 12.5677 151.457 12.418 151.64 12.418H154.022C154.205 12.418 154.355 12.5677 154.355 12.7511V15.2817C154.355 16.6116 154.019 17.5774 153.346 18.1764C152.674 18.7756 151.736 19.0751 150.531 19.0751L150.533 19.0725Z" fill="url(#paint32_linear_2606_26358)" fill-opacity="0.82"/>
<path d="M156.666 18.8116V6.83498C156.666 6.76524 156.609 6.70841 156.54 6.70841H154.99C154.921 6.70841 154.864 6.65162 154.864 6.58189V3.92731C154.864 3.85759 154.921 3.80078 154.99 3.80078H161.37C161.44 3.80078 161.496 3.85759 161.496 3.92731V6.58189C161.496 6.65162 161.44 6.70841 161.37 6.70841H159.821C159.751 6.70841 159.694 6.76524 159.694 6.83498V18.8116C159.694 18.8812 159.637 18.9381 159.567 18.9381H156.787C156.718 18.9381 156.661 18.8812 156.661 18.8116H156.666Z" fill="url(#paint33_linear_2606_26358)" fill-opacity="0.82"/>
</g>
<defs>
<filter id="filter0_i_2606_26358" x="0" y="0" width="38.0576" height="41.8987" filterUnits="userSpaceOnUse" color-interpolation-filters="sRGB">
<feFlood flood-opacity="0" result="BackgroundImageFix"/>
<feBlend mode="normal" in="SourceGraphic" in2="BackgroundImageFix" result="shape"/>
<feColorMatrix in="SourceAlpha" type="matrix" values="0 0 0 0 0 0 0 0 0 0 0 0 0 0 0 0 0 0 127 0" result="hardAlpha"/>
<feOffset dy="3.89873"/>
<feGaussianBlur stdDeviation="1.94936"/>
<feComposite in2="hardAlpha" operator="arithmetic" k2="-1" k3="1"/>
<feColorMatrix type="matrix" values="0 0 0 0 0 0 0 0 0 0 0 0 0 0 0 0 0 0 0.25 0"/>
<feBlend mode="normal" in2="shape" result="effect1_innerShadow_2606_26358"/>
</filter>
<filter id="filter1_i_2606_26358" x="44.2363" y="3.66406" width="117.26" height="31.9189" filterUnits="userSpaceOnUse" color-interpolation-filters="sRGB">
<feFlood flood-opacity="0" result="BackgroundImageFix"/>
<feBlend mode="normal" in="SourceGraphic" in2="BackgroundImageFix" result="shape"/>
<feColorMatrix in="SourceAlpha" type="matrix" values="0 0 0 0 0 0 0 0 0 0 0 0 0 0 0 0 0 0 127 0" result="hardAlpha"/>
<feOffset dy="1.55949"/>
<feGaussianBlur stdDeviation="2.72911"/>
<feComposite in2="hardAlpha" operator="arithmetic" k2="-1" k3="1"/>
<feColorMatrix type="matrix" values="0 0 0 0 0 0 0 0 0 0 0 0 0 0 0 0 0 0 0.14 0"/>
<feBlend mode="normal" in2="shape" result="effect1_innerShadow_2606_26358"/>
</filter>
<linearGradient id="paint0_linear_2606_26358" x1="3.79448" y1="-0.000343889" x2="99.0436" y2="109.268" gradientUnits="userSpaceOnUse">
<stop stop-color="#FBFBFB"/>
<stop offset="1" stop-color="#707070"/>
</linearGradient>
<linearGradient id="paint1_linear_2606_26358" x1="3.7956" y1="1.1292e-06" x2="99.0447" y2="109.268" gradientUnits="userSpaceOnUse">
<stop stop-color="#FBFBFB"/>
<stop offset="1" stop-color="#707070"/>
</linearGradient>
<linearGradient id="paint2_linear_2606_26358" x1="3.79435" y1="-0.00331878" x2="99.0435" y2="109.265" gradientUnits="userSpaceOnUse">
<stop stop-color="#FBFBFB"/>
<stop offset="1" stop-color="#707070"/>
</linearGradient>
<linearGradient id="paint3_linear_2606_26358" x1="3.79354" y1="0.00330045" x2="99.0427" y2="109.271" gradientUnits="userSpaceOnUse">
<stop stop-color="#FBFBFB"/>
<stop offset="1" stop-color="#707070"/>
</linearGradient>
<linearGradient id="paint4_linear_2606_26358" x1="3.79312" y1="-0.00180802" x2="99.0422" y2="109.266" gradientUnits="userSpaceOnUse">
<stop stop-color="#FBFBFB"/>
<stop offset="1" stop-color="#707070"/>
</linearGradient>
<linearGradient id="paint5_linear_2606_26358" x1="3.79528" y1="0.00220942" x2="99.0444" y2="109.27" gradientUnits="userSpaceOnUse">
<stop stop-color="#FBFBFB"/>
<stop offset="1" stop-color="#707070"/>
</linearGradient>
<linearGradient id="paint6_linear_2606_26358" x1="3.7936" y1="-0.000204722" x2="99.0427" y2="109.268" gradientUnits="userSpaceOnUse">
<stop stop-color="#FBFBFB"/>
<stop offset="1" stop-color="#707070"/>
</linearGradient>
<linearGradient id="paint7_linear_2606_26358" x1="3.79388" y1="-0.00154288" x2="99.0429" y2="109.266" gradientUnits="userSpaceOnUse">
<stop stop-color="#FBFBFB"/>
<stop offset="1" stop-color="#707070"/>
</linearGradient>
<linearGradient id="paint8_linear_2606_26358" x1="3.79427" y1="-0.000636093" x2="99.0434" y2="109.267" gradientUnits="userSpaceOnUse">
<stop stop-color="#FBFBFB"/>
<stop offset="1" stop-color="#707070"/>
</linearGradient>
<linearGradient id="paint9_linear_2606_26358" x1="3.79523" y1="0.000336495" x2="99.0443" y2="109.268" gradientUnits="userSpaceOnUse">
<stop stop-color="#FBFBFB"/>
<stop offset="1" stop-color="#707070"/>
</linearGradient>
<linearGradient id="paint10_linear_2606_26358" x1="3.79373" y1="0.00218844" x2="99.0428" y2="109.27" gradientUnits="userSpaceOnUse">
<stop stop-color="#FBFBFB"/>
<stop offset="1" stop-color="#707070"/>
</linearGradient>
<linearGradient id="paint11_linear_2606_26358" x1="3.79322" y1="-0.000946291" x2="99.0423" y2="109.267" gradientUnits="userSpaceOnUse">
<stop stop-color="#FBFBFB"/>
<stop offset="1" stop-color="#707070"/>
</linearGradient>
<linearGradient id="paint12_linear_2606_26358" x1="3.7916" y1="0.00197441" x2="99.0407" y2="109.27" gradientUnits="userSpaceOnUse">
<stop stop-color="#FBFBFB"/>
<stop offset="1" stop-color="#707070"/>
</linearGradient>
<linearGradient id="paint13_linear_2606_26358" x1="3.7931" y1="0.000802673" x2="99.0422" y2="109.269" gradientUnits="userSpaceOnUse">
<stop stop-color="#FBFBFB"/>
<stop offset="1" stop-color="#707070"/>
</linearGradient>
<linearGradient id="paint14_linear_2606_26358" x1="3.79212" y1="0.00158713" x2="99.0413" y2="109.269" gradientUnits="userSpaceOnUse">
<stop stop-color="#FBFBFB"/>
<stop offset="1" stop-color="#707070"/>
</linearGradient>
<linearGradient id="paint15_linear_2606_26358" x1="3.7941" y1="0.00247028" x2="99.0432" y2="109.27" gradientUnits="userSpaceOnUse">
<stop stop-color="#FBFBFB"/>
<stop offset="1" stop-color="#707070"/>
</linearGradient>
<linearGradient id="paint16_linear_2606_26358" x1="28.2067" y1="-28.4596" x2="171.758" y2="49.0411" gradientUnits="userSpaceOnUse">
<stop stop-color="#FBF6F6"/>
<stop offset="1" stop-color="#D3D3D3"/>
</linearGradient>
<linearGradient id="paint17_linear_2606_26358" x1="28.2054" y1="-28.4587" x2="171.757" y2="49.042" gradientUnits="userSpaceOnUse">
<stop stop-color="#FBF6F6"/>
<stop offset="1" stop-color="#D3D3D3"/>
</linearGradient>
<linearGradient id="paint18_linear_2606_26358" x1="28.2068" y1="-28.4583" x2="171.758" y2="49.0424" gradientUnits="userSpaceOnUse">
<stop stop-color="#FBF6F6"/>
<stop offset="1" stop-color="#D3D3D3"/>
</linearGradient>
<linearGradient id="paint19_linear_2606_26358" x1="28.2051" y1="-28.46" x2="171.756" y2="49.0407" gradientUnits="userSpaceOnUse">
<stop stop-color="#FBF6F6"/>
<stop offset="1" stop-color="#D3D3D3"/>
</linearGradient>
<linearGradient id="paint20_linear_2606_26358" x1="28.2052" y1="-28.4573" x2="171.757" y2="49.0436" gradientUnits="userSpaceOnUse">
<stop stop-color="#FBF6F6"/>
<stop offset="1" stop-color="#D3D3D3"/>
</linearGradient>
<linearGradient id="paint21_linear_2606_26358" x1="28.2046" y1="-28.4569" x2="171.756" y2="49.0438" gradientUnits="userSpaceOnUse">
<stop stop-color="#FBF6F6"/>
<stop offset="1" stop-color="#D3D3D3"/>
</linearGradient>
<linearGradient id="paint22_linear_2606_26358" x1="28.2074" y1="-28.457" x2="171.759" y2="49.0437" gradientUnits="userSpaceOnUse">
<stop stop-color="#FBF6F6"/>
<stop offset="1" stop-color="#D3D3D3"/>
</linearGradient>
<linearGradient id="paint23_linear_2606_26358" x1="28.2053" y1="-28.457" x2="171.757" y2="49.0437" gradientUnits="userSpaceOnUse">
<stop stop-color="#FBF6F6"/>
<stop offset="1" stop-color="#D3D3D3"/>
</linearGradient>
<linearGradient id="paint24_linear_2606_26358" x1="28.2051" y1="-28.457" x2="171.756" y2="49.0437" gradientUnits="userSpaceOnUse">
<stop stop-color="#FBF6F6"/>
<stop offset="1" stop-color="#D3D3D3"/>
</linearGradient>
<linearGradient id="paint25_linear_2606_26358" x1="28.2064" y1="-28.457" x2="171.758" y2="49.0437" gradientUnits="userSpaceOnUse">
<stop stop-color="#FBF6F6"/>
<stop offset="1" stop-color="#D3D3D3"/>
</linearGradient>
<linearGradient id="paint26_linear_2606_26358" x1="28.206" y1="-28.4595" x2="171.757" y2="49.0413" gradientUnits="userSpaceOnUse">
<stop stop-color="#FBF6F6"/>
<stop offset="1" stop-color="#D3D3D3"/>
</linearGradient>
<linearGradient id="paint27_linear_2606_26358" x1="28.2066" y1="-28.4595" x2="171.758" y2="49.0413" gradientUnits="userSpaceOnUse">
<stop stop-color="#FBF6F6"/>
<stop offset="1" stop-color="#D3D3D3"/>
</linearGradient>
<linearGradient id="paint28_linear_2606_26358" x1="28.2062" y1="-28.4569" x2="171.757" y2="49.0438" gradientUnits="userSpaceOnUse">
<stop stop-color="#FBF6F6"/>
<stop offset="1" stop-color="#D3D3D3"/>
</linearGradient>
<linearGradient id="paint29_linear_2606_26358" x1="28.2035" y1="-28.457" x2="171.755" y2="49.0438" gradientUnits="userSpaceOnUse">
<stop stop-color="#FBF6F6"/>
<stop offset="1" stop-color="#D3D3D3"/>
</linearGradient>
<linearGradient id="paint30_linear_2606_26358" x1="28.2058" y1="-28.4596" x2="171.757" y2="49.0412" gradientUnits="userSpaceOnUse">
<stop stop-color="#FBF6F6"/>
<stop offset="1" stop-color="#D3D3D3"/>
</linearGradient>
<linearGradient id="paint31_linear_2606_26358" x1="28.2045" y1="-28.457" x2="171.756" y2="49.0439" gradientUnits="userSpaceOnUse">
<stop stop-color="#FBF6F6"/>
<stop offset="1" stop-color="#D3D3D3"/>
</linearGradient>
<linearGradient id="paint32_linear_2606_26358" x1="28.2037" y1="-28.4595" x2="171.755" y2="49.0413" gradientUnits="userSpaceOnUse">
<stop stop-color="#FBF6F6"/>
<stop offset="1" stop-color="#D3D3D3"/>
</linearGradient>
<linearGradient id="paint33_linear_2606_26358" x1="28.2056" y1="-28.457" x2="171.757" y2="49.0437" gradientUnits="userSpaceOnUse">
<stop stop-color="#FBF6F6"/>
<stop offset="1" stop-color="#D3D3D3"/>
</linearGradient>
</defs>
</svg>
