<?xml version="1.0" encoding="UTF-8"?>
<svg xmlns="http://www.w3.org/2000/svg" viewBox="0 0 1109.39 446.27">
  <defs>
    <style>
      .cls-1 {
        fill: #fff;
      }

      .cls-2 {
        fill: #121212;
      }
    </style>
  </defs>
  <g id="noir">
    <g>
      <g>
        <path class="cls-2" d="M243.91,89.39l-20.23,10.83c-2.91,1.56-6.49,1.02-8.81-1.33l-51.46-51.95c-2.01-2.03-2.78-4.97-2.02-7.72l6.11-22.23c1.5-5.46,8.31-7.32,12.38-3.38l34.96,33.87c2.32,2.25,5.84,2.75,8.69,1.23l13.64-7.27c4.97-2.65,10.96.95,10.96,6.58v34.34c0,2.94-1.62,5.64-4.21,7.02Z"/>
        <circle class="cls-2" cx="218.73" cy="19.03" r="14.66"/>
        <path class="cls-2" d="M209.57,218.48l20.23-10.83c2.91-1.56,6.49-1.02,8.81,1.33l51.46,51.95c2.01,2.03,2.78,4.97,2.02,7.72l-6.11,22.23c-1.5,5.46-8.31,7.32-12.38,3.38l-34.96-33.87c-2.32-2.25-5.84-2.75-8.69-1.23l-13.64,7.27c-4.97,2.65-10.96-.95-10.96-6.58v-34.34c0-2.94,1.62-5.64,4.21-7.02Z"/>
        <circle class="cls-2" cx="234.75" cy="288.84" r="14.66"/>
        <path class="cls-2" d="M291.28,171.11l-10.83-20.23c-1.56-2.91-1.02-6.49,1.33-8.81l51.95-51.46c2.03-2.01,4.97-2.78,7.72-2.02l22.23,6.11c5.46,1.5,7.32,8.31,3.38,12.38l-33.87,34.96c-2.25,2.32-2.75,5.84-1.23,8.69l7.27,13.64c2.65,4.97-.95,10.96-6.58,10.96h-34.34c-2.94,0-5.64-1.62-7.02-4.21Z"/>
        <circle class="cls-2" cx="361.65" cy="145.92" r="14.66"/>
        <path class="cls-2" d="M162.2,136.76l10.83,20.23c1.56,2.91,1.02,6.49-1.33,8.81l-51.95,51.46c-2.03,2.01-4.97,2.78-7.72,2.02l-22.23-6.11c-5.46-1.5-7.32-8.31-3.38-12.38l33.87-34.96c2.25-2.32,2.75-5.84,1.23-8.69l-7.27-13.64c-2.65-4.97.95-10.96,6.58-10.96h34.34c2.94,0,5.64,1.62,7.02,4.21Z"/>
        <circle class="cls-2" cx="91.84" cy="161.94" r="14.66"/>
        <path class="cls-2" d="M260.24,211.71l6.65-21.96c.96-3.16,3.87-5.31,7.17-5.3l73.12.35c2.85.01,5.48,1.55,6.89,4.03l11.4,20.04c2.8,4.92-.7,11.05-6.36,11.14l-48.67.77c-3.24.05-6.07,2.18-7.01,5.28l-4.5,14.78c-1.64,5.38-8.42,7.08-12.4,3.1l-24.28-24.28c-2.08-2.08-2.84-5.13-1.99-7.94Z"/>
        <circle class="cls-2" cx="327.8" cy="243.66" r="14.66"/>
        <path class="cls-2" d="M193.25,96.15l-6.65,21.96c-.96,3.16-3.87,5.31-7.17,5.3l-73.12-.35c-2.85-.01-5.48-1.55-6.89-4.03l-11.4-20.04c-2.8-4.92.7-11.05,6.36-11.14l48.67-.77c3.24-.05,6.07-2.18,7.01-5.28l4.5-14.78c1.64-5.38,8.42-7.08,12.4-3.1l24.28,24.28c2.08,2.08,2.84,5.13,1.99,7.94Z"/>
        <circle class="cls-2" cx="125.69" cy="64.21" r="14.66"/>
        <path class="cls-2" d="M284.52,120.44l-21.96-6.65c-3.16-.96-5.31-3.87-5.3-7.17l.35-73.12c.01-2.85,1.55-5.48,4.03-6.89l20.04-11.4c4.92-2.8,11.05.7,11.14,6.36l.77,48.67c.05,3.24,2.18,6.07,5.28,7.01l14.78,4.5c5.38,1.64,7.08,8.42,3.1,12.4l-24.28,24.28c-2.08,2.08-5.13,2.84-7.94,1.99Z"/>
        <circle class="cls-2" cx="316.47" cy="52.88" r="14.66"/>
        <path class="cls-2" d="M168.96,187.43l21.96,6.65c3.16.96,5.31,3.87,5.3,7.17l-.35,73.12c-.01,2.85-1.55,5.48-4.03,6.89l-20.04,11.4c-4.92,2.8-11.05-.7-11.14-6.36l-.77-48.67c-.05-3.24-2.18-6.07-5.28-7.01l-14.78-4.5c-5.38-1.64-7.08-8.42-3.1-12.4l24.28-24.28c2.08-2.08,5.13-2.84,7.94-1.99Z"/>
        <circle class="cls-2" cx="137.01" cy="254.99" r="14.66"/>
      </g>
      <g>
        <g>
          <path id="Tracé_131-3" data-name="Tracé 131-3" class="cls-2" d="M178.16,445.88v-2.06c-.03-1.97.31-3.93.99-5.78.65-1.69,1.51-3.29,2.57-4.76,1.05-1.46,2.15-2.9,3.31-4.31,1.13-1.37,2.21-2.79,3.23-4.24,1.03-1.46,1.87-3.04,2.5-4.71.67-1.83,1-3.76.97-5.71.02-.89-.13-1.78-.45-2.61-.3-.73-.93-1.09-1.88-1.09-1.44,0-2.16,1.28-2.16,3.85v4.39c0,.49-.4.88-.88.88h-7.36c-.47,0-.86-.37-.88-.84,0-.14-.01-.29-.02-.44-.02-.47-.04-.93-.04-1.38,0-3.11.33-5.75.98-7.92.65-2.17,1.81-3.82,3.47-4.96,1.66-1.14,4-1.71,7.01-1.71,3.58,0,6.37,1.01,8.36,3.02,1.99,2.01,2.98,4.89,2.98,8.62,0,2.54-.33,4.76-.98,6.67-.62,1.85-1.5,3.6-2.6,5.21-1.08,1.56-2.27,3.12-3.56,4.68-.92,1.1-1.8,2.22-2.66,3.36-.87,1.16-1.63,2.39-2.27,3.68h10.9c.49,0,.88.4.88.88h0v6.38c0,.49-.4.88-.88.88h-21.53Z"/>
          <path id="Tracé_132-3" data-name="Tracé 132-3" class="cls-2" d="M213.9,446.27c-3.65,0-6.47-1.02-8.46-3.07-1.99-2.05-2.98-4.99-2.98-8.84v-19.49c0-4.06.95-7.17,2.84-9.34,1.89-2.17,4.76-3.25,8.61-3.25,3.86,0,6.74,1.08,8.62,3.25,1.88,2.17,2.82,5.28,2.82,9.34v19.49c0,3.85-.99,6.79-2.97,8.84s-4.8,3.07-8.47,3.07M213.9,438.31c.65.01,1.26-.34,1.57-.91.38-.61.57-1.32.56-2.04v-21.34c.01-.9-.1-1.8-.33-2.66-.22-.76-.82-1.14-1.8-1.14-.98,0-1.58.38-1.8,1.14-.24.87-.35,1.76-.33,2.66v21.34c0,.72.19,1.43.58,2.04.31.57.91.91,1.56.91"/>
          <path id="Tracé_133-3" data-name="Tracé 133-3" class="cls-2" d="M227.85,445.88v-2.06c-.03-1.97.31-3.93.99-5.78.65-1.69,1.51-3.29,2.57-4.76,1.05-1.46,2.15-2.9,3.31-4.31,1.13-1.37,2.21-2.79,3.23-4.24,1.03-1.46,1.87-3.04,2.5-4.71.67-1.83,1-3.76.97-5.71.02-.89-.13-1.78-.45-2.61-.3-.73-.93-1.09-1.88-1.09-1.44,0-2.16,1.28-2.16,3.85v4.39c0,.49-.4.88-.88.88h-7.36c-.47,0-.86-.37-.88-.84,0-.14-.01-.29-.02-.44-.02-.47-.04-.93-.04-1.37,0-3.11.33-5.75.98-7.92.65-2.17,1.81-3.82,3.48-4.96,1.66-1.14,4-1.71,7.01-1.71,3.58,0,6.37,1.01,8.36,3.02,1.99,2.01,2.98,4.89,2.98,8.62,0,2.54-.33,4.76-.98,6.67-.62,1.85-1.5,3.6-2.6,5.21-1.08,1.56-2.27,3.12-3.56,4.68-.92,1.1-1.8,2.22-2.66,3.36-.87,1.16-1.63,2.39-2.27,3.68h10.9c.49,0,.88.4.88.88h0v6.38c0,.49-.4.88-.88.88h-21.53Z"/>
          <path id="Tracé_134-3" data-name="Tracé 134-3" class="cls-2" d="M264.16,446.27c-3,0-5.34-.51-7.03-1.53s-2.89-2.57-3.58-4.63c-.7-2.06-1.04-4.63-1.04-7.71v-11.69c-.02-2.65.11-5.3.38-7.93.25-2.29.78-4.21,1.58-5.77.78-1.53,2.04-2.77,3.58-3.54,1.59-.8,3.71-1.2,6.36-1.2,1.74-.01,3.46.31,5.08.95,1.5.58,2.82,1.55,3.81,2.82.97,1.25,1.45,2.82,1.45,4.7v3.78c0,.49-.4.88-.88.88h-6.56c-.49,0-.88-.4-.88-.88h0c0-.72-.04-1.44-.11-2.16-.05-.63-.23-1.24-.55-1.79-.29-.47-.79-.71-1.5-.71-.97,0-1.64.27-2.01.8s-.56,1.3-.56,2.3v8.67c.42-.78,1.06-1.43,1.84-1.85.92-.49,1.95-.73,3-.7,2.39,0,4.23.48,5.51,1.44,1.28.96,2.17,2.39,2.66,4.28.49,1.9.74,4.27.74,7.12,0,2.88-.35,5.4-1.06,7.55-.7,2.15-1.88,3.83-3.52,5.02-1.65,1.19-3.88,1.79-6.69,1.79M263.84,438.31c1.01,0,1.62-.43,1.82-1.29.22-1.09.32-2.19.29-3.3v-3.49c0-2.36-.66-3.54-1.99-3.54-1.52,0-2.28,1.02-2.28,3.07v5.35c0,2.13.72,3.19,2.16,3.19"/>
        </g>
        <g>
          <path class="cls-2" d="M171.3,385.47v-39.69c0-1.24,1-2.24,2.24-2.24h7.03c1.24,0,2.24,1,2.24,2.24v39.69c0,1.24-1,2.24-2.24,2.24h-7.03c-1.24,0-2.24-1-2.24-2.24Z"/>
          <path class="cls-2" d="M177.06,328.73c-3.18,0-5.76,2.58-5.76,5.76s2.58,5.75,5.76,5.75,5.76-2.58,5.76-5.75-2.58-5.76-5.76-5.76Z"/>
          <path class="cls-2" d="M14.45,387.94c-4.68,0-8.26-1.42-10.74-4.25-2.48-2.83-3.71-6.92-3.71-12.27v-27.84c0-5.02,1.23-8.83,3.68-11.42,2.45-2.6,6.04-3.9,10.77-3.9s8.32,1.3,10.77,3.9c2.45,2.6,3.68,6.41,3.68,11.42v27.84c0,5.35-1.24,9.44-3.71,12.27-2.48,2.83-6.06,4.25-10.74,4.25ZM14.55,377.15c1.78,0,2.66-1.72,2.66-5.16v-28.61c0-2.89-.87-4.33-2.6-4.33-1.95,0-2.93,1.48-2.93,4.43v28.57c0,1.82.22,3.13.67,3.91.44.79,1.18,1.18,2.2,1.18Z"/>
          <path class="cls-2" d="M33.64,386.21v-56.22c0-.66.54-1.2,1.2-1.2h9.33c.66,0,1.2.54,1.2,1.2v46.23c0,.66.54,1.2,1.2,1.2h9.66c.66,0,1.2.54,1.2,1.2v7.6c0,.66-.54,1.2-1.2,1.2h-21.39c-.66,0-1.2-.54-1.2-1.2Z"/>
          <path class="cls-2" d="M65.71,386.1v-17.66c0-.21-.02-.42-.07-.63l-8.9-37.42c-.19-.82.42-1.6,1.26-1.6h8.87c.64,0,1.18.46,1.28,1.09l2.96,18c.02.14.23.14.25,0l2.96-18c.1-.63.65-1.09,1.28-1.09h8.84c.84,0,1.46.78,1.26,1.6l-8.87,37.42c-.05.21-.07.42-.07.63v17.66c0,.72-.58,1.3-1.3,1.3h-8.46c-.72,0-1.3-.58-1.3-1.3Z"/>
          <path class="cls-2" d="M89.05,386.1v-56.01c0-.72.58-1.3,1.3-1.3h15.42c.65,0,1.2.48,1.29,1.12l4.56,33.09c.03.24.38.24.42,0l4.53-33.09c.09-.64.64-1.12,1.29-1.12h15.58c.72,0,1.3.58,1.3,1.3v56.01c0,.72-.58,1.3-1.3,1.3h-8.12c-.72,0-1.3-.58-1.3-1.3v-38.27c0-.26-.38-.29-.42-.03l-6.13,38.5c-.1.63-.65,1.1-1.28,1.1h-8.31c-.63,0-1.18-.46-1.28-1.08l-6.53-38.67c-.04-.25-.42-.22-.42.04v38.41c0,.72-.58,1.3-1.3,1.3h-7.99c-.72,0-1.3-.58-1.3-1.3Z"/>
          <path class="cls-2" d="M139.94,387.04v-57.88c0-.2.16-.37.37-.37h15.12c3.24,0,5.81.72,7.71,2.16,1.9,1.44,3.26,3.5,4.08,6.16.82,2.66,1.23,5.84,1.23,9.52s-.34,6.64-1.03,9.27c-.69,2.63-1.91,4.67-3.68,6.11-1.77,1.44-4.27,2.16-7.51,2.16h-4.4c-.2,0-.37.16-.37.37v22.48c0,.2-.16.37-.37.37h-10.79c-.2,0-.37-.16-.37-.37ZM151.46,353.67h.67c2.18,0,3.51-.61,4-1.83.49-1.22.73-3.02.73-5.4,0-2.22-.24-3.94-.72-5.15-.48-1.21-1.6-1.82-3.38-1.82h-.93c-.2,0-.37.16-.37.37v13.82Z"/>
          <path class="cls-2" d="M201.25,387.94c-4.24,0-7.65-1.32-10.24-3.96-2.59-2.64-3.88-6.34-3.88-11.09v-27.04c0-5.68,1.13-10.03,3.38-13.05,2.25-3.02,5.92-4.53,11.01-4.53,2.77,0,5.25.51,7.41,1.53,2.16,1.02,3.87,2.55,5.11,4.58,1.24,2.03,1.86,4.59,1.86,7.68v8.84c0,.71-.58,1.29-1.29,1.29h-9.08c-.71,0-1.29-.58-1.29-1.29v-7.37c0-1.75-.22-2.94-.67-3.55-.44-.61-1.13-.92-2.06-.92-1.09,0-1.82.39-2.2,1.18-.38.79-.57,1.84-.57,3.15v29.34c0,1.62.24,2.76.72,3.43.48.67,1.16,1,2.05,1,1,0,1.7-.41,2.11-1.23.41-.82.62-1.89.62-3.2v-9.27c0-.71.58-1.29,1.29-1.29h9.21c.71,0,1.29.58,1.29,1.29v9.8c0,5.15-1.3,8.89-3.9,11.21-2.6,2.32-6.23,3.48-10.89,3.48Z"/>
          <path class="cls-2" d="M249.57,387.94c-4.24,0-7.65-1.32-10.24-3.96-2.59-2.64-3.88-6.34-3.88-11.09v-27.04c0-5.68,1.13-10.03,3.38-13.05,2.25-3.02,5.92-4.53,11.01-4.53,2.77,0,5.25.51,7.41,1.53,2.16,1.02,3.87,2.55,5.11,4.58,1.24,2.03,1.86,4.59,1.86,7.68v8.84c0,.71-.58,1.29-1.29,1.29h-9.08c-.71,0-1.29-.58-1.29-1.29v-7.37c0-1.75-.22-2.94-.67-3.55-.44-.61-1.13-.92-2.06-.92-1.09,0-1.82.39-2.2,1.18-.38.79-.57,1.84-.57,3.15v29.34c0,1.62.24,2.76.72,3.43.48.67,1.16,1,2.05,1,1,0,1.7-.41,2.11-1.23.41-.82.62-1.89.62-3.2v-9.27c0-.71.58-1.29,1.29-1.29h9.21c.71,0,1.29.58,1.29,1.29v9.8c0,5.15-1.3,8.89-3.9,11.21-2.6,2.32-6.23,3.48-10.89,3.48Z"/>
          <path class="cls-2" d="M282.24,387.94c-4.68,0-8.26-1.42-10.74-4.25-2.48-2.83-3.71-6.92-3.71-12.27v-27.84c0-5.02,1.23-8.83,3.68-11.42,2.45-2.6,6.04-3.9,10.77-3.9s8.32,1.3,10.77,3.9c2.45,2.6,3.68,6.41,3.68,11.42v27.84c0,5.35-1.24,9.44-3.71,12.27-2.48,2.83-6.06,4.25-10.74,4.25ZM282.34,377.15c1.78,0,2.66-1.72,2.66-5.16v-28.61c0-2.89-.87-4.33-2.6-4.33-1.95,0-2.93,1.48-2.93,4.43v28.57c0,1.82.22,3.13.67,3.91.44.79,1.18,1.18,2.2,1.18Z"/>
          <path class="cls-2" d="M301.42,386.63v-57.06c0-.43.35-.78.78-.78h10.64c.37,0,.69.26.76.63l5.02,26.11c.03.15.26.13.26-.02v-25.93c0-.43.35-.78.78-.78h9.77c.43,0,.78.35.78.78v57.06c0,.43-.35.78-.78.78h-10.04c-.37,0-.69-.26-.76-.63l-5.48-27.4c-.03-.15-.26-.13-.26.03v27.22c0,.43-.35.78-.78.78h-9.9c-.43,0-.78-.35-.78-.78Z"/>
          <path class="cls-2" d="M335.39,386.68v-57.16c0-.4.32-.72.72-.72h10.73c.35,0,.65.25.71.59l5.17,26.88c.01.07.12.06.12-.01v-26.74c0-.4.32-.72.72-.72h9.87c.4,0,.72.32.72.72v57.16c0,.4-.32.72-.72.72h-10.14c-.35,0-.64-.24-.71-.58l-5.57-27.87c-.02-.1-.17-.09-.17.02v27.71c0,.4-.32.72-.72.72h-10.01c-.4,0-.72-.32-.72-.72Z"/>
          <path class="cls-2" d="M369.36,386.5v-56.81c0-.5.4-.9.9-.9h21.64c.5,0,.9.4.9.9v9.52c0,.5-.4.9-.9.9h-9.72c-.5,0-.9.4-.9.9v9.62c0,.5.4.9.9.9h9.25c.5,0,.9.4.9.9v9.22c0,.5-.4.9-.9.9h-9.25c-.5,0-.9.4-.9.9v11.62c0,.5.4.9.9.9h10.49c.5,0,.9.4.9.9v9.62c0,.5-.4.9-.9.9h-22.41c-.5,0-.9-.4-.9-.9Z"/>
          <path class="cls-2" d="M411.09,387.94c-4.24,0-7.65-1.32-10.24-3.96-2.59-2.64-3.88-6.34-3.88-11.09v-27.04c0-5.68,1.13-10.03,3.38-13.05,2.25-3.02,5.92-4.53,11.01-4.53,2.77,0,5.25.51,7.41,1.53,2.16,1.02,3.87,2.55,5.11,4.58,1.24,2.03,1.86,4.59,1.86,7.68v8.84c0,.71-.58,1.29-1.29,1.29h-9.08c-.71,0-1.29-.58-1.29-1.29v-7.37c0-1.75-.22-2.94-.67-3.55-.44-.61-1.13-.92-2.06-.92-1.09,0-1.82.39-2.2,1.18-.38.79-.57,1.84-.57,3.15v29.34c0,1.62.24,2.76.72,3.43.48.67,1.16,1,2.05,1,1,0,1.7-.41,2.11-1.23.41-.82.62-1.89.62-3.2v-9.27c0-.71.58-1.29,1.29-1.29h9.21c.71,0,1.29.58,1.29,1.29v9.8c0,5.15-1.3,8.89-3.9,11.21-2.6,2.32-6.23,3.48-10.89,3.48Z"/>
          <path class="cls-2" d="M434.8,386.92v-46.38c0-.27-.22-.49-.49-.49h-5.99c-.27,0-.49-.22-.49-.49v-10.28c0-.27.22-.49.49-.49h24.67c.27,0,.49.22.49.49v10.28c0,.27-.22.49-.49.49h-5.99c-.27,0-.49.22-.49.49v46.38c0,.27-.22.49-.49.49h-10.75c-.27,0-.49-.22-.49-.49Z"/>
        </g>
      </g>
    </g>
  </g>
  <g id="blanc">
    <g>
      <g>
        <path class="cls-1" d="M899.82,89.39l-20.23,10.83c-2.91,1.56-6.49,1.02-8.81-1.33l-51.46-51.95c-2.01-2.03-2.78-4.97-2.02-7.72l6.11-22.23c1.5-5.46,8.31-7.32,12.38-3.38l34.96,33.87c2.32,2.25,5.84,2.75,8.69,1.23l13.64-7.27c4.97-2.65,10.96.95,10.96,6.58v34.34c0,2.94-1.62,5.64-4.21,7.02Z"/>
        <circle class="cls-1" cx="874.64" cy="19.03" r="14.66"/>
        <path class="cls-1" d="M865.48,218.48l20.23-10.83c2.91-1.56,6.49-1.02,8.81,1.33l51.46,51.95c2.01,2.03,2.78,4.97,2.02,7.72l-6.11,22.23c-1.5,5.46-8.31,7.32-12.38,3.38l-34.96-33.87c-2.32-2.25-5.84-2.75-8.69-1.23l-13.64,7.27c-4.97,2.65-10.96-.95-10.96-6.58v-34.34c0-2.94,1.62-5.64,4.21-7.02Z"/>
        <circle class="cls-1" cx="890.66" cy="288.84" r="14.66"/>
        <path class="cls-1" d="M947.19,171.11l-10.83-20.23c-1.56-2.91-1.02-6.49,1.33-8.81l51.95-51.46c2.03-2.01,4.97-2.78,7.72-2.02l22.23,6.11c5.46,1.5,7.32,8.31,3.38,12.38l-33.87,34.96c-2.25,2.32-2.75,5.84-1.23,8.69l7.27,13.64c2.65,4.97-.95,10.96-6.58,10.96h-34.34c-2.94,0-5.64-1.62-7.02-4.21Z"/>
        <circle class="cls-1" cx="1017.55" cy="145.92" r="14.66"/>
        <path class="cls-1" d="M818.11,136.76l10.83,20.23c1.56,2.91,1.02,6.49-1.33,8.81l-51.95,51.46c-2.03,2.01-4.97,2.78-7.72,2.02l-22.23-6.11c-5.46-1.5-7.32-8.31-3.38-12.38l33.87-34.96c2.25-2.32,2.75-5.84,1.23-8.69l-7.27-13.64c-2.65-4.97.95-10.96,6.58-10.96h34.34c2.94,0,5.64,1.62,7.02,4.21Z"/>
        <circle class="cls-1" cx="747.75" cy="161.94" r="14.66"/>
        <path class="cls-1" d="M916.15,211.71l6.65-21.96c.96-3.16,3.87-5.31,7.17-5.3l73.12.35c2.85.01,5.48,1.55,6.89,4.03l11.4,20.04c2.8,4.92-.7,11.05-6.36,11.14l-48.67.77c-3.24.05-6.07,2.18-7.01,5.28l-4.5,14.78c-1.64,5.38-8.42,7.08-12.4,3.1l-24.28-24.28c-2.08-2.08-2.84-5.13-1.99-7.94Z"/>
        <circle class="cls-1" cx="983.7" cy="243.66" r="14.66"/>
        <path class="cls-1" d="M849.15,96.15l-6.65,21.96c-.96,3.16-3.87,5.31-7.17,5.3l-73.12-.35c-2.85-.01-5.48-1.55-6.89-4.03l-11.4-20.04c-2.8-4.92.7-11.05,6.36-11.14l48.67-.77c3.24-.05,6.07-2.18,7.01-5.28l4.5-14.78c1.64-5.38,8.42-7.08,12.4-3.1l24.28,24.28c2.08,2.08,2.84,5.13,1.99,7.94Z"/>
        <circle class="cls-1" cx="781.59" cy="64.21" r="14.66"/>
        <path class="cls-1" d="M940.43,120.44l-21.96-6.65c-3.16-.96-5.31-3.87-5.3-7.17l.35-73.12c.01-2.85,1.55-5.48,4.03-6.89l20.04-11.4c4.92-2.8,11.05.7,11.14,6.36l.77,48.67c.05,3.24,2.18,6.07,5.28,7.01l14.78,4.5c5.38,1.64,7.08,8.42,3.1,12.4l-24.28,24.28c-2.08,2.08-5.13,2.84-7.94,1.99Z"/>
        <circle class="cls-1" cx="972.38" cy="52.88" r="14.66"/>
        <path class="cls-1" d="M824.87,187.43l21.96,6.65c3.16.96,5.31,3.87,5.3,7.17l-.35,73.12c-.01,2.85-1.55,5.48-4.03,6.89l-20.04,11.4c-4.92,2.8-11.05-.7-11.14-6.36l-.77-48.67c-.05-3.24-2.18-6.07-5.28-7.01l-14.78-4.5c-5.38-1.64-7.08-8.42-3.1-12.4l24.28-24.28c2.08-2.08,5.13-2.84,7.94-1.99Z"/>
        <circle class="cls-1" cx="792.92" cy="254.99" r="14.66"/>
      </g>
      <g>
        <g>
          <path id="Tracé_131-3-2" data-name="Tracé 131-3" class="cls-1" d="M834.06,445.88v-2.06c-.03-1.97.31-3.93.99-5.78.65-1.69,1.51-3.29,2.57-4.76,1.05-1.46,2.15-2.9,3.31-4.31,1.13-1.37,2.21-2.79,3.23-4.24,1.03-1.46,1.87-3.04,2.5-4.71.67-1.83,1-3.76.97-5.71.02-.89-.13-1.78-.45-2.61-.3-.73-.93-1.09-1.88-1.09-1.44,0-2.16,1.28-2.16,3.85v4.39c0,.49-.4.88-.88.88h-7.36c-.47,0-.86-.37-.88-.84,0-.14-.01-.29-.02-.44-.02-.47-.04-.93-.04-1.38,0-3.11.33-5.75.98-7.92.65-2.17,1.81-3.82,3.47-4.96,1.66-1.14,4-1.71,7.01-1.71,3.58,0,6.37,1.01,8.36,3.02,1.99,2.01,2.98,4.89,2.98,8.62,0,2.54-.33,4.76-.98,6.67-.62,1.85-1.5,3.6-2.6,5.21-1.08,1.56-2.27,3.12-3.56,4.68-.92,1.1-1.8,2.22-2.66,3.36-.87,1.16-1.63,2.39-2.27,3.68h10.9c.49,0,.88.4.88.88h0v6.38c0,.49-.4.88-.88.88h-21.53Z"/>
          <path id="Tracé_132-3-2" data-name="Tracé 132-3" class="cls-1" d="M869.81,446.27c-3.65,0-6.47-1.02-8.46-3.07-1.99-2.05-2.98-4.99-2.98-8.84v-19.49c0-4.06.95-7.17,2.84-9.34,1.89-2.17,4.76-3.25,8.61-3.25,3.86,0,6.74,1.08,8.62,3.25,1.88,2.17,2.82,5.28,2.82,9.34v19.49c0,3.85-.99,6.79-2.97,8.84s-4.8,3.07-8.47,3.07M869.81,438.31c.65.01,1.26-.34,1.57-.91.38-.61.57-1.32.56-2.04v-21.34c.01-.9-.1-1.8-.33-2.66-.22-.76-.82-1.14-1.8-1.14-.98,0-1.58.38-1.8,1.14-.24.87-.35,1.76-.33,2.66v21.34c0,.72.19,1.43.58,2.04.31.57.91.91,1.56.91"/>
          <path id="Tracé_133-3-2" data-name="Tracé 133-3" class="cls-1" d="M883.76,445.88v-2.06c-.03-1.97.31-3.93.99-5.78.65-1.69,1.51-3.29,2.57-4.76,1.05-1.46,2.15-2.9,3.31-4.31,1.13-1.37,2.21-2.79,3.23-4.24,1.03-1.46,1.87-3.04,2.5-4.71.67-1.83,1-3.76.97-5.71.02-.89-.13-1.78-.45-2.61-.3-.73-.93-1.09-1.88-1.09-1.44,0-2.16,1.28-2.16,3.85v4.39c0,.49-.4.88-.88.88h-7.36c-.47,0-.86-.37-.88-.84,0-.14-.01-.29-.02-.44-.02-.47-.04-.93-.04-1.37,0-3.11.33-5.75.98-7.92.65-2.17,1.81-3.82,3.48-4.96,1.66-1.14,4-1.71,7.01-1.71,3.58,0,6.37,1.01,8.36,3.02,1.99,2.01,2.98,4.89,2.98,8.62,0,2.54-.33,4.76-.98,6.67-.62,1.85-1.5,3.6-2.6,5.21-1.08,1.56-2.27,3.12-3.56,4.68-.92,1.1-1.8,2.22-2.66,3.36-.87,1.16-1.63,2.39-2.27,3.68h10.9c.49,0,.88.4.88.88h0v6.38c0,.49-.4.88-.88.88h-21.53Z"/>
          <path id="Tracé_134-3-2" data-name="Tracé 134-3" class="cls-1" d="M920.07,446.27c-3,0-5.34-.51-7.03-1.53s-2.89-2.57-3.58-4.63c-.7-2.06-1.04-4.63-1.04-7.71v-11.69c-.02-2.65.11-5.3.38-7.93.25-2.29.78-4.21,1.58-5.77.78-1.53,2.04-2.77,3.58-3.54,1.59-.8,3.71-1.2,6.36-1.2,1.74-.01,3.46.31,5.08.95,1.5.58,2.82,1.55,3.81,2.82.97,1.25,1.45,2.82,1.45,4.7v3.78c0,.49-.4.88-.88.88h-6.56c-.49,0-.88-.4-.88-.88h0c0-.72-.04-1.44-.11-2.16-.05-.63-.23-1.24-.55-1.79-.29-.47-.79-.71-1.5-.71-.97,0-1.64.27-2.01.8s-.56,1.3-.56,2.3v8.67c.42-.78,1.06-1.43,1.84-1.85.92-.49,1.95-.73,3-.7,2.39,0,4.23.48,5.51,1.44,1.28.96,2.17,2.39,2.66,4.28.49,1.9.74,4.27.74,7.12,0,2.88-.35,5.4-1.06,7.55-.7,2.15-1.88,3.83-3.52,5.02-1.65,1.19-3.88,1.79-6.69,1.79M919.75,438.31c1.01,0,1.62-.43,1.82-1.29.22-1.09.32-2.19.29-3.3v-3.49c0-2.36-.66-3.54-1.99-3.54-1.52,0-2.28,1.02-2.28,3.07v5.35c0,2.13.72,3.19,2.16,3.19"/>
        </g>
        <g>
          <path class="cls-1" d="M827.21,385.47v-39.69c0-1.24,1-2.24,2.24-2.24h7.03c1.24,0,2.24,1,2.24,2.24v39.69c0,1.24-1,2.24-2.24,2.24h-7.03c-1.24,0-2.24-1-2.24-2.24Z"/>
          <path class="cls-1" d="M832.97,328.73c-3.18,0-5.76,2.58-5.76,5.76s2.58,5.75,5.76,5.75,5.76-2.58,5.76-5.75-2.58-5.76-5.76-5.76Z"/>
          <path class="cls-1" d="M670.36,387.94c-4.68,0-8.26-1.42-10.74-4.25-2.48-2.83-3.71-6.92-3.71-12.27v-27.84c0-5.02,1.23-8.83,3.68-11.42,2.45-2.6,6.04-3.9,10.77-3.9s8.32,1.3,10.77,3.9c2.45,2.6,3.68,6.41,3.68,11.42v27.84c0,5.35-1.24,9.44-3.71,12.27-2.48,2.83-6.06,4.25-10.74,4.25ZM670.46,377.15c1.78,0,2.66-1.72,2.66-5.16v-28.61c0-2.89-.87-4.33-2.6-4.33-1.95,0-2.93,1.48-2.93,4.43v28.57c0,1.82.22,3.13.67,3.91.44.79,1.18,1.18,2.2,1.18Z"/>
          <path class="cls-1" d="M689.54,386.21v-56.22c0-.66.54-1.2,1.2-1.2h9.33c.66,0,1.2.54,1.2,1.2v46.23c0,.66.54,1.2,1.2,1.2h9.66c.66,0,1.2.54,1.2,1.2v7.6c0,.66-.54,1.2-1.2,1.2h-21.39c-.66,0-1.2-.54-1.2-1.2Z"/>
          <path class="cls-1" d="M721.61,386.1v-17.66c0-.21-.02-.42-.07-.63l-8.9-37.42c-.19-.82.42-1.6,1.26-1.6h8.87c.64,0,1.18.46,1.28,1.09l2.96,18c.02.14.23.14.25,0l2.96-18c.1-.63.65-1.09,1.28-1.09h8.84c.84,0,1.46.78,1.26,1.6l-8.87,37.42c-.05.21-.07.42-.07.63v17.66c0,.72-.58,1.3-1.3,1.3h-8.46c-.72,0-1.3-.58-1.3-1.3Z"/>
          <path class="cls-1" d="M744.96,386.1v-56.01c0-.72.58-1.3,1.3-1.3h15.42c.65,0,1.2.48,1.29,1.12l4.56,33.09c.03.24.38.24.42,0l4.53-33.09c.09-.64.64-1.12,1.29-1.12h15.58c.72,0,1.3.58,1.3,1.3v56.01c0,.72-.58,1.3-1.3,1.3h-8.12c-.72,0-1.3-.58-1.3-1.3v-38.27c0-.26-.38-.29-.42-.03l-6.13,38.5c-.1.63-.65,1.1-1.28,1.1h-8.31c-.63,0-1.18-.46-1.28-1.08l-6.53-38.67c-.04-.25-.42-.22-.42.04v38.41c0,.72-.58,1.3-1.3,1.3h-7.99c-.72,0-1.3-.58-1.3-1.3Z"/>
          <path class="cls-1" d="M795.85,387.04v-57.88c0-.2.16-.37.37-.37h15.12c3.24,0,5.81.72,7.71,2.16,1.9,1.44,3.26,3.5,4.08,6.16.82,2.66,1.23,5.84,1.23,9.52s-.34,6.64-1.03,9.27c-.69,2.63-1.91,4.67-3.68,6.11-1.77,1.44-4.27,2.16-7.51,2.16h-4.4c-.2,0-.37.16-.37.37v22.48c0,.2-.16.37-.37.37h-10.79c-.2,0-.37-.16-.37-.37ZM807.37,353.67h.67c2.18,0,3.51-.61,4-1.83.49-1.22.73-3.02.73-5.4,0-2.22-.24-3.94-.72-5.15-.48-1.21-1.6-1.82-3.38-1.82h-.93c-.2,0-.37.16-.37.37v13.82Z"/>
          <path class="cls-1" d="M857.16,387.94c-4.24,0-7.65-1.32-10.24-3.96-2.59-2.64-3.88-6.34-3.88-11.09v-27.04c0-5.68,1.13-10.03,3.38-13.05,2.25-3.02,5.92-4.53,11.01-4.53,2.77,0,5.25.51,7.41,1.53,2.16,1.02,3.87,2.55,5.11,4.58,1.24,2.03,1.86,4.59,1.86,7.68v8.84c0,.71-.58,1.29-1.29,1.29h-9.08c-.71,0-1.29-.58-1.29-1.29v-7.37c0-1.75-.22-2.94-.67-3.55-.44-.61-1.13-.92-2.06-.92-1.09,0-1.82.39-2.2,1.18-.38.79-.57,1.84-.57,3.15v29.34c0,1.62.24,2.76.72,3.43.48.67,1.16,1,2.05,1,1,0,1.7-.41,2.11-1.23.41-.82.62-1.89.62-3.2v-9.27c0-.71.58-1.29,1.29-1.29h9.21c.71,0,1.29.58,1.29,1.29v9.8c0,5.15-1.3,8.89-3.9,11.21-2.6,2.32-6.23,3.48-10.89,3.48Z"/>
          <path class="cls-1" d="M905.48,387.94c-4.24,0-7.65-1.32-10.24-3.96-2.59-2.64-3.88-6.34-3.88-11.09v-27.04c0-5.68,1.13-10.03,3.38-13.05,2.25-3.02,5.92-4.53,11.01-4.53,2.77,0,5.25.51,7.41,1.53,2.16,1.02,3.87,2.55,5.11,4.58,1.24,2.03,1.86,4.59,1.86,7.68v8.84c0,.71-.58,1.29-1.29,1.29h-9.08c-.71,0-1.29-.58-1.29-1.29v-7.37c0-1.75-.22-2.94-.67-3.55-.44-.61-1.13-.92-2.06-.92-1.09,0-1.82.39-2.2,1.18-.38.79-.57,1.84-.57,3.15v29.34c0,1.62.24,2.76.72,3.43.48.67,1.16,1,2.05,1,1,0,1.7-.41,2.11-1.23.41-.82.62-1.89.62-3.2v-9.27c0-.71.58-1.29,1.29-1.29h9.21c.71,0,1.29.58,1.29,1.29v9.8c0,5.15-1.3,8.89-3.9,11.21-2.6,2.32-6.23,3.48-10.89,3.48Z"/>
          <path class="cls-1" d="M938.15,387.94c-4.68,0-8.26-1.42-10.74-4.25-2.48-2.83-3.71-6.92-3.71-12.27v-27.84c0-5.02,1.23-8.83,3.68-11.42,2.45-2.6,6.04-3.9,10.77-3.9s8.32,1.3,10.77,3.9c2.45,2.6,3.68,6.41,3.68,11.42v27.84c0,5.35-1.24,9.44-3.71,12.27-2.48,2.83-6.06,4.25-10.74,4.25ZM938.25,377.15c1.78,0,2.66-1.72,2.66-5.16v-28.61c0-2.89-.87-4.33-2.6-4.33-1.95,0-2.93,1.48-2.93,4.43v28.57c0,1.82.22,3.13.67,3.91.44.79,1.18,1.18,2.2,1.18Z"/>
          <path class="cls-1" d="M957.33,386.63v-57.06c0-.43.35-.78.78-.78h10.64c.37,0,.69.26.76.63l5.02,26.11c.03.15.26.13.26-.02v-25.93c0-.43.35-.78.78-.78h9.77c.43,0,.78.35.78.78v57.06c0,.43-.35.78-.78.78h-10.04c-.37,0-.69-.26-.76-.63l-5.48-27.4c-.03-.15-.26-.13-.26.03v27.22c0,.43-.35.78-.78.78h-9.9c-.43,0-.78-.35-.78-.78Z"/>
          <path class="cls-1" d="M991.3,386.68v-57.16c0-.4.32-.72.72-.72h10.73c.35,0,.65.25.71.59l5.17,26.88c.01.07.12.06.12-.01v-26.74c0-.4.32-.72.72-.72h9.87c.4,0,.72.32.72.72v57.16c0,.4-.32.72-.72.72h-10.14c-.35,0-.64-.24-.71-.58l-5.57-27.87c-.02-.1-.17-.09-.17.02v27.71c0,.4-.32.72-.72.72h-10.01c-.4,0-.72-.32-.72-.72Z"/>
          <path class="cls-1" d="M1025.27,386.5v-56.81c0-.5.4-.9.9-.9h21.64c.5,0,.9.4.9.9v9.52c0,.5-.4.9-.9.9h-9.72c-.5,0-.9.4-.9.9v9.62c0,.5.4.9.9.9h9.25c.5,0,.9.4.9.9v9.22c0,.5-.4.9-.9.9h-9.25c-.5,0-.9.4-.9.9v11.62c0,.5.4.9.9.9h10.49c.5,0,.9.4.9.9v9.62c0,.5-.4.9-.9.9h-22.41c-.5,0-.9-.4-.9-.9Z"/>
          <path class="cls-1" d="M1067,387.94c-4.24,0-7.65-1.32-10.24-3.96-2.59-2.64-3.88-6.34-3.88-11.09v-27.04c0-5.68,1.13-10.03,3.38-13.05,2.25-3.02,5.92-4.53,11.01-4.53,2.77,0,5.25.51,7.41,1.53,2.16,1.02,3.87,2.55,5.11,4.58,1.24,2.03,1.86,4.59,1.86,7.68v8.84c0,.71-.58,1.29-1.29,1.29h-9.08c-.71,0-1.29-.58-1.29-1.29v-7.37c0-1.75-.22-2.94-.67-3.55-.44-.61-1.13-.92-2.06-.92-1.09,0-1.82.39-2.2,1.18-.38.79-.57,1.84-.57,3.15v29.34c0,1.62.24,2.76.72,3.43.48.67,1.16,1,2.05,1,1,0,1.7-.41,2.11-1.23.41-.82.62-1.89.62-3.2v-9.27c0-.71.58-1.29,1.29-1.29h9.21c.71,0,1.29.58,1.29,1.29v9.8c0,5.15-1.3,8.89-3.9,11.21-2.6,2.32-6.23,3.48-10.89,3.48Z"/>
          <path class="cls-1" d="M1090.71,386.92v-46.38c0-.27-.22-.49-.49-.49h-5.99c-.27,0-.49-.22-.49-.49v-10.28c0-.27.22-.49.49-.49h24.67c.27,0,.49.22.49.49v10.28c0,.27-.22.49-.49.49h-5.99c-.27,0-.49.22-.49.49v46.38c0,.27-.22.49-.49.49h-10.75c-.27,0-.49-.22-.49-.49Z"/>
        </g>
      </g>
    </g>
  </g>
</svg>