<svg viewBox="0 0 707.53 302.31" xmlns="http://www.w3.org/2000/svg"><g fill="#003da6"><path d="m299.18 107.23c33.62-81.53-29.44-103.75-70.48-103.75h-135.58c11.28 7.68 9.37 17.81 7.22 23.88l-79 248.96c-3.15 9.9-15.24 20.07-21.34 21.8h109.86c-6.18-1.15-14.78-9.63-11.55-21.11l28.67-89.98s132.12 17.54 172.2-79.81m-106.87-80.86c14.39 0 54.24 1.84 28.44 76.08-26.91 77.69-86.52 61.76-86.52 61.76l43.92-137.84h14.17z"/><path d="m386.74 298.13h74.12c-23.68-7.6-58.58-29.63-72.7-45.22 11.4-12.02 25.18-27.18 27.83-58.23h-38.23s7.49 4.03 7.49 12.98c0 8.29-3.42 19.46-9.87 27.6-11.17-16.35-23.34-35.05-27.56-62.65 14.97-7.29 36.28-15.27 53.01-29.63 16.05-13.9 19.54-26.68 19.81-35.24v-1.03c0-8.99-3.38-17.08-9.98-23.45-11.1-10.86-28.56-15.13-46.99-11.98-15.01 2.8-27.37 10.52-33.4 16.28-22.76 20.49-25.6 54.66-25.6 69.97 0 3.57.31 6.56.31 8.18-1 .39-3.61 1.38-3.61 1.38-16.12 5.8-59.57 17.28-75.16 52.59-2 4.3-4.84 14.05-4.84 25.41 0 9.52 2 20.35 8.29 30.33 11.09 16.73 29.52 27.25 59.42 26.83 32.4-.42 64.33-22.23 69.9-26.22 5.72 5.22 20.38 18.58 27.75 22.11m.01-196.7c-3.61 23.72-34.74 47.68-42.34 50.82-1.38-13.36-.92-34.39 10.29-51.59 7.83-11.32 17.62-16.35 25.64-13.55 6.41 2.23 7.18 7.95 6.41 14.32m-43.26 158.45c-4.41 2.61-21.54 11.17-37.62 12.67-15.05 1.38-39.73-4.3-39.73-33.59 0-25.3 27.94-43.41 42.72-49.98 6.56 24.3 20 51.9 34.63 70.9"/><path d="m611.52 26.59c43.97-10.45 80.26 23.57 83.61 25.64l12.4-39.15c-17.35-5.07-143.37-47.18-232.39 53.01-54.78 61.61-68.41 187.78 1.15 221.52 74.51 36.24 156.69-5.57 162.49-8.37l34.24-106.36c3.49-13.01 11.78-21.38 26.45-26.64h-118.04c17.2 7.14 16.12 19.85 14.51 25.07l-33.86 106.41c-4.45.81-99.46 24.1-46.33-139.34 11.28-34.97 43.45-99.34 95.77-111.78z"/></g></svg>