<svg viewBox="0 0 70 10.72" xmlns="http://www.w3.org/2000/svg"><path d="m2.66 2.9c-.05-.2-.04-.41-.01-.53.07-.32.28-.67.92-.67.59 0 .93.36.93.91v.62h2.5v-.7c-.01-2.18-1.97-2.53-3.39-2.53-1.77 0-3.23.59-3.49 2.22-.07.45-.09.84.02 1.35.43 2.05 3.99 2.64 4.51 3.93.1.24.07.55.02.74-.08.34-.31.68-.98.68-.63 0-1-.36-1-.91v-.96h-2.69v.77c0 2.24 1.76 2.91 3.64 2.91s3.29-.62 3.54-2.29c.12-.86.03-1.43-.01-1.64-.42-2.1-4.22-2.72-4.5-3.89m32.54.02c-.04-.2-.03-.41 0-.52.07-.32.29-.67.91-.67.58 0 .92.36.92.9v.61h2.47v-.7c0-2.16-1.93-2.49-3.33-2.49-1.76 0-3.2.58-3.47 2.2-.07.44-.09.83.02 1.33.43 2.02 3.95 2.61 4.46 3.89.09.24.06.55.02.73-.08.33-.3.67-.96.67-.62 0-1-.36-1-.9v-.96h-2.66v.76c0 2.21 1.73 2.88 3.6 2.88s3.26-.61 3.5-2.27c.11-.86.03-1.41-.02-1.62-.41-2.07-4.17-2.7-4.45-3.86m22.72 5.45-2.37-8.04h-3.71v9.9h2.46l-.14-8.31 2.53 8.31h3.56v-9.9h-2.47l.14 8.06zm-47.23-8.04-1.85 10.01h2.7l1.4-9.26 1.36 9.26h2.68l-1.84-10.01zm15.12 0-1.26 7.82-1.26-7.82h-4.08l-.22 10.01h2.5l.07-9.26 1.72 9.26h2.54l1.72-9.26.07 9.26h2.51l-.22-10.01h-4.08zm23.25 0h-2.53v7.4c0 .13 0 .27-.02.38-.05.25-.26.73-.96.73s-.91-.48-.95-.73c-.03-.11-.03-.25-.03-.38v-7.4h-2.53v7.17c0 .18.01.56.02.66.17 1.87 1.65 2.48 3.49 2.48s3.32-.61 3.49-2.48c.01-.1.03-.48.02-.66zm17.38 4.39v1.46h1.03v1.45c0 .13 0 .27-.03.38-.04.27-.3.73-1.03.73s-.98-.46-1.02-.73c-.02-.11-.03-.25-.03-.38v-4.58c0-.16.01-.34.05-.47.05-.24.27-.72.99-.72.77 0 .96.51 1 .72.03.14.03.39.03.39v.56h2.52v-.33s.01-.34-.02-.66c-.19-1.88-1.74-2.47-3.51-2.47s-3.29.6-3.51 2.47c-.02.17-.05.48-.05.66v4.21c0 .18 0 .33.04.66.16 1.83 1.75 2.47 3.52 2.47s3.35-.65 3.52-2.47c.03-.33.03-.48.04-.66v-2.68h-3.54z" fill="#fff"/></svg>