<?xml version="1.0" encoding="UTF-8"?><svg id="Calque_2" xmlns="http://www.w3.org/2000/svg" viewBox="0 0 354.87 110.81"><g id="_图层_1"><polygon points="0 34.63 40.25 34.63 40.25 106.73 76.27 106.73 76.27 34.63 116.46 34.63 116.46 5.54 0 5.54 0 34.63" style="fill:red;"/><path d="M187,85.87c-8.37,0-14.63-2.39-19.98-7.36-5.17-4.82-8.97-12.3-8.97-22.35v-1.55c0-10.04,3.8-17.56,8.97-22.39,5.35-4.98,11.67-7.3,20-7.3,19.61,0,23.81,11.67,25.07,19.31h31.93c-.76-15.36-8.11-26.2-18.46-33.44-10.29-7.14-22.31-10.8-38.2-10.8-19.54,0-33.5,4.34-44.88,14.03-11.51,9.85-17.65,25.43-17.65,40.97v.81c0,16.97,5.34,29.76,17.12,40.45,11.04,10.01,27.12,14.58,44.98,14.56,15.87,0,29.48-3.74,38.88-10.84,10.37-7.82,17.48-18.83,18.32-33.33h-31.85c-.89,6.11-4.71,19.24-25.29,19.24" style="fill:red;"/><polygon points="298.08 79 298.08 5.55 263.4 5.55 263.4 106.72 354.87 106.72 354.87 79 298.08 79" style="fill:red;"/></g></svg>