<svg width="36" height="36" viewBox="0 0 36 36" fill="none" xmlns="http://www.w3.org/2000/svg">
<rect x="0.0243252" y="0.0243252" width="35.9514" height="35.9514" rx="7.97567" fill="#373A69" stroke="#6196A7" stroke-width="0.0486503"/>
<path d="M10.8252 11.3838C15.2032 11.0738 19.6119 11.1111 23.9854 11.2559H23.9863C24.3244 11.2656 24.6657 11.308 25.0068 11.3633L25.3477 11.4219C25.8853 11.5182 26.2846 11.7247 26.5859 12.0039C26.8881 12.2839 27.0991 12.6439 27.25 13.0576C27.5544 13.8925 27.6041 14.9155 27.6777 15.8828C27.8043 17.5672 27.774 19.2594 27.5791 20.9365L27.4854 21.6543C27.3741 22.4482 27.2144 23.1515 26.874 23.6709C26.5411 24.1787 26.0272 24.5226 25.1689 24.584C22.9268 24.7514 20.7404 24.8855 18.499 24.8447C18.4973 24.8441 18.4957 24.8433 18.4941 24.8428C18.4774 24.8375 18.463 24.8356 18.4551 24.835C18.4496 24.8345 18.4445 24.835 18.4414 24.835L14.3789 24.7588C13.0517 24.7321 11.755 24.7849 10.4834 24.5146L10.4824 24.5137C9.56026 24.3211 9.06855 23.7595 8.78418 23.0312C8.49528 22.2912 8.42484 21.3907 8.35156 20.542C8.15222 18.1856 8.22936 15.7868 8.60547 13.4512C8.70808 12.818 8.95999 12.3234 9.33105 11.9775C9.70174 11.6323 10.2029 11.4247 10.8242 11.3838H10.8252ZM15.9043 21.2051L16.124 21.0771C17.8242 20.0796 19.4914 19.0982 21.1816 18.1074L21.3955 17.9824L21.1816 17.8564C19.4782 16.8588 17.815 15.8789 16.124 14.8877L15.9043 14.7598V21.2051Z" fill="#FBFBFB" stroke="#FBFBFB" stroke-width="0.291067"/>
</svg>
